M48
;Layer_Color=9474304
;FILE_FORMAT=2:5
INCH,LZ
;TYPE=PLATED
T1F00S00C0.01300
T2F00S00C0.02362
T3F00S00C0.03937
T4F00S00C0.07087
%
T01
X00236Y00089
X00465Y00036
X006Y00058
X01214Y00083
X0117Y00248
X01184Y00748
X01001Y00722
Y00827
X00931Y0075751
X0079Y0076
X00706
X00714Y00819
X0062582Y0082882
X00565Y008
X0049Y00761
X00513Y00535
X0045Y00551
X00477Y0042816
X0093Y00553
X00975Y00958
X00852Y00933
X00825Y01003
X00896Y01057
X00987Y01104
X01121Y01058
X01174Y0103
X01177Y00997
X01118Y00977
X0133446Y0105754
X00748Y01054
X00667Y01052
X00519Y01052
X00494Y01131
X00568Y00959
X00626Y00936
X00305Y00914
X00352Y00856
X00305Y01061
X00439Y01094
X00122Y01113
T02
X00369Y0014078
Y0019
X00229Y0032678
Y00376
X008Y0019
Y0014078
X0107034Y01208
X0112034
X0117034
X0122034
X0127034
X00229Y0056722
Y00518
T03
X0098239Y00305
X0128161
T04
X00596Y00318
X00817Y00538
M30
