G04*
G04 #@! TF.GenerationSoftware,Altium Limited,Altium Designer,20.0.2 (26)*
G04*
G04 Layer_Color=65535*
%FSLAX25Y25*%
%MOIN*%
G70*
G01*
G75*
%ADD10C,0.01000*%
%ADD11C,0.01181*%
%ADD12C,0.00591*%
%ADD13C,0.00799*%
%ADD14C,0.00800*%
%ADD15C,0.00600*%
%ADD16C,0.00598*%
D10*
X86614Y42129D02*
G03*
X86614Y42129I-15748J0D01*
G01*
X125337Y65075D02*
G03*
X126557Y66295I0J1220D01*
G01*
Y69445D02*
G03*
X125337Y70665I-1220J0D01*
G01*
X115551Y66318D02*
G03*
X116771Y65098I1220J-0D01*
G01*
Y70688D02*
G03*
X115551Y69468I0J-1220D01*
G01*
X129540Y62968D02*
G03*
X128321Y64188I-1220J0D01*
G01*
X125171D02*
G03*
X123951Y62968I-0J-1220D01*
G01*
X128297Y53182D02*
G03*
X129517Y54401I0J1220D01*
G01*
X123928D02*
G03*
X125148Y53182I1220J0D01*
G01*
X96005Y47955D02*
G03*
X97225Y46736I1220J0D01*
G01*
X100374D02*
G03*
X101594Y47955I0J1220D01*
G01*
X97248Y57741D02*
G03*
X96028Y56522I-0J-1220D01*
G01*
X101617D02*
G03*
X100397Y57741I-1220J0D01*
G01*
X124217Y19337D02*
G03*
X122997Y20557I-1220J0D01*
G01*
X119847D02*
G03*
X118628Y19337I-0J-1220D01*
G01*
X122974Y9551D02*
G03*
X124194Y10771I0J1220D01*
G01*
X118605D02*
G03*
X119824Y9551I1220J0D01*
G01*
X88283Y10587D02*
G03*
X89503Y9367I1220J0D01*
G01*
X92653D02*
G03*
X93872Y10587I0J1220D01*
G01*
X89526Y20373D02*
G03*
X88306Y19153I-0J-1220D01*
G01*
X93895D02*
G03*
X92676Y20373I-1220J0D01*
G01*
X96733Y10587D02*
G03*
X97953Y9367I1220J0D01*
G01*
X101103D02*
G03*
X102323Y10587I0J1220D01*
G01*
X97976Y20373D02*
G03*
X96756Y19153I-0J-1220D01*
G01*
X102346D02*
G03*
X101126Y20373I-1220J0D01*
G01*
X10186Y99717D02*
G03*
X8967Y98497I0J-1220D01*
G01*
Y95347D02*
G03*
X10186Y94128I1220J-0D01*
G01*
X19973Y98474D02*
G03*
X18753Y99694I-1220J0D01*
G01*
Y94105D02*
G03*
X19973Y95324I0J1220D01*
G01*
X29686Y78917D02*
G03*
X28466Y77697I0J-1220D01*
G01*
Y74547D02*
G03*
X29686Y73327I1220J-0D01*
G01*
X39472Y77674D02*
G03*
X38253Y78894I-1220J0D01*
G01*
Y73305D02*
G03*
X39472Y74524I0J1220D01*
G01*
X57183Y10731D02*
G03*
X58403Y9511I1220J0D01*
G01*
X61553D02*
G03*
X62773Y10731I0J1220D01*
G01*
X58426Y20517D02*
G03*
X57206Y19297I-0J-1220D01*
G01*
X62795D02*
G03*
X61576Y20517I-1220J0D01*
G01*
X57Y59109D02*
X141789D01*
X115551Y66318D02*
Y69468D01*
X116771Y65098D02*
X119920D01*
X116771Y70688D02*
X119920D01*
X122187Y65075D02*
X125337D01*
X126557Y66295D02*
Y69445D01*
X122187Y70665D02*
X125337D01*
X125148Y53182D02*
X128297D01*
X129517Y54401D02*
Y57551D01*
X123928Y54401D02*
Y57551D01*
X129540Y59818D02*
Y62968D01*
X125171Y64187D02*
X128321D01*
X123951Y59818D02*
Y62968D01*
X97248Y57741D02*
X100398D01*
X96028Y53372D02*
Y56522D01*
X101617Y53372D02*
Y56522D01*
X96005Y47956D02*
Y51105D01*
X97225Y46736D02*
X100374D01*
X101594Y47956D02*
Y51105D01*
X119824Y9551D02*
X122974D01*
X124194Y10770D02*
Y13920D01*
X118605Y10770D02*
Y13920D01*
X124217Y16187D02*
Y19337D01*
X119847Y20557D02*
X122997D01*
X118628Y16187D02*
Y19337D01*
X89526Y20373D02*
X92676D01*
X88306Y16004D02*
Y19153D01*
X93895Y16004D02*
Y19153D01*
X88283Y10587D02*
Y13736D01*
X89503Y9367D02*
X92653D01*
X93872Y10587D02*
Y13736D01*
X97976Y20373D02*
X101126D01*
X96756Y16004D02*
Y19153D01*
X102346Y16004D02*
Y19153D01*
X96733Y10587D02*
Y13736D01*
X97953Y9367D02*
X101103D01*
X102322Y10587D02*
Y13736D01*
X19973Y95324D02*
Y98474D01*
X15603Y99694D02*
X18753D01*
X15603Y94105D02*
X18753D01*
X10187Y99717D02*
X13336D01*
X8967Y95347D02*
Y98497D01*
X10187Y94128D02*
X13336D01*
X39472Y74524D02*
Y77674D01*
X35103Y78894D02*
X38253D01*
X35103Y73305D02*
X38253D01*
X29686Y78917D02*
X32836D01*
X28467Y74547D02*
Y77697D01*
X29686Y73328D02*
X32836D01*
X58426Y20517D02*
X61576D01*
X57206Y16148D02*
Y19297D01*
X62795Y16148D02*
Y19297D01*
X57183Y10731D02*
Y13881D01*
X58403Y9511D02*
X61553D01*
X62772Y10731D02*
Y13881D01*
D11*
X107778Y59368D02*
G03*
X107778Y59368I-591J0D01*
G01*
D12*
X83081Y90953D02*
X88002D01*
X83081Y85047D02*
X88002D01*
X76191Y90953D02*
X80719D01*
X76191Y85047D02*
X80719D01*
X88002Y85126D02*
Y90952D01*
X75010Y86622D02*
Y89378D01*
Y89772D02*
X76191Y90953D01*
X75010Y89378D02*
Y89772D01*
Y86228D02*
X76191Y85047D01*
X75010Y86228D02*
Y86622D01*
X81400Y88025D02*
X82400D01*
Y86500D02*
Y89500D01*
X83081Y108753D02*
X88002D01*
X83081Y102847D02*
X88002D01*
X76191Y108753D02*
X80719D01*
X76191Y102847D02*
X80719D01*
X88002Y102926D02*
Y108752D01*
X75010Y104422D02*
Y107178D01*
Y107572D02*
X76191Y108753D01*
X75010Y107178D02*
Y107572D01*
Y104028D02*
X76191Y102847D01*
X75010Y104028D02*
Y104422D01*
X81400Y105825D02*
X82400D01*
Y104300D02*
Y107300D01*
X69653Y90398D02*
Y95319D01*
X63747Y90398D02*
Y95319D01*
X69653Y97681D02*
Y102209D01*
X63747Y97681D02*
Y102209D01*
X63826Y90398D02*
X69652D01*
X65322Y103390D02*
X68078D01*
X68472D02*
X69653Y102209D01*
X68078Y103390D02*
X68472D01*
X63747Y102209D02*
X64928Y103390D01*
X65322D01*
X66725Y96000D02*
Y97000D01*
X65200Y96000D02*
X68200D01*
X92253Y90398D02*
Y95319D01*
X86347Y90398D02*
Y95319D01*
X92253Y97681D02*
Y102209D01*
X86347Y97681D02*
Y102209D01*
X86426Y90398D02*
X92252D01*
X87922Y103390D02*
X90678D01*
X91072D02*
X92253Y102209D01*
X90678Y103390D02*
X91072D01*
X86347Y102209D02*
X87528Y103390D01*
X87922D01*
X89325Y96000D02*
Y97000D01*
X87800Y96000D02*
X90800D01*
X55453Y90398D02*
Y95319D01*
X49547Y90398D02*
Y95319D01*
X55453Y97681D02*
Y102209D01*
X49547Y97681D02*
Y102209D01*
X49626Y90398D02*
X55452D01*
X51122Y103390D02*
X53878D01*
X54272D02*
X55453Y102209D01*
X53878Y103390D02*
X54272D01*
X49547Y102209D02*
X50728Y103390D01*
X51122D01*
X52525Y96000D02*
Y97000D01*
X51000Y96000D02*
X54000D01*
X77853Y90398D02*
Y95319D01*
X71947Y90398D02*
Y95319D01*
X77853Y97681D02*
Y102209D01*
X71947Y97681D02*
Y102209D01*
X72026Y90398D02*
X77852D01*
X73522Y103390D02*
X76278D01*
X76672D02*
X77853Y102209D01*
X76278Y103390D02*
X76672D01*
X71947Y102209D02*
X73128Y103390D01*
X73522D01*
X74925Y96000D02*
Y97000D01*
X73400Y96000D02*
X76400D01*
X60681Y108753D02*
X65602D01*
X60681Y102847D02*
X65602D01*
X53791Y108753D02*
X58319D01*
X53791Y102847D02*
X58319D01*
X65602Y102926D02*
Y108752D01*
X52610Y104422D02*
Y107178D01*
Y107572D02*
X53791Y108753D01*
X52610Y107178D02*
Y107572D01*
Y104028D02*
X53791Y102847D01*
X52610Y104028D02*
Y104422D01*
X59000Y105825D02*
X60000D01*
Y104300D02*
Y107300D01*
X63800Y80081D02*
Y85002D01*
X69706Y80081D02*
Y85002D01*
X63800Y73191D02*
Y77719D01*
X69706Y73191D02*
Y77719D01*
X63801Y85002D02*
X69627D01*
X65375Y72010D02*
X68131D01*
X63800Y73191D02*
X64981Y72010D01*
X65375D01*
X68525D02*
X69706Y73191D01*
X68131Y72010D02*
X68525D01*
X66728Y78400D02*
Y79400D01*
X65253D02*
X68253D01*
X95998Y98847D02*
X100919D01*
X95998Y104753D02*
X100919D01*
X103281Y98847D02*
X107809D01*
X103281Y104753D02*
X107809D01*
X95998Y98848D02*
Y104674D01*
X108990Y100422D02*
Y103178D01*
X107809Y98847D02*
X108990Y100028D01*
Y100422D01*
X107809Y104753D02*
X108990Y103572D01*
Y103178D02*
Y103572D01*
X101600Y101775D02*
X102600D01*
X101600Y100300D02*
Y103300D01*
X86347Y80081D02*
Y85002D01*
X92253Y80081D02*
Y85002D01*
X86347Y73191D02*
Y77719D01*
X92253Y73191D02*
Y77719D01*
X86348Y85002D02*
X92174D01*
X87922Y72010D02*
X90678D01*
X86347Y73191D02*
X87528Y72010D01*
X87922D01*
X91072D02*
X92253Y73191D01*
X90678Y72010D02*
X91072D01*
X89275Y78400D02*
Y79400D01*
X87800D02*
X90800D01*
X49447Y80081D02*
Y85002D01*
X55353Y80081D02*
Y85002D01*
X49447Y73191D02*
Y77719D01*
X55353Y73191D02*
Y77719D01*
X49448Y85002D02*
X55274D01*
X51022Y72010D02*
X53778D01*
X49447Y73191D02*
X50628Y72010D01*
X51022D01*
X54172D02*
X55353Y73191D01*
X53778Y72010D02*
X54172D01*
X52375Y78400D02*
Y79400D01*
X50900D02*
X53900D01*
X71947Y80081D02*
Y85002D01*
X77853Y80081D02*
Y85002D01*
X71947Y73191D02*
Y77719D01*
X77853Y73191D02*
Y77719D01*
X71948Y85002D02*
X77774D01*
X73522Y72010D02*
X76278D01*
X71947Y73191D02*
X73128Y72010D01*
X73522D01*
X76672D02*
X77853Y73191D01*
X76278Y72010D02*
X76672D01*
X74875Y78400D02*
Y79400D01*
X73400D02*
X76400D01*
X60681Y73053D02*
X65602D01*
X60681Y67147D02*
X65602D01*
X53791Y73053D02*
X58319D01*
X53791Y67147D02*
X58319D01*
X65602Y67226D02*
Y73053D01*
X52610Y68722D02*
Y71478D01*
Y71872D02*
X53791Y73053D01*
X52610Y71478D02*
Y71872D01*
Y68328D02*
X53791Y67147D01*
X52610Y68328D02*
Y68722D01*
X59000Y70125D02*
X60000D01*
Y68600D02*
Y71600D01*
X60681Y90953D02*
X65602D01*
X60681Y85047D02*
X65602D01*
X53791Y90953D02*
X58319D01*
X53791Y85047D02*
X58319D01*
X65602Y85126D02*
Y90952D01*
X52610Y86622D02*
Y89378D01*
Y89772D02*
X53791Y90953D01*
X52610Y89378D02*
Y89772D01*
Y86228D02*
X53791Y85047D01*
X52610Y86228D02*
Y86622D01*
X59000Y88025D02*
X60000D01*
Y86500D02*
Y89500D01*
X83081Y73053D02*
X88002D01*
X83081Y67147D02*
X88002D01*
X76191Y73053D02*
X80719D01*
X76191Y67147D02*
X80719D01*
X88002Y67226D02*
Y73053D01*
X75010Y68722D02*
Y71478D01*
Y71872D02*
X76191Y73053D01*
X75010Y71478D02*
Y71872D01*
Y68328D02*
X76191Y67147D01*
X75010Y68328D02*
Y68722D01*
X81400Y70125D02*
X82400D01*
Y68600D02*
Y71600D01*
X49698Y115747D02*
X54619D01*
X49698Y121653D02*
X54619D01*
X56981Y115747D02*
X61509D01*
X56981Y121653D02*
X61509D01*
X49698Y115748D02*
Y121574D01*
X62690Y117322D02*
Y120078D01*
X61509Y115747D02*
X62690Y116928D01*
Y117322D01*
X61509Y121653D02*
X62690Y120472D01*
Y120078D02*
Y120472D01*
X55300Y118675D02*
X56300D01*
X55300Y117200D02*
Y120200D01*
X64673Y115747D02*
X69595D01*
X64673Y121653D02*
X69595D01*
X71957Y115747D02*
X76484D01*
X71957Y121653D02*
X76484D01*
X64673Y115748D02*
Y121574D01*
X77665Y117322D02*
Y120078D01*
X76484Y115747D02*
X77665Y116928D01*
Y117322D01*
X76484Y121653D02*
X77665Y120472D01*
Y120078D02*
Y120472D01*
X70275Y118675D02*
X71275D01*
X70275Y117200D02*
Y120200D01*
X79649Y115747D02*
X84570D01*
X79649Y121653D02*
X84570D01*
X86932Y115747D02*
X91460D01*
X86932Y121653D02*
X91460D01*
X79649Y115748D02*
Y121574D01*
X92641Y117322D02*
Y120078D01*
X91460Y115747D02*
X92641Y116928D01*
Y117322D01*
X91460Y121653D02*
X92641Y120472D01*
Y120078D02*
Y120472D01*
X85251Y118675D02*
X86251D01*
X85251Y117200D02*
Y120200D01*
D13*
X86700Y48800D02*
Y51300D01*
D14*
Y58800D01*
X76700D02*
X86700D01*
X76700Y48800D02*
Y58800D01*
Y48800D02*
X86700D01*
X5800Y42199D02*
Y39533D01*
X7133Y38200D01*
X8466Y39533D01*
Y42199D01*
X9799Y38200D02*
X11132D01*
X10465D01*
Y42199D01*
X9799Y41532D01*
X13131Y38200D02*
Y38866D01*
X13797D01*
Y38200D01*
X13131D01*
X16463Y41532D02*
X17130Y42199D01*
X18463D01*
X19129Y41532D01*
Y40866D01*
X18463Y40199D01*
X17796D01*
X18463D01*
X19129Y39533D01*
Y38866D01*
X18463Y38200D01*
X17130D01*
X16463Y38866D01*
X8666Y44100D02*
X6000D01*
X8666Y46766D01*
Y47432D01*
X7999Y48099D01*
X6667D01*
X6000Y47432D01*
X9999D02*
X10665Y48099D01*
X11998D01*
X12664Y47432D01*
Y44766D01*
X11998Y44100D01*
X10665D01*
X9999Y44766D01*
Y47432D01*
X16663Y44100D02*
X13997D01*
X16663Y46766D01*
Y47432D01*
X15997Y48099D01*
X14664D01*
X13997Y47432D01*
X20662Y44100D02*
X17996D01*
X20662Y46766D01*
Y47432D01*
X19996Y48099D01*
X18663D01*
X17996Y47432D01*
X21995Y43434D02*
X24661D01*
X25993Y47432D02*
X26660Y48099D01*
X27993D01*
X28659Y47432D01*
Y44766D01*
X27993Y44100D01*
X26660D01*
X25993Y44766D01*
Y47432D01*
X29992D02*
X30659Y48099D01*
X31992D01*
X32658Y47432D01*
Y46766D01*
X31992Y46099D01*
X31325D01*
X31992D01*
X32658Y45433D01*
Y44766D01*
X31992Y44100D01*
X30659D01*
X29992Y44766D01*
X33991Y43434D02*
X36657D01*
X37990Y47432D02*
X38656Y48099D01*
X39989D01*
X40655Y47432D01*
Y46766D01*
X39989Y46099D01*
X39323D01*
X39989D01*
X40655Y45433D01*
Y44766D01*
X39989Y44100D01*
X38656D01*
X37990Y44766D01*
X41988Y44100D02*
X43321D01*
X42655D01*
Y48099D01*
X41988Y47432D01*
D15*
X28693Y71137D02*
X29293Y71737D01*
X28693Y67135D02*
Y71137D01*
Y67135D02*
X29293Y66536D01*
X39254D02*
X39854Y67135D01*
Y71137D01*
X39254Y71737D02*
X39854Y71137D01*
X28693Y65034D02*
X29293Y65634D01*
X28693Y61032D02*
Y65034D01*
Y61032D02*
X29293Y60432D01*
X39254D02*
X39854Y61032D01*
Y65034D01*
X39254Y65634D02*
X39854Y65034D01*
X122601Y108178D02*
Y111953D01*
X117399D02*
X122601D01*
X117399Y108178D02*
Y111953D01*
X122601Y101047D02*
Y104822D01*
X117399Y101047D02*
X122601D01*
X117399D02*
Y104822D01*
X128901Y108178D02*
Y111953D01*
X123699D02*
X128901D01*
X123699Y108178D02*
Y111953D01*
X128901Y101047D02*
Y104822D01*
X123699Y101047D02*
X128901D01*
X123699D02*
Y104822D01*
X131099Y53247D02*
Y57022D01*
Y53247D02*
X136301D01*
Y57022D01*
X131099Y60378D02*
Y64153D01*
X136301D01*
Y60378D02*
Y64153D01*
X111278Y66999D02*
X115053D01*
Y72201D01*
X111278D02*
X115053D01*
X104147Y66999D02*
X107922D01*
X104147D02*
Y72201D01*
X107922D01*
X102936Y39668D02*
X106711D01*
Y44870D01*
X102936D02*
X106711D01*
X95805Y39668D02*
X99580D01*
X95805D02*
Y44870D01*
X99580D01*
X123823Y39668D02*
Y43443D01*
Y39668D02*
X129024D01*
Y43443D01*
X123823Y46799D02*
Y50574D01*
X129024D01*
Y46799D02*
Y50574D01*
X130923Y39668D02*
Y43443D01*
Y39668D02*
X136124D01*
Y43443D01*
X130923Y46799D02*
Y50574D01*
X136124D01*
Y46799D02*
Y50574D01*
X104899Y9316D02*
Y13091D01*
Y9316D02*
X110101D01*
Y13091D01*
X104899Y16447D02*
Y20222D01*
X110101D01*
Y16447D02*
Y20222D01*
X116801Y16457D02*
Y20232D01*
X111599D02*
X116801D01*
X111599Y16457D02*
Y20232D01*
X116801Y9326D02*
Y13101D01*
X111599Y9326D02*
X116801D01*
X111599D02*
Y13101D01*
X15047Y92601D02*
X18822D01*
X15047Y87399D02*
Y92601D01*
Y87399D02*
X18822D01*
X22178Y92601D02*
X25953D01*
Y87399D02*
Y92601D01*
X22178Y87399D02*
X25953D01*
X11447Y24601D02*
X15222D01*
X11447Y19399D02*
Y24601D01*
Y19399D02*
X15222D01*
X18578Y24601D02*
X22353D01*
Y19399D02*
Y24601D01*
X18578Y19399D02*
X22353D01*
X43699Y9811D02*
Y13586D01*
Y9811D02*
X48901D01*
Y13586D01*
X43699Y16942D02*
Y20717D01*
X48901D01*
Y16942D02*
Y20717D01*
X11447Y11601D02*
X15222D01*
X11447Y6399D02*
Y11601D01*
Y6399D02*
X15222D01*
X18578Y11601D02*
X22353D01*
Y6399D02*
Y11601D01*
X18578Y6399D02*
X22353D01*
X55601Y16942D02*
Y20717D01*
X50399D02*
X55601D01*
X50399Y16942D02*
Y20717D01*
X55601Y9811D02*
Y13586D01*
X50399Y9811D02*
X55601D01*
X50399D02*
Y13586D01*
X8766Y110348D02*
X14120D01*
X8766Y101852D02*
Y110348D01*
Y101852D02*
X14120D01*
X21610Y110348D02*
X26964D01*
Y101852D02*
Y110348D01*
X21610Y101852D02*
X26964D01*
X8766Y120248D02*
X14120D01*
X8766Y111752D02*
Y120248D01*
Y111752D02*
X14120D01*
X21610Y120248D02*
X26964D01*
Y111752D02*
Y120248D01*
X21610Y111752D02*
X26964D01*
X11447Y18101D02*
X15222D01*
X11447Y12899D02*
Y18101D01*
Y12899D02*
X15222D01*
X18578Y18101D02*
X22353D01*
Y12899D02*
Y18101D01*
X18578Y12899D02*
X22353D01*
X108810Y58860D02*
X115812D01*
X108810Y46740D02*
X115812D01*
X92999Y89899D02*
X92000Y89399D01*
X91000Y88399D01*
Y87400D01*
X91500Y86900D01*
X92500D01*
X92999Y87400D01*
Y87900D01*
X92500Y88399D01*
X91000D01*
X118599Y75899D02*
X118099Y76399D01*
X117100D01*
X116600Y75899D01*
Y73900D01*
X117100Y73400D01*
X118099D01*
X118599Y73900D01*
X119599Y73400D02*
X120599D01*
X120099D01*
Y76399D01*
X119599Y75899D01*
X118799Y62699D02*
X118299Y63199D01*
X117300D01*
X116800Y62699D01*
Y60700D01*
X117300Y60200D01*
X118299D01*
X118799Y60700D01*
X121798Y60200D02*
X119799D01*
X121798Y62199D01*
Y62699D01*
X121299Y63199D01*
X120299D01*
X119799Y62699D01*
X90999Y56299D02*
X90500Y56799D01*
X89500D01*
X89000Y56299D01*
Y54300D01*
X89500Y53800D01*
X90500D01*
X90999Y54300D01*
X91999Y56299D02*
X92499Y56799D01*
X93499D01*
X93998Y56299D01*
Y55799D01*
X93499Y55300D01*
X92999D01*
X93499D01*
X93998Y54800D01*
Y54300D01*
X93499Y53800D01*
X92499D01*
X91999Y54300D01*
X120301Y24099D02*
X119801Y23599D01*
Y22600D01*
X120301Y22100D01*
X122300D01*
X122800Y22600D01*
Y23599D01*
X122300Y24099D01*
X122800Y26599D02*
X119801D01*
X121300Y25099D01*
Y27098D01*
X90201Y24199D02*
X89701Y23699D01*
Y22700D01*
X90201Y22200D01*
X92200D01*
X92700Y22700D01*
Y23699D01*
X92200Y24199D01*
X89701Y27198D02*
Y25199D01*
X91201D01*
X90701Y26199D01*
Y26699D01*
X91201Y27198D01*
X92200D01*
X92700Y26699D01*
Y25699D01*
X92200Y25199D01*
X98301Y23999D02*
X97801Y23499D01*
Y22500D01*
X98301Y22000D01*
X100300D01*
X100800Y22500D01*
Y23499D01*
X100300Y23999D01*
X97801Y26998D02*
X98301Y25999D01*
X99300Y24999D01*
X100300D01*
X100800Y25499D01*
Y26499D01*
X100300Y26998D01*
X99800D01*
X99300Y26499D01*
Y24999D01*
X4099Y97799D02*
X3599Y98299D01*
X2600D01*
X2100Y97799D01*
Y95800D01*
X2600Y95300D01*
X3599D01*
X4099Y95800D01*
X5099Y98299D02*
X7098D01*
Y97799D01*
X5099Y95800D01*
Y95300D01*
X43800Y77099D02*
X43300Y77599D01*
X42300D01*
X41800Y77099D01*
Y75100D01*
X42300Y74600D01*
X43300D01*
X43800Y75100D01*
X44799Y77099D02*
X45299Y77599D01*
X46299D01*
X46799Y77099D01*
Y76599D01*
X46299Y76099D01*
X46799Y75600D01*
Y75100D01*
X46299Y74600D01*
X45299D01*
X44799Y75100D01*
Y75600D01*
X45299Y76099D01*
X44799Y76599D01*
Y77099D01*
X45299Y76099D02*
X46299D01*
X59001Y24599D02*
X58501Y24100D01*
Y23100D01*
X59001Y22600D01*
X61000D01*
X61500Y23100D01*
Y24100D01*
X61000Y24599D01*
X61500Y25599D02*
Y26599D01*
Y26099D01*
X58501D01*
X59001Y25599D01*
X61500Y30098D02*
Y28098D01*
X59501Y30098D01*
X59001D01*
X58501Y29598D01*
Y28598D01*
X59001Y28098D01*
X81099Y46699D02*
X80100D01*
X80599D01*
Y44200D01*
X80100Y43700D01*
X79600D01*
X79100Y44200D01*
X82099Y43700D02*
X83099D01*
X82599D01*
Y46699D01*
X82099Y46199D01*
X41800Y70499D02*
Y67500D01*
X43800D01*
X44799D02*
X45799D01*
X45299D01*
Y70499D01*
X44799Y69999D01*
X41800Y63999D02*
Y61000D01*
X43800D01*
X46799D02*
X44799D01*
X46799Y62999D01*
Y63499D01*
X46299Y63999D01*
X45299D01*
X44799Y63499D01*
X91100Y105600D02*
X92100D01*
X91600D01*
Y108599D01*
X91100Y108099D01*
X61899Y96100D02*
X59900D01*
X61899Y98099D01*
Y98599D01*
X61400Y99099D01*
X60400D01*
X59900Y98599D01*
X93900Y98299D02*
X94400Y98799D01*
X95399D01*
X95899Y98299D01*
Y97799D01*
X95399Y97299D01*
X94900D01*
X95399D01*
X95899Y96800D01*
Y96300D01*
X95399Y95800D01*
X94400D01*
X93900Y96300D01*
X47199Y95600D02*
Y98599D01*
X45700Y97100D01*
X47699D01*
X81699Y99199D02*
X79700D01*
Y97699D01*
X80700Y98199D01*
X81200D01*
X81699Y97699D01*
Y96700D01*
X81200Y96200D01*
X80200D01*
X79700Y96700D01*
X47500Y105400D02*
X48500D01*
X48000D01*
Y108399D01*
X47500Y107899D01*
X49999Y105400D02*
X50999D01*
X50499D01*
Y108399D01*
X49999Y107899D01*
X60500Y81099D02*
X62499D01*
Y80599D01*
X60500Y78600D01*
Y78100D01*
X65200Y123700D02*
X66200D01*
X65700D01*
Y126699D01*
X65200Y126199D01*
X69699Y123700D02*
X67699D01*
X69699Y125699D01*
Y126199D01*
X69199Y126699D01*
X68199D01*
X67699Y126199D01*
X97600Y106300D02*
X98600D01*
X98100D01*
Y109299D01*
X97600Y108799D01*
X100099D02*
X100599Y109299D01*
X101599D01*
X102099Y108799D01*
Y108299D01*
X101599Y107799D01*
X101099D01*
X101599D01*
X102099Y107300D01*
Y106800D01*
X101599Y106300D01*
X100599D01*
X100099Y106800D01*
X50100Y123600D02*
X51100D01*
X50600D01*
Y126599D01*
X50100Y126099D01*
X54099Y123600D02*
Y126599D01*
X52599Y125100D01*
X54598D01*
X79800Y123700D02*
X80800D01*
X80300D01*
Y126699D01*
X79800Y126199D01*
X84298Y126699D02*
X82299D01*
Y125199D01*
X83299Y125699D01*
X83799D01*
X84298Y125199D01*
Y124200D01*
X83799Y123700D01*
X82799D01*
X82299Y124200D01*
X95400Y80099D02*
X95900Y80599D01*
X96899D01*
X97399Y80099D01*
Y79599D01*
X96899Y79100D01*
X97399Y78600D01*
Y78100D01*
X96899Y77600D01*
X95900D01*
X95400Y78100D01*
Y78600D01*
X95900Y79100D01*
X95400Y79599D01*
Y80099D01*
X95900Y79100D02*
X96899D01*
X45500Y81000D02*
X46000Y80500D01*
X46999D01*
X47499Y81000D01*
Y82999D01*
X46999Y83499D01*
X46000D01*
X45500Y82999D01*
Y82499D01*
X46000Y81999D01*
X47499D01*
X79300Y78400D02*
X80300D01*
X79800D01*
Y81399D01*
X79300Y80899D01*
X81799D02*
X82299Y81399D01*
X83299D01*
X83798Y80899D01*
Y78900D01*
X83299Y78400D01*
X82299D01*
X81799Y78900D01*
Y80899D01*
X50800Y63600D02*
X51800D01*
X51300D01*
Y66599D01*
X50800Y66099D01*
X53299Y66599D02*
X55299D01*
Y66099D01*
X53299Y64100D01*
Y63600D01*
X47400Y86900D02*
X48400D01*
X47900D01*
Y89899D01*
X47400Y89399D01*
X51898Y89899D02*
X50899Y89399D01*
X49899Y88399D01*
Y87400D01*
X50399Y86900D01*
X51399D01*
X51898Y87400D01*
Y87900D01*
X51399Y88399D01*
X49899D01*
X69800Y67700D02*
X70800D01*
X70300D01*
Y70699D01*
X69800Y70199D01*
X72299D02*
X72799Y70699D01*
X73799D01*
X74299Y70199D01*
Y69699D01*
X73799Y69200D01*
X74299Y68700D01*
Y68200D01*
X73799Y67700D01*
X72799D01*
X72299Y68200D01*
Y68700D01*
X72799Y69200D01*
X72299Y69699D01*
Y70199D01*
X72799Y69200D02*
X73799D01*
X119000Y98900D02*
X121999D01*
Y97400D01*
X121499Y96901D01*
X120500D01*
X120000Y97400D01*
Y98900D01*
Y97900D02*
X119000Y96901D01*
Y94401D02*
X121999D01*
X120500Y95901D01*
Y93902D01*
X125900Y98400D02*
X128899D01*
Y96900D01*
X128399Y96401D01*
X127400D01*
X126900Y96900D01*
Y98400D01*
Y97400D02*
X125900Y96401D01*
X128899Y93402D02*
Y95401D01*
X127400D01*
X127899Y94401D01*
Y93901D01*
X127400Y93402D01*
X126400D01*
X125900Y93901D01*
Y94901D01*
X126400Y95401D01*
X131400Y66400D02*
Y69399D01*
X132899D01*
X133399Y68899D01*
Y67900D01*
X132899Y67400D01*
X131400D01*
X132400D02*
X133399Y66400D01*
X136398Y69399D02*
X135399Y68899D01*
X134399Y67900D01*
Y66900D01*
X134899Y66400D01*
X135899D01*
X136398Y66900D01*
Y67400D01*
X135899Y67900D01*
X134399D01*
X96700Y68100D02*
Y71099D01*
X98199D01*
X98699Y70599D01*
Y69599D01*
X98199Y69100D01*
X96700D01*
X97700D02*
X98699Y68100D01*
X99699Y71099D02*
X101698D01*
Y70599D01*
X99699Y68600D01*
Y68100D01*
X88800Y40600D02*
Y43599D01*
X90299D01*
X90799Y43099D01*
Y42099D01*
X90299Y41600D01*
X88800D01*
X89800D02*
X90799Y40600D01*
X91799Y43099D02*
X92299Y43599D01*
X93299D01*
X93798Y43099D01*
Y42599D01*
X93299Y42099D01*
X93798Y41600D01*
Y41100D01*
X93299Y40600D01*
X92299D01*
X91799Y41100D01*
Y41600D01*
X92299Y42099D01*
X91799Y42599D01*
Y43099D01*
X92299Y42099D02*
X93299D01*
X123200Y34600D02*
Y37599D01*
X124699D01*
X125199Y37099D01*
Y36099D01*
X124699Y35600D01*
X123200D01*
X124200D02*
X125199Y34600D01*
X126199Y35100D02*
X126699Y34600D01*
X127699D01*
X128198Y35100D01*
Y37099D01*
X127699Y37599D01*
X126699D01*
X126199Y37099D01*
Y36599D01*
X126699Y36099D01*
X128198D01*
X131300Y34600D02*
Y37599D01*
X132799D01*
X133299Y37099D01*
Y36099D01*
X132799Y35600D01*
X131300D01*
X132300D02*
X133299Y34600D01*
X134299D02*
X135299D01*
X134799D01*
Y37599D01*
X134299Y37099D01*
X136798D02*
X137298Y37599D01*
X138298D01*
X138798Y37099D01*
Y35100D01*
X138298Y34600D01*
X137298D01*
X136798Y35100D01*
Y37099D01*
X109100Y21500D02*
X106101D01*
Y22999D01*
X106601Y23499D01*
X107600D01*
X108100Y22999D01*
Y21500D01*
Y22500D02*
X109100Y23499D01*
Y24499D02*
Y25499D01*
Y24999D01*
X106101D01*
X106601Y24499D01*
X109100Y26998D02*
Y27998D01*
Y27498D01*
X106101D01*
X106601Y26998D01*
X115600Y21600D02*
X112601D01*
Y23099D01*
X113101Y23599D01*
X114101D01*
X114600Y23099D01*
Y21600D01*
Y22600D02*
X115600Y23599D01*
Y24599D02*
Y25599D01*
Y25099D01*
X112601D01*
X113101Y24599D01*
Y27098D02*
X112601Y27598D01*
Y28598D01*
X113101Y29098D01*
X113601D01*
X114101Y28598D01*
Y28098D01*
Y28598D01*
X114600Y29098D01*
X115100D01*
X115600Y28598D01*
Y27598D01*
X115100Y27098D01*
X2100Y88400D02*
Y91399D01*
X3599D01*
X4099Y90899D01*
Y89899D01*
X3599Y89400D01*
X2100D01*
X3100D02*
X4099Y88400D01*
X5099D02*
X6099D01*
X5599D01*
Y91399D01*
X5099Y90899D01*
X9598Y91399D02*
X7598D01*
Y89899D01*
X8598Y90399D01*
X9098D01*
X9598Y89899D01*
Y88900D01*
X9098Y88400D01*
X8098D01*
X7598Y88900D01*
X2300Y20800D02*
Y23799D01*
X3799D01*
X4299Y23299D01*
Y22299D01*
X3799Y21800D01*
X2300D01*
X3300D02*
X4299Y20800D01*
X5299D02*
X6299D01*
X5799D01*
Y23799D01*
X5299Y23299D01*
X7798Y21300D02*
X8298Y20800D01*
X9298D01*
X9798Y21300D01*
Y23299D01*
X9298Y23799D01*
X8298D01*
X7798Y23299D01*
Y22799D01*
X8298Y22299D01*
X9798D01*
X46800Y23000D02*
X43801D01*
Y24499D01*
X44301Y24999D01*
X45300D01*
X45800Y24499D01*
Y23000D01*
Y24000D02*
X46800Y24999D01*
Y27998D02*
Y25999D01*
X44801Y27998D01*
X44301D01*
X43801Y27499D01*
Y26499D01*
X44301Y25999D01*
X46800Y28998D02*
Y29998D01*
Y29498D01*
X43801D01*
X44301Y28998D01*
X1600Y7500D02*
Y10499D01*
X3100D01*
X3599Y9999D01*
Y8999D01*
X3100Y8500D01*
X1600D01*
X2600D02*
X3599Y7500D01*
X6598D02*
X4599D01*
X6598Y9499D01*
Y9999D01*
X6099Y10499D01*
X5099D01*
X4599Y9999D01*
X9597Y7500D02*
X7598D01*
X9597Y9499D01*
Y9999D01*
X9098Y10499D01*
X8098D01*
X7598Y9999D01*
X54000Y22500D02*
X51001D01*
Y24000D01*
X51501Y24499D01*
X52500D01*
X53000Y24000D01*
Y22500D01*
Y23500D02*
X54000Y24499D01*
Y27498D02*
Y25499D01*
X52001Y27498D01*
X51501D01*
X51001Y26999D01*
Y25999D01*
X51501Y25499D01*
Y28498D02*
X51001Y28998D01*
Y29998D01*
X51501Y30497D01*
X52001D01*
X52500Y29998D01*
Y29498D01*
Y29998D01*
X53000Y30497D01*
X53500D01*
X54000Y29998D01*
Y28998D01*
X53500Y28498D01*
X28900Y107200D02*
Y110199D01*
X30400D01*
X30899Y109699D01*
Y108700D01*
X30400Y108200D01*
X28900D01*
X29900D02*
X30899Y107200D01*
X33898D02*
X31899D01*
X33898Y109199D01*
Y109699D01*
X33399Y110199D01*
X32399D01*
X31899Y109699D01*
X36398Y107200D02*
Y110199D01*
X34898Y108700D01*
X36897D01*
X28700Y112500D02*
Y115499D01*
X30200D01*
X30699Y114999D01*
Y113999D01*
X30200Y113500D01*
X28700D01*
X29700D02*
X30699Y112500D01*
X33698D02*
X31699D01*
X33698Y114499D01*
Y114999D01*
X33199Y115499D01*
X32199D01*
X31699Y114999D01*
X36697Y115499D02*
X34698D01*
Y113999D01*
X35698Y114499D01*
X36198D01*
X36697Y113999D01*
Y113000D01*
X36198Y112500D01*
X35198D01*
X34698Y113000D01*
X1800Y14100D02*
Y17099D01*
X3300D01*
X3799Y16599D01*
Y15599D01*
X3300Y15100D01*
X1800D01*
X2800D02*
X3799Y14100D01*
X6798D02*
X4799D01*
X6798Y16099D01*
Y16599D01*
X6299Y17099D01*
X5299D01*
X4799Y16599D01*
X9797Y17099D02*
X8798Y16599D01*
X7798Y15599D01*
Y14600D01*
X8298Y14100D01*
X9298D01*
X9797Y14600D01*
Y15100D01*
X9298Y15599D01*
X7798D01*
X96500Y64799D02*
Y62300D01*
X97000Y61800D01*
X98000D01*
X98499Y62300D01*
Y64799D01*
X101498Y61800D02*
X99499D01*
X101498Y63799D01*
Y64299D01*
X100999Y64799D01*
X99999D01*
X99499Y64299D01*
D16*
X29293Y71737D02*
X32293D01*
X36254D02*
X39254D01*
X36254Y66536D02*
X39254D01*
X29293D02*
X32293D01*
X29293Y65634D02*
X32293D01*
X36254D02*
X39254D01*
X36254Y60432D02*
X39254D01*
X29293D02*
X32293D01*
M02*
