M48
;Layer_Color=9474304
;FILE_FORMAT=2:5
INCH,LZ
;TYPE=PLATED
T1F00S00C0.01200
T2F00S00C0.01300
T3F00S00C0.02362
T4F00S00C0.03937
T5F00S00C0.07087
%
T01
X00047Y00144
X0028Y00141
X00236Y00089
X00466Y00042
X006Y000675
X01262Y00122
X01163Y00232
X01162Y0042
X009935Y005375
X0100221Y0072506
X01001Y00827
X01072Y00764
X0092839Y007625
X0079
X00706
X00714Y00819
X0062582Y0082882
X00565Y008
X0049Y007625
X00503Y00531
X00542Y00492
X0045Y0049
X00568Y00959
X00626Y00936
X00667Y01052
X00748Y01054
X00746Y01103
X00889Y01102
X00896Y01057
X00825Y01003
X00852Y00933
X0095389Y0096125
X0098718Y0097782
X00987Y01104
X01122Y0106
X01153Y01032
X01154Y00999
X0133446Y0105754
X0118266Y007013
X00519Y01052
X0056351Y01102
X0049526Y0112974
X00305Y01061
X0030543Y0092874
X00394Y00722
X0025745Y0060856
X00047Y01138
T02
X00045Y00374
X00344Y00841
T03
X00369Y0014078
Y0019
X00209Y0032678
Y00376
X008Y0019
Y0014078
X0107034Y01208
X0112034
X0117034
X0122034
X0127034
X00209Y0056722
Y00518
T04
X0098139Y00305
X0128061
T05
X00596Y00318
X00817Y00538
M30
