G04*
G04 #@! TF.GenerationSoftware,Altium Limited,Altium Designer,20.0.2 (26)*
G04*
G04 Layer_Color=128*
%FSLAX25Y25*%
%MOIN*%
G70*
G01*
G75*
%ADD17R,0.03150X0.03543*%
%ADD25R,0.03175X0.03402*%
%ADD27R,0.03543X0.03150*%
%ADD28C,0.06000*%
%ADD30R,0.03402X0.03175*%
%ADD65R,0.02362X0.03937*%
%ADD66R,0.05118X0.05118*%
%ADD67O,0.07874X0.00984*%
%ADD68R,0.07874X0.00984*%
%ADD69R,0.03937X0.03150*%
%ADD70R,0.03150X0.03937*%
%ADD71R,0.03402X0.03150*%
G36*
X31575Y44802D02*
X30677D01*
Y43306D01*
X29378D01*
Y44802D01*
X28425D01*
X28228Y44606D01*
Y41495D01*
X28425Y41298D01*
X31575D01*
X31772Y41495D01*
Y44606D01*
X31575Y44802D01*
D02*
G37*
G36*
X31772Y50905D02*
Y47755D01*
X31575Y47558D01*
X30677D01*
Y49015D01*
X29378D01*
Y47558D01*
X28425D01*
X28228Y47755D01*
Y50905D01*
X28425Y51102D01*
X31575D01*
X31772Y50905D01*
D02*
G37*
G36*
X18258Y91384D02*
Y92282D01*
X16762D01*
Y93581D01*
X18258D01*
Y94534D01*
X18061Y94731D01*
X14951D01*
X14754Y94534D01*
Y91384D01*
X14951Y91187D01*
X18061D01*
X18258Y91384D01*
D02*
G37*
G36*
X24360Y91187D02*
X21211D01*
X21014Y91384D01*
Y92282D01*
X22470D01*
Y93581D01*
X21014D01*
Y94534D01*
X21211Y94731D01*
X24360D01*
X24557Y94534D01*
Y91384D01*
X24360Y91187D01*
D02*
G37*
G36*
X14951Y101872D02*
X18100D01*
X18297Y101675D01*
Y100777D01*
X16840D01*
Y99478D01*
X18297D01*
Y98525D01*
X18100Y98328D01*
X14951D01*
X14754Y98525D01*
Y101675D01*
X14951Y101872D01*
D02*
G37*
G36*
X14995Y107972D02*
X18145D01*
X18342Y107775D01*
Y106877D01*
X16885D01*
Y105578D01*
X18342D01*
Y104625D01*
X18145Y104428D01*
X14995D01*
X14798Y104625D01*
Y107775D01*
X14995Y107972D01*
D02*
G37*
G36*
X21053Y101675D02*
Y100777D01*
X22549D01*
Y99478D01*
X21053D01*
Y98525D01*
X21250Y98328D01*
X24360D01*
X24557Y98525D01*
Y101675D01*
X24360Y101872D01*
X21250D01*
X21053Y101675D01*
D02*
G37*
G36*
X21098Y107775D02*
Y106877D01*
X22594D01*
Y105578D01*
X21098D01*
Y104625D01*
X21294Y104428D01*
X24405D01*
X24601Y104625D01*
Y107775D01*
X24405Y107972D01*
X21294D01*
X21098Y107775D01*
D02*
G37*
G36*
X40293Y33261D02*
X41381D01*
X42538Y32181D01*
Y30200D01*
X42286Y29948D01*
X39388D01*
X39136Y30200D01*
Y32181D01*
X40293Y33261D01*
D02*
G37*
G36*
X40337Y35291D02*
X41426D01*
X42582Y36370D01*
Y38352D01*
X42330Y38603D01*
X39433D01*
X39181Y38352D01*
Y36370D01*
X40337Y35291D01*
D02*
G37*
G36*
X98902Y64672D02*
X102051D01*
X102248Y64475D01*
Y63578D01*
X100792D01*
Y62278D01*
X102248D01*
Y61326D01*
X102051Y61129D01*
X98902D01*
X98705Y61326D01*
Y64475D01*
X98902Y64672D01*
D02*
G37*
G36*
X98861Y70672D02*
X102010D01*
X102207Y70475D01*
Y69577D01*
X100751D01*
Y68278D01*
X102207D01*
Y67325D01*
X102010Y67128D01*
X98861D01*
X98664Y67325D01*
Y70475D01*
X98861Y70672D01*
D02*
G37*
G36*
X105004Y64475D02*
Y63578D01*
X106500D01*
Y62278D01*
X105004D01*
Y61326D01*
X105201Y61129D01*
X108311D01*
X108508Y61326D01*
Y64475D01*
X108311Y64672D01*
X105201D01*
X105004Y64475D01*
D02*
G37*
G36*
X104963Y70475D02*
Y69577D01*
X106459D01*
Y68278D01*
X104963D01*
Y67325D01*
X105160Y67128D01*
X108270D01*
X108467Y67325D01*
Y70475D01*
X108270Y70672D01*
X105160D01*
X104963Y70475D01*
D02*
G37*
G36*
X130275Y64237D02*
X129377D01*
Y62741D01*
X128078D01*
Y64237D01*
X127125D01*
X126928Y64040D01*
Y60930D01*
X127125Y60733D01*
X130275D01*
X130472Y60930D01*
Y64040D01*
X130275Y64237D01*
D02*
G37*
G36*
X130472Y70339D02*
Y67190D01*
X130275Y66993D01*
X129377D01*
Y68449D01*
X128078D01*
Y66993D01*
X127125D01*
X126928Y67190D01*
Y70339D01*
X127125Y70536D01*
X130275D01*
X130472Y70339D01*
D02*
G37*
D17*
X22700Y113500D02*
D03*
X17189D02*
D03*
D25*
X16690Y92959D02*
D03*
X22621D02*
D03*
X106531Y68900D02*
D03*
X100600D02*
D03*
X106572Y62901D02*
D03*
X100641D02*
D03*
X22621Y100100D02*
D03*
X16690D02*
D03*
X22666Y106200D02*
D03*
X16735D02*
D03*
D27*
X51400Y49175D02*
D03*
Y43664D02*
D03*
X32000Y31545D02*
D03*
Y37056D02*
D03*
D28*
X133400Y12300D02*
D03*
D30*
X30000Y43235D02*
D03*
Y49165D02*
D03*
X128700Y68600D02*
D03*
Y62669D02*
D03*
D65*
X37161Y42815D02*
D03*
X44640Y42816D02*
D03*
X44640Y53052D02*
D03*
X40900Y53052D02*
D03*
X37160Y53052D02*
D03*
D66*
X7800Y47040D02*
D03*
Y60426D02*
D03*
D67*
X127540Y98077D02*
D03*
Y95518D02*
D03*
Y92959D02*
D03*
Y90400D02*
D03*
Y87841D02*
D03*
Y85281D02*
D03*
X105886Y95518D02*
D03*
Y92959D02*
D03*
Y90400D02*
D03*
Y87841D02*
D03*
Y85282D02*
D03*
Y82722D02*
D03*
X127540D02*
D03*
X105886Y105754D02*
D03*
Y103195D02*
D03*
X127540Y100636D02*
D03*
Y103195D02*
D03*
X105886Y98077D02*
D03*
Y100636D02*
D03*
D68*
X127540Y105754D02*
D03*
D69*
X112979Y62660D02*
D03*
X122034Y66400D02*
D03*
X112979Y70141D02*
D03*
D70*
X34384Y78327D02*
D03*
X30643Y69272D02*
D03*
X26903Y78327D02*
D03*
X12303Y78427D02*
D03*
X16044Y69372D02*
D03*
X19784Y78427D02*
D03*
D71*
X40900Y31545D02*
D03*
Y37056D02*
D03*
M02*
