G04*
G04 #@! TF.GenerationSoftware,Altium Limited,Altium Designer,20.0.2 (26)*
G04*
G04 Layer_Color=128*
%FSLAX25Y25*%
%MOIN*%
G70*
G01*
G75*
%ADD82C,0.00200*%
D82*
X35719Y14078D02*
X38081D01*
X36900Y12897D02*
Y15259D01*
X35719Y19000D02*
X38081D01*
X36900Y17819D02*
Y20181D01*
X19719Y56722D02*
X22081D01*
X20900Y55541D02*
Y57903D01*
X19719Y51800D02*
X22081D01*
X20900Y50619D02*
Y52981D01*
X78157Y53800D02*
X85243D01*
X81700Y50257D02*
Y57343D01*
X120853Y120800D02*
X123215D01*
X122034Y119619D02*
Y121981D01*
X125853Y120800D02*
X128215D01*
X127034Y119619D02*
Y121981D01*
X115853Y120800D02*
X118215D01*
X117034Y119619D02*
Y121981D01*
X110853Y120800D02*
X113215D01*
X112034Y119619D02*
Y121981D01*
X105853Y120800D02*
X108215D01*
X107034Y119619D02*
Y121981D01*
X126092Y30500D02*
X130029D01*
X128061Y28532D02*
Y32469D01*
X96171Y30500D02*
X100108D01*
X98139Y28532D02*
Y32469D01*
X78819Y14078D02*
X81181D01*
X80000Y12897D02*
Y15259D01*
X78819Y19000D02*
X81181D01*
X80000Y17819D02*
Y20181D01*
X19719Y32678D02*
X22081D01*
X20900Y31497D02*
Y33859D01*
X19719Y37600D02*
X22081D01*
X20900Y36419D02*
Y38781D01*
X56057Y31800D02*
X63143D01*
X59600Y28257D02*
Y35343D01*
X3850Y37400D02*
X5150D01*
X4500Y36750D02*
Y38050D01*
X49700Y53100D02*
X50900D01*
X50300Y52500D02*
Y53700D01*
X38800Y72200D02*
X40000D01*
X39400Y71600D02*
Y72800D01*
X114800Y99900D02*
X116000D01*
X115400Y99300D02*
Y100500D01*
X114700Y103200D02*
X115900D01*
X115300Y102600D02*
Y103800D01*
X106600Y76400D02*
X107800D01*
X107200Y75800D02*
Y77000D01*
X99500Y82700D02*
X100700D01*
X100100Y82100D02*
Y83300D01*
X33750Y84100D02*
X35050D01*
X34400Y83450D02*
Y84750D01*
X44400Y49000D02*
X45600D01*
X45000Y48400D02*
Y49600D01*
X29943Y92874D02*
X31143D01*
X30543Y92274D02*
Y93474D01*
X25144Y60856D02*
X26344D01*
X25745Y60255D02*
Y61456D01*
X48926Y112974D02*
X50126D01*
X49526Y112374D02*
Y113574D01*
X53600Y49200D02*
X54800D01*
X54200Y48600D02*
Y49800D01*
X4100Y14400D02*
X5300D01*
X4700Y13800D02*
Y15000D01*
X117666Y70130D02*
X118866D01*
X118266Y69530D02*
Y70730D01*
X27400Y14100D02*
X28600D01*
X28000Y13500D02*
Y14700D01*
X98100Y110400D02*
X99300D01*
X98700Y109800D02*
Y111000D01*
X74000Y110300D02*
X75200D01*
X74600Y109700D02*
Y110900D01*
X48400Y76250D02*
X49600D01*
X49000Y75650D02*
Y76850D01*
X99621Y72506D02*
X100821D01*
X100221Y71906D02*
Y73106D01*
X92239Y76250D02*
X93439D01*
X92839Y75650D02*
Y76850D01*
X78400Y76250D02*
X79600D01*
X79000Y75650D02*
Y76850D01*
X70000Y76250D02*
X71200D01*
X70600Y75650D02*
Y76850D01*
X115700Y23200D02*
X116900D01*
X116300Y22600D02*
Y23800D01*
X115600Y42000D02*
X116800D01*
X116200Y41400D02*
Y42600D01*
X4100Y113800D02*
X5300D01*
X4700Y113200D02*
Y114400D01*
X23000Y8900D02*
X24200D01*
X23600Y8300D02*
Y9500D01*
X98750Y53750D02*
X99950D01*
X99350Y53150D02*
Y54350D01*
X111600Y106000D02*
X112800D01*
X112200Y105400D02*
Y106600D01*
X98118Y97782D02*
X99318D01*
X98718Y97182D02*
Y98382D01*
X94789Y96125D02*
X95989D01*
X95389Y95525D02*
Y96725D01*
X125600Y12200D02*
X126800D01*
X126200Y11600D02*
Y12800D01*
X59400Y6750D02*
X60600D01*
X60000Y6150D02*
Y7350D01*
X46000Y4200D02*
X47200D01*
X46600Y3600D02*
Y4800D01*
X88300Y110200D02*
X89500D01*
X88900Y109600D02*
Y110800D01*
X55751Y110200D02*
X56951D01*
X56351Y109600D02*
Y110800D01*
X70800Y81900D02*
X72000D01*
X71400Y81300D02*
Y82500D01*
X56200Y95900D02*
X57400D01*
X56800Y95300D02*
Y96500D01*
X55900Y80000D02*
X57100D01*
X56500Y79400D02*
Y80600D01*
X132846Y105754D02*
X134046D01*
X133446Y105154D02*
Y106354D01*
X89000Y105700D02*
X90200D01*
X89600Y105100D02*
Y106300D01*
X74200Y105400D02*
X75400D01*
X74800Y104800D02*
Y106000D01*
X61982Y82882D02*
X63182D01*
X62582Y82282D02*
Y83482D01*
X51300Y105200D02*
X52500D01*
X51900Y104600D02*
Y105800D01*
X66100Y105200D02*
X67300D01*
X66700Y104600D02*
Y105800D01*
X29900Y106100D02*
X31100D01*
X30500Y105500D02*
Y106700D01*
X62000Y93600D02*
X63200D01*
X62600Y93000D02*
Y94200D01*
X84600Y93300D02*
X85800D01*
X85200Y92700D02*
Y93900D01*
X81900Y100300D02*
X83100D01*
X82500Y99700D02*
Y100900D01*
M02*
