G04*
G04 #@! TF.GenerationSoftware,Altium Limited,Altium Designer,20.0.2 (26)*
G04*
G04 Layer_Color=65535*
%FSLAX25Y25*%
%MOIN*%
G70*
G01*
G75*
%ADD10C,0.01000*%
%ADD11C,0.01181*%
%ADD12C,0.00600*%
%ADD13C,0.00598*%
%ADD14C,0.00799*%
%ADD15C,0.00800*%
%ADD16C,0.00591*%
D10*
X86614Y42129D02*
G03*
X86614Y42129I-15748J0D01*
G01*
X37903Y56295D02*
G03*
X36683Y55076I0J-1220D01*
G01*
Y51926D02*
G03*
X37903Y50706I1220J-0D01*
G01*
X47689Y55053D02*
G03*
X46469Y56273I-1220J0D01*
G01*
Y50683D02*
G03*
X47689Y51903I0J1220D01*
G01*
X30895Y32297D02*
G03*
X29676Y33517I-1220J0D01*
G01*
X26526D02*
G03*
X25306Y32297I-0J-1220D01*
G01*
X29653Y22511D02*
G03*
X30872Y23731I0J1220D01*
G01*
X25283D02*
G03*
X26503Y22511I1220J0D01*
G01*
X38047Y48195D02*
G03*
X36827Y46976I0J-1220D01*
G01*
Y43826D02*
G03*
X38047Y42606I1220J-0D01*
G01*
X47833Y46953D02*
G03*
X46614Y48173I-1220J0D01*
G01*
Y42583D02*
G03*
X47833Y43803I0J1220D01*
G01*
X119853Y61105D02*
G03*
X121072Y62324I0J1220D01*
G01*
Y65474D02*
G03*
X119853Y66694I-1220J0D01*
G01*
X110066Y62347D02*
G03*
X111286Y61128I1220J-0D01*
G01*
Y66717D02*
G03*
X110066Y65497I0J-1220D01*
G01*
X128540Y62968D02*
G03*
X127321Y64188I-1220J0D01*
G01*
X124171D02*
G03*
X122951Y62968I-0J-1220D01*
G01*
X127297Y53182D02*
G03*
X128517Y54401I0J1220D01*
G01*
X122928D02*
G03*
X124148Y53182I1220J0D01*
G01*
X124217Y19337D02*
G03*
X122997Y20557I-1220J0D01*
G01*
X119847D02*
G03*
X118628Y19337I-0J-1220D01*
G01*
X122974Y9551D02*
G03*
X124194Y10771I0J1220D01*
G01*
X118605D02*
G03*
X119824Y9551I1220J0D01*
G01*
X88283Y10587D02*
G03*
X89503Y9367I1220J0D01*
G01*
X92653D02*
G03*
X93872Y10587I0J1220D01*
G01*
X89526Y20373D02*
G03*
X88306Y19153I-0J-1220D01*
G01*
X93895D02*
G03*
X92676Y20373I-1220J0D01*
G01*
X96733Y10587D02*
G03*
X97953Y9367I1220J0D01*
G01*
X101103D02*
G03*
X102323Y10587I0J1220D01*
G01*
X97976Y20373D02*
G03*
X96756Y19153I-0J-1220D01*
G01*
X102346D02*
G03*
X101126Y20373I-1220J0D01*
G01*
X18814Y94083D02*
G03*
X20033Y95303I0J1220D01*
G01*
Y98453D02*
G03*
X18814Y99673I-1220J0D01*
G01*
X9027Y95326D02*
G03*
X10247Y94106I1220J-0D01*
G01*
Y99695D02*
G03*
X9027Y98476I0J-1220D01*
G01*
X24068Y82117D02*
G03*
X22848Y80897I0J-1220D01*
G01*
Y77747D02*
G03*
X24068Y76528I1220J-0D01*
G01*
X33854Y80874D02*
G03*
X32634Y82094I-1220J0D01*
G01*
Y76505D02*
G03*
X33854Y77724I0J1220D01*
G01*
X57183Y11331D02*
G03*
X58403Y10111I1220J0D01*
G01*
X61553D02*
G03*
X62773Y11331I0J1220D01*
G01*
X58426Y21117D02*
G03*
X57206Y19897I-0J-1220D01*
G01*
X62795D02*
G03*
X61576Y21117I-1220J0D01*
G01*
X57Y59109D02*
X141789D01*
X43319Y56272D02*
X46469D01*
X47689Y51903D02*
Y55053D01*
X43319Y50683D02*
X46469D01*
X37903Y56295D02*
X41052D01*
X37903Y50706D02*
X41052D01*
X36683Y51926D02*
Y55076D01*
X42000Y29200D02*
Y35200D01*
X45937Y26294D02*
Y38105D01*
X38063Y26294D02*
Y38105D01*
X42000Y34200D02*
X43600Y30200D01*
X40400D02*
X43600D01*
X40400D02*
X42000Y34200D01*
X40000D02*
X44000D01*
X30872Y23731D02*
Y26881D01*
X26503Y22511D02*
X29653D01*
X25283Y23731D02*
Y26881D01*
X30895Y29148D02*
Y32297D01*
X25306Y29148D02*
Y32297D01*
X26526Y33517D02*
X29676D01*
X43464Y48172D02*
X46613D01*
X47833Y43803D02*
Y46953D01*
X43464Y42583D02*
X46613D01*
X38047Y48195D02*
X41197D01*
X38047Y42606D02*
X41197D01*
X36827Y43826D02*
Y46976D01*
X111286Y61128D02*
X114436D01*
X110067Y62347D02*
Y65497D01*
X111286Y66717D02*
X114436D01*
X116703Y61105D02*
X119853D01*
X116703Y66694D02*
X119853D01*
X121072Y62324D02*
Y65474D01*
X124148Y53182D02*
X127297D01*
X128517Y54401D02*
Y57551D01*
X122928Y54401D02*
Y57551D01*
X128540Y59818D02*
Y62968D01*
X124171Y64187D02*
X127321D01*
X122951Y59818D02*
Y62968D01*
X119824Y9551D02*
X122974D01*
X124194Y10770D02*
Y13920D01*
X118605Y10770D02*
Y13920D01*
X124217Y16187D02*
Y19337D01*
X119847Y20557D02*
X122997D01*
X118628Y16187D02*
Y19337D01*
X89526Y20373D02*
X92676D01*
X88306Y16004D02*
Y19153D01*
X93895Y16004D02*
Y19153D01*
X88283Y10587D02*
Y13736D01*
X89503Y9367D02*
X92653D01*
X93872Y10587D02*
Y13736D01*
X97976Y20373D02*
X101126D01*
X96756Y16004D02*
Y19153D01*
X102346Y16004D02*
Y19153D01*
X96733Y10587D02*
Y13736D01*
X97953Y9367D02*
X101103D01*
X102322Y10587D02*
Y13736D01*
X9027Y95326D02*
Y98476D01*
X10247Y94106D02*
X13397D01*
X10247Y99695D02*
X13397D01*
X15664Y94083D02*
X18813D01*
X20033Y95303D02*
Y98453D01*
X15664Y99672D02*
X18813D01*
X33854Y77724D02*
Y80874D01*
X29485Y82094D02*
X32634D01*
X29485Y76505D02*
X32634D01*
X24068Y82117D02*
X27217D01*
X22848Y77747D02*
Y80897D01*
X24068Y76528D02*
X27217D01*
X58426Y21117D02*
X61576D01*
X57206Y16748D02*
Y19897D01*
X62795Y16748D02*
Y19897D01*
X57183Y11331D02*
Y14481D01*
X58403Y10111D02*
X61553D01*
X62772Y11331D02*
Y14481D01*
D11*
X103778Y59368D02*
G03*
X103778Y59368I-591J0D01*
G01*
D12*
X115352Y74901D02*
Y80255D01*
Y74901D02*
X123848D01*
Y80255D01*
X115352Y87745D02*
Y93099D01*
X123848D01*
Y87745D02*
Y93099D01*
X104810Y58860D02*
X111812D01*
X104810Y46740D02*
X111812D01*
X8766Y110348D02*
X14120D01*
X8766Y101852D02*
Y110348D01*
Y101852D02*
X14120D01*
X21610Y110348D02*
X26964D01*
Y101852D02*
Y110348D01*
X21610Y101852D02*
X26964D01*
X22893Y74572D02*
X23493Y75172D01*
X22893Y70570D02*
Y74572D01*
Y70570D02*
X23493Y69970D01*
X33454D02*
X34054Y70570D01*
Y74572D01*
X33454Y75172D02*
X34054Y74572D01*
X27507Y43441D02*
X31093D01*
X23291Y49159D02*
X27353D01*
X23291Y43441D02*
Y49159D01*
X31247D02*
X35309D01*
Y43441D02*
Y49159D01*
X16388Y83240D02*
X20163D01*
Y88442D01*
X16388D02*
X20163D01*
X9257Y83240D02*
X13032D01*
X9257D02*
Y88442D01*
X13032D01*
X33454Y68837D02*
X34054Y68237D01*
Y64235D02*
Y68237D01*
X33454Y63636D02*
X34054Y64235D01*
X22893D02*
X23493Y63636D01*
X22893Y64235D02*
Y68237D01*
X23493Y68837D01*
X122601Y108178D02*
Y111953D01*
X117399D02*
X122601D01*
X117399Y108178D02*
Y111953D01*
X122601Y101047D02*
Y104822D01*
X117399Y101047D02*
X122601D01*
X117399D02*
Y104822D01*
X128901Y108178D02*
Y111953D01*
X123699D02*
X128901D01*
X123699Y108178D02*
Y111953D01*
X128901Y101047D02*
Y104822D01*
X123699Y101047D02*
X128901D01*
X123699D02*
Y104822D01*
X130099Y53247D02*
Y57022D01*
Y53247D02*
X135301D01*
Y57022D01*
X130099Y60378D02*
Y64153D01*
X135301D01*
Y60378D02*
Y64153D01*
X98147Y66601D02*
X101922D01*
X98147Y61399D02*
Y66601D01*
Y61399D02*
X101922D01*
X105278Y66601D02*
X109053D01*
Y61399D02*
Y66601D01*
X105278Y61399D02*
X109053D01*
X98936Y39668D02*
X102711D01*
Y44870D01*
X98936D02*
X102711D01*
X91805Y39668D02*
X95580D01*
X91805D02*
Y44870D01*
X95580D01*
X104899Y9316D02*
Y13091D01*
Y9316D02*
X110101D01*
Y13091D01*
X104899Y16447D02*
Y20222D01*
X110101D01*
Y16447D02*
Y20222D01*
X116801Y16457D02*
Y20232D01*
X111599D02*
X116801D01*
X111599Y16457D02*
Y20232D01*
X116801Y9326D02*
Y13101D01*
X111599Y9326D02*
X116801D01*
X111599D02*
Y13101D01*
X11447Y24601D02*
X15222D01*
X11447Y19399D02*
Y24601D01*
Y19399D02*
X15222D01*
X18578Y24601D02*
X22353D01*
Y19399D02*
Y24601D01*
X18578Y19399D02*
X22353D01*
X43699Y9811D02*
Y13586D01*
Y9811D02*
X48901D01*
Y13586D01*
X43699Y16942D02*
Y20717D01*
X48901D01*
Y16942D02*
Y20717D01*
X11447Y11601D02*
X15222D01*
X11447Y6399D02*
Y11601D01*
Y6399D02*
X15222D01*
X18578Y11601D02*
X22353D01*
Y6399D02*
Y11601D01*
X18578Y6399D02*
X22353D01*
X55601Y16942D02*
Y20717D01*
X50399D02*
X55601D01*
X50399Y16942D02*
Y20717D01*
X55601Y9811D02*
Y13586D01*
X50399Y9811D02*
X55601D01*
X50399D02*
Y13586D01*
X8766Y120248D02*
X14120D01*
X8766Y111752D02*
Y120248D01*
Y111752D02*
X14120D01*
X21610Y120248D02*
X26964D01*
Y111752D02*
Y120248D01*
X21610Y111752D02*
X26964D01*
X11447Y18101D02*
X15222D01*
X11447Y12899D02*
Y18101D01*
Y12899D02*
X15222D01*
X18578Y18101D02*
X22353D01*
Y12899D02*
Y18101D01*
X18578Y12899D02*
X22353D01*
X76791Y109353D02*
X77791D01*
X77291D01*
Y112352D01*
X76791Y111852D01*
X62099Y95900D02*
X60100D01*
X62099Y97899D01*
Y98399D01*
X61599Y98899D01*
X60600D01*
X60100Y98399D01*
X92853Y98418D02*
X93353Y98918D01*
X94352D01*
X94852Y98418D01*
Y97918D01*
X94352Y97419D01*
X93853D01*
X94352D01*
X94852Y96919D01*
Y96419D01*
X94352Y95919D01*
X93353D01*
X92853Y96419D01*
X46999Y96500D02*
Y99499D01*
X45500Y98000D01*
X47499D01*
X80452Y98918D02*
X78453D01*
Y97419D01*
X79453Y97918D01*
X79952D01*
X80452Y97419D01*
Y96419D01*
X79952Y95919D01*
X78953D01*
X78453Y96419D01*
X95299Y89899D02*
X94300Y89399D01*
X93300Y88399D01*
Y87400D01*
X93800Y86900D01*
X94800D01*
X95299Y87400D01*
Y87900D01*
X94800Y88399D01*
X93300D01*
X60700Y80399D02*
X62699D01*
Y79899D01*
X60700Y77900D01*
Y77400D01*
X92853Y80818D02*
X93353Y81318D01*
X94353D01*
X94852Y80818D01*
Y80318D01*
X94353Y79818D01*
X94852Y79318D01*
Y78818D01*
X94353Y78319D01*
X93353D01*
X92853Y78818D01*
Y79318D01*
X93353Y79818D01*
X92853Y80318D01*
Y80818D01*
X93353Y79818D02*
X94353D01*
X80248Y122253D02*
X81248D01*
X80748D01*
Y125252D01*
X80248Y124752D01*
X84747Y125252D02*
X82748D01*
Y123752D01*
X83747Y124252D01*
X84247D01*
X84747Y123752D01*
Y122753D01*
X84247Y122253D01*
X83248D01*
X82748Y122753D01*
X43500Y86400D02*
X44500D01*
X44000D01*
Y89399D01*
X43500Y88899D01*
X47998Y89399D02*
X46999Y88899D01*
X45999Y87900D01*
Y86900D01*
X46499Y86400D01*
X47499D01*
X47998Y86900D01*
Y87400D01*
X47499Y87900D01*
X45999D01*
X54391Y109353D02*
X55391D01*
X54891D01*
Y112352D01*
X54391Y111852D01*
X56890Y109353D02*
X57890D01*
X57390D01*
Y112352D01*
X56890Y111852D01*
X65273Y122253D02*
X66273D01*
X65773D01*
Y125252D01*
X65273Y124752D01*
X69772Y122253D02*
X67772D01*
X69772Y124252D01*
Y124752D01*
X69272Y125252D01*
X68272D01*
X67772Y124752D01*
X96598Y105274D02*
X97597D01*
X97097D01*
Y108273D01*
X96598Y107773D01*
X99097D02*
X99597Y108273D01*
X100596D01*
X101096Y107773D01*
Y107273D01*
X100596Y106774D01*
X100097D01*
X100596D01*
X101096Y106274D01*
Y105774D01*
X100596Y105274D01*
X99597D01*
X99097Y105774D01*
X50298Y122174D02*
X51297D01*
X50797D01*
Y125173D01*
X50298Y124673D01*
X54296Y122174D02*
Y125173D01*
X52797Y123674D01*
X54796D01*
X75000Y62500D02*
X76000D01*
X75500D01*
Y65499D01*
X75000Y64999D01*
X77499D02*
X77999Y65499D01*
X78999D01*
X79498Y64999D01*
Y64499D01*
X78999Y63999D01*
X79498Y63500D01*
Y63000D01*
X78999Y62500D01*
X77999D01*
X77499Y63000D01*
Y63500D01*
X77999Y63999D01*
X77499Y64499D01*
Y64999D01*
X77999Y63999D02*
X78999D01*
X54400Y62400D02*
X55400D01*
X54900D01*
Y65399D01*
X54400Y64899D01*
X56899Y65399D02*
X58899D01*
Y64899D01*
X56899Y62900D01*
Y62400D01*
X78453Y78319D02*
X79453D01*
X78953D01*
Y81318D01*
X78453Y80818D01*
X80952D02*
X81452Y81318D01*
X82452D01*
X82951Y80818D01*
Y78818D01*
X82452Y78319D01*
X81452D01*
X80952Y78818D01*
Y80818D01*
X45200Y78200D02*
X45700Y77700D01*
X46700D01*
X47199Y78200D01*
Y80199D01*
X46700Y80699D01*
X45700D01*
X45200Y80199D01*
Y79699D01*
X45700Y79199D01*
X47199D01*
X51600Y54500D02*
X51100Y55000D01*
X50101D01*
X49601Y54500D01*
Y52500D01*
X50101Y52000D01*
X51100D01*
X51600Y52500D01*
X54599Y52000D02*
X52600D01*
X54599Y54000D01*
Y54500D01*
X54099Y55000D01*
X53100D01*
X52600Y54500D01*
X22700Y85300D02*
Y88299D01*
X24200D01*
X24699Y87799D01*
Y86800D01*
X24200Y86300D01*
X22700D01*
X23700D02*
X24699Y85300D01*
X25699D02*
X26699D01*
X26199D01*
Y88299D01*
X25699Y87799D01*
X28198Y85800D02*
X28698Y85300D01*
X29698D01*
X30198Y85800D01*
Y87799D01*
X29698Y88299D01*
X28698D01*
X28198Y87799D01*
Y87299D01*
X28698Y86800D01*
X30198D01*
X113499Y81201D02*
X110501D01*
Y82700D01*
X111000Y83200D01*
X112000D01*
X112500Y82700D01*
Y81201D01*
Y82200D02*
X113499Y83200D01*
X111000Y84200D02*
X110501Y84700D01*
Y85699D01*
X111000Y86199D01*
X111500D01*
X112000Y85699D01*
Y85199D01*
Y85699D01*
X112500Y86199D01*
X113000D01*
X113499Y85699D01*
Y84700D01*
X113000Y84200D01*
X30000Y12801D02*
X27000D01*
Y14300D01*
X27500Y14800D01*
X28500D01*
X29000Y14300D01*
Y12801D01*
Y13801D02*
X30000Y14800D01*
X29500Y15800D02*
X30000Y16300D01*
Y17299D01*
X29500Y17799D01*
X27500D01*
X27000Y17299D01*
Y16300D01*
X27500Y15800D01*
X28000D01*
X28500Y16300D01*
Y17799D01*
X17800Y45200D02*
Y47200D01*
X17300Y47699D01*
X16301D01*
X15801Y47200D01*
Y45200D01*
X16301Y44701D01*
X17300D01*
X16801Y45700D02*
X17800Y44701D01*
X17300D02*
X17800Y45200D01*
X20799Y44701D02*
X18800D01*
X20799Y46700D01*
Y47200D01*
X20299Y47699D01*
X19300D01*
X18800Y47200D01*
X49001Y32100D02*
Y29100D01*
X50500D01*
X51000Y29600D01*
Y31600D01*
X50500Y32100D01*
X49001D01*
X52000Y29100D02*
X52999D01*
X52500D01*
Y32100D01*
X52000Y31600D01*
X51600Y45900D02*
X51100Y46400D01*
X50100D01*
X49601Y45900D01*
Y43900D01*
X50100Y43400D01*
X51100D01*
X51600Y43900D01*
X52600Y43400D02*
X53599D01*
X53100D01*
Y46400D01*
X52600Y45900D01*
X112299Y70199D02*
X111800Y70699D01*
X110800D01*
X110300Y70199D01*
Y68200D01*
X110800Y67700D01*
X111800D01*
X112299Y68200D01*
X113299Y70199D02*
X113799Y70699D01*
X114799D01*
X115298Y70199D01*
Y69699D01*
X114799Y69200D01*
X114299D01*
X114799D01*
X115298Y68700D01*
Y68200D01*
X114799Y67700D01*
X113799D01*
X113299Y68200D01*
X125699Y68799D02*
X125199Y69299D01*
X124200D01*
X123700Y68799D01*
Y66800D01*
X124200Y66300D01*
X125199D01*
X125699Y66800D01*
X128199Y66300D02*
Y69299D01*
X126699Y67800D01*
X128698D01*
X120301Y24099D02*
X119801Y23599D01*
Y22600D01*
X120301Y22100D01*
X122300D01*
X122800Y22600D01*
Y23599D01*
X122300Y24099D01*
X119801Y27098D02*
X120301Y26099D01*
X121300Y25099D01*
X122300D01*
X122800Y25599D01*
Y26599D01*
X122300Y27098D01*
X121800D01*
X121300Y26599D01*
Y25099D01*
X90201Y24199D02*
X89701Y23699D01*
Y22700D01*
X90201Y22200D01*
X92200D01*
X92700Y22700D01*
Y23699D01*
X92200Y24199D01*
X89701Y25199D02*
Y27198D01*
X90201D01*
X92200Y25199D01*
X92700D01*
X98301Y23999D02*
X97801Y23499D01*
Y22500D01*
X98301Y22000D01*
X100300D01*
X100800Y22500D01*
Y23499D01*
X100300Y23999D01*
X98301Y24999D02*
X97801Y25499D01*
Y26499D01*
X98301Y26998D01*
X98801D01*
X99300Y26499D01*
X99800Y26998D01*
X100300D01*
X100800Y26499D01*
Y25499D01*
X100300Y24999D01*
X99800D01*
X99300Y25499D01*
X98801Y24999D01*
X98301D01*
X99300Y25499D02*
Y26499D01*
X25099Y97299D02*
X24600Y97799D01*
X23600D01*
X23100Y97299D01*
Y95300D01*
X23600Y94800D01*
X24600D01*
X25099Y95300D01*
X26099D02*
X26599Y94800D01*
X27599D01*
X28098Y95300D01*
Y97299D01*
X27599Y97799D01*
X26599D01*
X26099Y97299D01*
Y96799D01*
X26599Y96299D01*
X28098D01*
X38181Y80299D02*
X37681Y80799D01*
X36681D01*
X36182Y80299D01*
Y78300D01*
X36681Y77800D01*
X37681D01*
X38181Y78300D01*
X39181Y77800D02*
X40180D01*
X39680D01*
Y80799D01*
X39181Y80299D01*
X41680D02*
X42180Y80799D01*
X43179D01*
X43679Y80299D01*
Y78300D01*
X43179Y77800D01*
X42180D01*
X41680Y78300D01*
Y80299D01*
X59001Y2499D02*
X58501Y2000D01*
Y1000D01*
X59001Y500D01*
X61000D01*
X61500Y1000D01*
Y2000D01*
X61000Y2499D01*
X61500Y3499D02*
Y4499D01*
Y3999D01*
X58501D01*
X59001Y3499D01*
X61500Y7498D02*
X58501D01*
X60000Y5998D01*
Y7998D01*
X81099Y46699D02*
X80100D01*
X80599D01*
Y44200D01*
X80100Y43700D01*
X79600D01*
X79100Y44200D01*
X82099Y43700D02*
X83099D01*
X82599D01*
Y46699D01*
X82099Y46199D01*
X36000Y73934D02*
Y70934D01*
X38000D01*
X38999D02*
X39999D01*
X39499D01*
Y73934D01*
X38999Y73434D01*
X36000Y67202D02*
Y64203D01*
X38000D01*
X40999D02*
X38999D01*
X40999Y66202D01*
Y66702D01*
X40499Y67202D01*
X39499D01*
X38999Y66702D01*
X118400Y99600D02*
X121399D01*
Y98101D01*
X120899Y97601D01*
X119899D01*
X119400Y98101D01*
Y99600D01*
Y98600D02*
X118400Y97601D01*
X121399Y94602D02*
X120899Y95601D01*
X119899Y96601D01*
X118900D01*
X118400Y96101D01*
Y95101D01*
X118900Y94602D01*
X119400D01*
X119899Y95101D01*
Y96601D01*
X124900Y99600D02*
X127899D01*
Y98101D01*
X127399Y97601D01*
X126400D01*
X125900Y98101D01*
Y99600D01*
Y98600D02*
X124900Y97601D01*
X127899Y96601D02*
Y94602D01*
X127399D01*
X125400Y96601D01*
X124900D01*
X130400Y66400D02*
Y69399D01*
X131899D01*
X132399Y68899D01*
Y67900D01*
X131899Y67400D01*
X130400D01*
X131400D02*
X132399Y66400D01*
X133399D02*
X134399D01*
X133899D01*
Y69399D01*
X133399Y68899D01*
X135898D02*
X136398Y69399D01*
X137398D01*
X137898Y68899D01*
Y66900D01*
X137398Y66400D01*
X136398D01*
X135898Y66900D01*
Y68899D01*
X98200Y67800D02*
Y70799D01*
X99699D01*
X100199Y70299D01*
Y69300D01*
X99699Y68800D01*
X98200D01*
X99200D02*
X100199Y67800D01*
X101199D02*
X102199D01*
X101699D01*
Y70799D01*
X101199Y70299D01*
X103698Y67800D02*
X104698D01*
X104198D01*
Y70799D01*
X103698Y70299D01*
X92200Y35100D02*
Y38099D01*
X93700D01*
X94199Y37599D01*
Y36599D01*
X93700Y36100D01*
X92200D01*
X93200D02*
X94199Y35100D01*
X95199D02*
X96199D01*
X95699D01*
Y38099D01*
X95199Y37599D01*
X99698Y35100D02*
X97698D01*
X99698Y37099D01*
Y37599D01*
X99198Y38099D01*
X98198D01*
X97698Y37599D01*
X109100Y21500D02*
X106101D01*
Y22999D01*
X106601Y23499D01*
X107600D01*
X108100Y22999D01*
Y21500D01*
Y22500D02*
X109100Y23499D01*
Y24499D02*
Y25499D01*
Y24999D01*
X106101D01*
X106601Y24499D01*
X106101Y28998D02*
Y26998D01*
X107600D01*
X107101Y27998D01*
Y28498D01*
X107600Y28998D01*
X108600D01*
X109100Y28498D01*
Y27498D01*
X108600Y26998D01*
X115600Y21600D02*
X112601D01*
Y23099D01*
X113101Y23599D01*
X114101D01*
X114600Y23099D01*
Y21600D01*
Y22600D02*
X115600Y23599D01*
Y24599D02*
Y25599D01*
Y25099D01*
X112601D01*
X113101Y24599D01*
X112601Y27098D02*
Y29098D01*
X113101D01*
X115100Y27098D01*
X115600D01*
X2300Y20800D02*
Y23799D01*
X3799D01*
X4299Y23299D01*
Y22299D01*
X3799Y21800D01*
X2300D01*
X3300D02*
X4299Y20800D01*
X7298D02*
X5299D01*
X7298Y22799D01*
Y23299D01*
X6799Y23799D01*
X5799D01*
X5299Y23299D01*
X8298D02*
X8798Y23799D01*
X9798D01*
X10297Y23299D01*
Y22799D01*
X9798Y22299D01*
X9298D01*
X9798D01*
X10297Y21800D01*
Y21300D01*
X9798Y20800D01*
X8798D01*
X8298Y21300D01*
X47700Y1300D02*
X44701D01*
Y2799D01*
X45201Y3299D01*
X46200D01*
X46700Y2799D01*
Y1300D01*
Y2300D02*
X47700Y3299D01*
Y6298D02*
Y4299D01*
X45701Y6298D01*
X45201D01*
X44701Y5799D01*
Y4799D01*
X45201Y4299D01*
X44701Y9297D02*
Y7298D01*
X46200D01*
X45701Y8298D01*
Y8798D01*
X46200Y9297D01*
X47200D01*
X47700Y8798D01*
Y7798D01*
X47200Y7298D01*
X1600Y7500D02*
Y10499D01*
X3100D01*
X3599Y9999D01*
Y8999D01*
X3100Y8500D01*
X1600D01*
X2600D02*
X3599Y7500D01*
X6598D02*
X4599D01*
X6598Y9499D01*
Y9999D01*
X6099Y10499D01*
X5099D01*
X4599Y9999D01*
X9597Y10499D02*
X8598Y9999D01*
X7598Y8999D01*
Y8000D01*
X8098Y7500D01*
X9098D01*
X9597Y8000D01*
Y8500D01*
X9098Y8999D01*
X7598D01*
X54500Y400D02*
X51501D01*
Y1900D01*
X52001Y2399D01*
X53000D01*
X53500Y1900D01*
Y400D01*
Y1400D02*
X54500Y2399D01*
Y5398D02*
Y3399D01*
X52501Y5398D01*
X52001D01*
X51501Y4899D01*
Y3899D01*
X52001Y3399D01*
X51501Y6398D02*
Y8397D01*
X52001D01*
X54000Y6398D01*
X54500D01*
X28900Y107200D02*
Y110199D01*
X30400D01*
X30899Y109699D01*
Y108700D01*
X30400Y108200D01*
X28900D01*
X29900D02*
X30899Y107200D01*
X33898D02*
X31899D01*
X33898Y109199D01*
Y109699D01*
X33399Y110199D01*
X32399D01*
X31899Y109699D01*
X34898D02*
X35398Y110199D01*
X36398D01*
X36897Y109699D01*
Y109199D01*
X36398Y108700D01*
X36897Y108200D01*
Y107700D01*
X36398Y107200D01*
X35398D01*
X34898Y107700D01*
Y108200D01*
X35398Y108700D01*
X34898Y109199D01*
Y109699D01*
X35398Y108700D02*
X36398D01*
X28700Y112500D02*
Y115499D01*
X30200D01*
X30699Y114999D01*
Y113999D01*
X30200Y113500D01*
X28700D01*
X29700D02*
X30699Y112500D01*
X33698D02*
X31699D01*
X33698Y114499D01*
Y114999D01*
X33199Y115499D01*
X32199D01*
X31699Y114999D01*
X34698Y113000D02*
X35198Y112500D01*
X36198D01*
X36697Y113000D01*
Y114999D01*
X36198Y115499D01*
X35198D01*
X34698Y114999D01*
Y114499D01*
X35198Y113999D01*
X36697D01*
X1800Y14100D02*
Y17099D01*
X3300D01*
X3799Y16599D01*
Y15599D01*
X3300Y15100D01*
X1800D01*
X2800D02*
X3799Y14100D01*
X4799Y16599D02*
X5299Y17099D01*
X6299D01*
X6798Y16599D01*
Y16099D01*
X6299Y15599D01*
X5799D01*
X6299D01*
X6798Y15100D01*
Y14600D01*
X6299Y14100D01*
X5299D01*
X4799Y14600D01*
X7798Y16599D02*
X8298Y17099D01*
X9298D01*
X9797Y16599D01*
Y14600D01*
X9298Y14100D01*
X8298D01*
X7798Y14600D01*
Y16599D01*
X108000Y44299D02*
Y41800D01*
X108500Y41300D01*
X109500D01*
X109999Y41800D01*
Y44299D01*
X110999Y43799D02*
X111499Y44299D01*
X112499D01*
X112998Y43799D01*
Y43299D01*
X112499Y42799D01*
X111999D01*
X112499D01*
X112998Y42300D01*
Y41800D01*
X112499Y41300D01*
X111499D01*
X110999Y41800D01*
D13*
X23493Y75172D02*
X26493D01*
X30454D02*
X33454D01*
X30454Y69970D02*
X33454D01*
X23493D02*
X26493D01*
X23493Y63636D02*
X26493D01*
X30454D02*
X33454D01*
X30454Y68837D02*
X33454D01*
X23493D02*
X26493D01*
D14*
X86700Y48800D02*
Y51300D01*
D15*
Y58800D01*
X76700D02*
X86700D01*
X76700Y48800D02*
Y58800D01*
Y48800D02*
X86700D01*
X114500Y6399D02*
Y3733D01*
X115833Y2400D01*
X117166Y3733D01*
Y6399D01*
X118499Y2400D02*
X119832D01*
X119165D01*
Y6399D01*
X118499Y5732D01*
X121831Y2400D02*
Y3067D01*
X122497D01*
Y2400D01*
X121831D01*
X127829Y6399D02*
X126496Y5732D01*
X125163Y4399D01*
Y3067D01*
X125830Y2400D01*
X127163D01*
X127829Y3067D01*
Y3733D01*
X127163Y4399D01*
X125163D01*
X72766Y2800D02*
X70100D01*
X72766Y5466D01*
Y6132D01*
X72099Y6799D01*
X70766D01*
X70100Y6132D01*
X74099D02*
X74765Y6799D01*
X76098D01*
X76765Y6132D01*
Y3466D01*
X76098Y2800D01*
X74765D01*
X74099Y3466D01*
Y6132D01*
X80763Y2800D02*
X78097D01*
X80763Y5466D01*
Y6132D01*
X80097Y6799D01*
X78764D01*
X78097Y6132D01*
X84762Y2800D02*
X82096D01*
X84762Y5466D01*
Y6132D01*
X84096Y6799D01*
X82763D01*
X82096Y6132D01*
X86095Y2134D02*
X88761D01*
X90094Y6132D02*
X90760Y6799D01*
X92093D01*
X92759Y6132D01*
Y3466D01*
X92093Y2800D01*
X90760D01*
X90094Y3466D01*
Y6132D01*
X94092Y6799D02*
X96758D01*
Y6132D01*
X94092Y3466D01*
Y2800D01*
X98091Y2134D02*
X100757D01*
X104755Y2800D02*
X102090D01*
X104755Y5466D01*
Y6132D01*
X104089Y6799D01*
X102756D01*
X102090Y6132D01*
X106088Y3466D02*
X106755Y2800D01*
X108088D01*
X108754Y3466D01*
Y6132D01*
X108088Y6799D01*
X106755D01*
X106088Y6132D01*
Y5466D01*
X106755Y4799D01*
X108754D01*
D16*
X83081Y90953D02*
X88002D01*
X83081Y85047D02*
X88002D01*
X76191Y90953D02*
X80719D01*
X76191Y85047D02*
X80719D01*
X88002Y85126D02*
Y90952D01*
X75010Y86622D02*
Y89378D01*
Y89772D02*
X76191Y90953D01*
X75010Y89378D02*
Y89772D01*
Y86228D02*
X76191Y85047D01*
X75010Y86228D02*
Y86622D01*
X81400Y88025D02*
X82400D01*
Y86500D02*
Y89500D01*
X83081Y108753D02*
X88002D01*
X83081Y102847D02*
X88002D01*
X76191Y108753D02*
X80719D01*
X76191Y102847D02*
X80719D01*
X88002Y102926D02*
Y108752D01*
X75010Y104422D02*
Y107178D01*
Y107572D02*
X76191Y108753D01*
X75010Y107178D02*
Y107572D01*
Y104028D02*
X76191Y102847D01*
X75010Y104028D02*
Y104422D01*
X81400Y105825D02*
X82400D01*
Y104300D02*
Y107300D01*
X69653Y90398D02*
Y95319D01*
X63747Y90398D02*
Y95319D01*
X69653Y97681D02*
Y102209D01*
X63747Y97681D02*
Y102209D01*
X63826Y90398D02*
X69652D01*
X65322Y103390D02*
X68078D01*
X68472D02*
X69653Y102209D01*
X68078Y103390D02*
X68472D01*
X63747Y102209D02*
X64928Y103390D01*
X65322D01*
X66725Y96000D02*
Y97000D01*
X65200Y96000D02*
X68200D01*
X92253Y90398D02*
Y95319D01*
X86347Y90398D02*
Y95319D01*
X92253Y97681D02*
Y102209D01*
X86347Y97681D02*
Y102209D01*
X86426Y90398D02*
X92252D01*
X87922Y103390D02*
X90678D01*
X91072D02*
X92253Y102209D01*
X90678Y103390D02*
X91072D01*
X86347Y102209D02*
X87528Y103390D01*
X87922D01*
X89325Y96000D02*
Y97000D01*
X87800Y96000D02*
X90800D01*
X55453Y90398D02*
Y95319D01*
X49547Y90398D02*
Y95319D01*
X55453Y97681D02*
Y102209D01*
X49547Y97681D02*
Y102209D01*
X49626Y90398D02*
X55452D01*
X51122Y103390D02*
X53878D01*
X54272D02*
X55453Y102209D01*
X53878Y103390D02*
X54272D01*
X49547Y102209D02*
X50728Y103390D01*
X51122D01*
X52525Y96000D02*
Y97000D01*
X51000Y96000D02*
X54000D01*
X77853Y90398D02*
Y95319D01*
X71947Y90398D02*
Y95319D01*
X77853Y97681D02*
Y102209D01*
X71947Y97681D02*
Y102209D01*
X72026Y90398D02*
X77852D01*
X73522Y103390D02*
X76278D01*
X76672D02*
X77853Y102209D01*
X76278Y103390D02*
X76672D01*
X71947Y102209D02*
X73128Y103390D01*
X73522D01*
X74925Y96000D02*
Y97000D01*
X73400Y96000D02*
X76400D01*
X60681Y108753D02*
X65602D01*
X60681Y102847D02*
X65602D01*
X53791Y108753D02*
X58319D01*
X53791Y102847D02*
X58319D01*
X65602Y102926D02*
Y108752D01*
X52610Y104422D02*
Y107178D01*
Y107572D02*
X53791Y108753D01*
X52610Y107178D02*
Y107572D01*
Y104028D02*
X53791Y102847D01*
X52610Y104028D02*
Y104422D01*
X59000Y105825D02*
X60000D01*
Y104300D02*
Y107300D01*
X63800Y80081D02*
Y85002D01*
X69706Y80081D02*
Y85002D01*
X63800Y73191D02*
Y77719D01*
X69706Y73191D02*
Y77719D01*
X63801Y85002D02*
X69627D01*
X65375Y72010D02*
X68131D01*
X63800Y73191D02*
X64981Y72010D01*
X65375D01*
X68525D02*
X69706Y73191D01*
X68131Y72010D02*
X68525D01*
X66728Y78400D02*
Y79400D01*
X65253D02*
X68253D01*
X95998Y98847D02*
X100919D01*
X95998Y104753D02*
X100919D01*
X103281Y98847D02*
X107809D01*
X103281Y104753D02*
X107809D01*
X95998Y98848D02*
Y104674D01*
X108990Y100422D02*
Y103178D01*
X107809Y98847D02*
X108990Y100028D01*
Y100422D01*
X107809Y104753D02*
X108990Y103572D01*
Y103178D02*
Y103572D01*
X101600Y101775D02*
X102600D01*
X101600Y100300D02*
Y103300D01*
X86347Y80081D02*
Y85002D01*
X92253Y80081D02*
Y85002D01*
X86347Y73191D02*
Y77719D01*
X92253Y73191D02*
Y77719D01*
X86348Y85002D02*
X92174D01*
X87922Y72010D02*
X90678D01*
X86347Y73191D02*
X87528Y72010D01*
X87922D01*
X91072D02*
X92253Y73191D01*
X90678Y72010D02*
X91072D01*
X89275Y78400D02*
Y79400D01*
X87800D02*
X90800D01*
X49447Y80081D02*
Y85002D01*
X55353Y80081D02*
Y85002D01*
X49447Y73191D02*
Y77719D01*
X55353Y73191D02*
Y77719D01*
X49448Y85002D02*
X55274D01*
X51022Y72010D02*
X53778D01*
X49447Y73191D02*
X50628Y72010D01*
X51022D01*
X54172D02*
X55353Y73191D01*
X53778Y72010D02*
X54172D01*
X52375Y78400D02*
Y79400D01*
X50900D02*
X53900D01*
X71947Y80081D02*
Y85002D01*
X77853Y80081D02*
Y85002D01*
X71947Y73191D02*
Y77719D01*
X77853Y73191D02*
Y77719D01*
X71948Y85002D02*
X77774D01*
X73522Y72010D02*
X76278D01*
X71947Y73191D02*
X73128Y72010D01*
X73522D01*
X76672D02*
X77853Y73191D01*
X76278Y72010D02*
X76672D01*
X74875Y78400D02*
Y79400D01*
X73400D02*
X76400D01*
X60681Y73053D02*
X65602D01*
X60681Y67147D02*
X65602D01*
X53791Y73053D02*
X58319D01*
X53791Y67147D02*
X58319D01*
X65602Y67226D02*
Y73053D01*
X52610Y68722D02*
Y71478D01*
Y71872D02*
X53791Y73053D01*
X52610Y71478D02*
Y71872D01*
Y68328D02*
X53791Y67147D01*
X52610Y68328D02*
Y68722D01*
X59000Y70125D02*
X60000D01*
Y68600D02*
Y71600D01*
X60681Y90953D02*
X65602D01*
X60681Y85047D02*
X65602D01*
X53791Y90953D02*
X58319D01*
X53791Y85047D02*
X58319D01*
X65602Y85126D02*
Y90952D01*
X52610Y86622D02*
Y89378D01*
Y89772D02*
X53791Y90953D01*
X52610Y89378D02*
Y89772D01*
Y86228D02*
X53791Y85047D01*
X52610Y86228D02*
Y86622D01*
X59000Y88025D02*
X60000D01*
Y86500D02*
Y89500D01*
X83081Y73053D02*
X88002D01*
X83081Y67147D02*
X88002D01*
X76191Y73053D02*
X80719D01*
X76191Y67147D02*
X80719D01*
X88002Y67226D02*
Y73053D01*
X75010Y68722D02*
Y71478D01*
Y71872D02*
X76191Y73053D01*
X75010Y71478D02*
Y71872D01*
Y68328D02*
X76191Y67147D01*
X75010Y68328D02*
Y68722D01*
X81400Y70125D02*
X82400D01*
Y68600D02*
Y71600D01*
X49698Y115747D02*
X54619D01*
X49698Y121653D02*
X54619D01*
X56981Y115747D02*
X61509D01*
X56981Y121653D02*
X61509D01*
X49698Y115748D02*
Y121574D01*
X62690Y117322D02*
Y120078D01*
X61509Y115747D02*
X62690Y116928D01*
Y117322D01*
X61509Y121653D02*
X62690Y120472D01*
Y120078D02*
Y120472D01*
X55300Y118675D02*
X56300D01*
X55300Y117200D02*
Y120200D01*
X64673Y115747D02*
X69595D01*
X64673Y121653D02*
X69595D01*
X71957Y115747D02*
X76484D01*
X71957Y121653D02*
X76484D01*
X64673Y115748D02*
Y121574D01*
X77665Y117322D02*
Y120078D01*
X76484Y115747D02*
X77665Y116928D01*
Y117322D01*
X76484Y121653D02*
X77665Y120472D01*
Y120078D02*
Y120472D01*
X70275Y118675D02*
X71275D01*
X70275Y117200D02*
Y120200D01*
X79649Y115747D02*
X84570D01*
X79649Y121653D02*
X84570D01*
X86932Y115747D02*
X91460D01*
X86932Y121653D02*
X91460D01*
X79649Y115748D02*
Y121574D01*
X92641Y117322D02*
Y120078D01*
X91460Y115747D02*
X92641Y116928D01*
Y117322D01*
X91460Y121653D02*
X92641Y120472D01*
Y120078D02*
Y120472D01*
X85251Y118675D02*
X86251D01*
X85251Y117200D02*
Y120200D01*
M02*
