G04*
G04 #@! TF.GenerationSoftware,Altium Limited,Altium Designer,20.0.2 (26)*
G04*
G04 Layer_Color=255*
%FSLAX25Y25*%
%MOIN*%
G70*
G01*
G75*
%ADD17R,0.03150X0.03543*%
%ADD18R,0.06697X0.04754*%
%ADD19R,0.04221X0.02095*%
%ADD20R,0.04754X0.06697*%
%ADD21R,0.03150X0.03402*%
%ADD22R,0.03543X0.03937*%
%ADD23R,0.05512X0.04724*%
%ADD24R,0.02756X0.04921*%
%ADD25R,0.03175X0.03402*%
%ADD26C,0.05906*%
%ADD27R,0.03543X0.03150*%
%ADD28C,0.06000*%
%ADD29R,0.03937X0.03543*%
%ADD30R,0.03402X0.03175*%
%ADD57C,0.03937*%
%ADD58R,0.08661X0.08661*%
%ADD59C,0.03543*%
%ADD60R,0.03543X0.03543*%
%ADD61C,0.07087*%
%ADD62C,0.08661*%
D17*
X44911Y53500D02*
D03*
X39400D02*
D03*
X45055Y45400D02*
D03*
X39544D02*
D03*
X112845Y63900D02*
D03*
X118356D02*
D03*
X11744Y96900D02*
D03*
X17255D02*
D03*
X31137Y79300D02*
D03*
X25626D02*
D03*
D18*
X119600Y78178D02*
D03*
Y89822D02*
D03*
D19*
X112835Y56540D02*
D03*
Y52800D02*
D03*
Y49060D02*
D03*
X103787D02*
D03*
Y52800D02*
D03*
Y56540D02*
D03*
D20*
X12043Y106100D02*
D03*
X23687D02*
D03*
X12043Y116000D02*
D03*
X23687D02*
D03*
D21*
X31255Y72535D02*
D03*
X25745D02*
D03*
Y66201D02*
D03*
X31255D02*
D03*
D22*
X85050Y88000D02*
D03*
X78751D02*
D03*
X85050Y105800D02*
D03*
X78751D02*
D03*
X62650D02*
D03*
X56351D02*
D03*
X98950Y101800D02*
D03*
X105249D02*
D03*
X62650Y70100D02*
D03*
X56351D02*
D03*
X62650Y88000D02*
D03*
X56351D02*
D03*
X85050Y70100D02*
D03*
X78751D02*
D03*
X52650Y118700D02*
D03*
X58949D02*
D03*
X67625D02*
D03*
X73925D02*
D03*
X82601D02*
D03*
X88900D02*
D03*
D23*
X42000Y38893D02*
D03*
Y25507D02*
D03*
D24*
X29300Y50237D02*
D03*
X33040Y42363D02*
D03*
X25560D02*
D03*
D25*
X17675Y85841D02*
D03*
X11744D02*
D03*
X100635Y64000D02*
D03*
X106565D02*
D03*
X100224Y42269D02*
D03*
X94293D02*
D03*
X13935Y22000D02*
D03*
X19865D02*
D03*
X13935Y9000D02*
D03*
X19865D02*
D03*
X13935Y15500D02*
D03*
X19865D02*
D03*
D26*
X12400Y52700D02*
D03*
X4700Y113800D02*
D03*
X40800Y78500D02*
D03*
X100100Y78090D02*
D03*
X73600Y9800D02*
D03*
X34500Y23600D02*
D03*
X14025Y31639D02*
D03*
X17100Y63600D02*
D03*
D27*
X28100Y25289D02*
D03*
Y30800D02*
D03*
X125724Y55899D02*
D03*
Y61410D02*
D03*
X121400Y12268D02*
D03*
Y17779D02*
D03*
X91100Y17656D02*
D03*
Y12145D02*
D03*
X99550Y17656D02*
D03*
Y12145D02*
D03*
X60000Y18400D02*
D03*
Y12889D02*
D03*
D28*
X135500Y99100D02*
D03*
D29*
X66700Y93350D02*
D03*
Y99649D02*
D03*
X89300Y93350D02*
D03*
Y99649D02*
D03*
X52500Y93350D02*
D03*
Y99649D02*
D03*
X74900Y93350D02*
D03*
Y99649D02*
D03*
X66753Y82050D02*
D03*
Y75751D02*
D03*
X89300Y82050D02*
D03*
Y75751D02*
D03*
X52400Y82050D02*
D03*
Y75751D02*
D03*
X74900Y82050D02*
D03*
Y75751D02*
D03*
D30*
X120000Y109466D02*
D03*
Y103534D02*
D03*
X126300Y109466D02*
D03*
Y103534D02*
D03*
X132700Y55734D02*
D03*
Y61665D02*
D03*
X107500Y11804D02*
D03*
Y17734D02*
D03*
X114200Y17744D02*
D03*
Y11813D02*
D03*
X46300Y12298D02*
D03*
Y18229D02*
D03*
X53000D02*
D03*
Y12298D02*
D03*
D57*
X36900Y14078D02*
D03*
Y19000D02*
D03*
X20900Y56722D02*
D03*
Y51800D02*
D03*
X80000Y14078D02*
D03*
Y19000D02*
D03*
X20900Y32678D02*
D03*
Y37600D02*
D03*
D58*
X81700Y53800D02*
D03*
D59*
X122034Y120800D02*
D03*
X127034D02*
D03*
X117034D02*
D03*
X112034D02*
D03*
D60*
X107034D02*
D03*
D61*
X128061Y30500D02*
D03*
X98139D02*
D03*
D62*
X59600Y31800D02*
D03*
M02*
