G04*
G04 #@! TF.GenerationSoftware,Altium Limited,Altium Designer,20.0.2 (26)*
G04*
G04 Layer_Color=16711935*
%FSLAX25Y25*%
%MOIN*%
G70*
G01*
G75*
%ADD31C,0.10000*%
%ADD32R,0.03950X0.04343*%
%ADD40R,0.03975X0.04202*%
%ADD42R,0.04343X0.03950*%
%ADD43C,0.06800*%
%ADD45R,0.04202X0.03975*%
%ADD46C,0.04737*%
%ADD47R,0.09461X0.09461*%
%ADD48C,0.04343*%
%ADD49R,0.04343X0.04343*%
%ADD50C,0.07887*%
%ADD51C,0.09461*%
%ADD72R,0.03162X0.04737*%
%ADD73R,0.05918X0.05918*%
%ADD74O,0.08674X0.01784*%
%ADD75R,0.08674X0.01784*%
%ADD76R,0.04737X0.03950*%
%ADD77R,0.03950X0.04737*%
%ADD78R,0.04202X0.03950*%
D31*
X133400Y12300D02*
D03*
D32*
X22700Y113500D02*
D03*
X17189D02*
D03*
D40*
X16690Y92959D02*
D03*
X22621D02*
D03*
X106531Y68900D02*
D03*
X100600D02*
D03*
X106572Y62901D02*
D03*
X100641D02*
D03*
X22621Y100100D02*
D03*
X16690D02*
D03*
X22666Y106200D02*
D03*
X16735D02*
D03*
D42*
X51400Y49175D02*
D03*
Y43664D02*
D03*
X32000Y31545D02*
D03*
Y37056D02*
D03*
D43*
X133400Y12300D02*
D03*
D45*
X30000Y43235D02*
D03*
Y49165D02*
D03*
X128700Y68600D02*
D03*
Y62669D02*
D03*
D46*
X36900Y14078D02*
D03*
Y19000D02*
D03*
X20900Y56722D02*
D03*
Y51800D02*
D03*
X80000Y14078D02*
D03*
Y19000D02*
D03*
X20900Y32678D02*
D03*
Y37600D02*
D03*
D47*
X81700Y53800D02*
D03*
D48*
X122034Y120800D02*
D03*
X127034D02*
D03*
X117034D02*
D03*
X112034D02*
D03*
D49*
X107034D02*
D03*
D50*
X128061Y30500D02*
D03*
X98139D02*
D03*
D51*
X59600Y31800D02*
D03*
D72*
X37161Y42815D02*
D03*
X44640Y42816D02*
D03*
X44640Y53052D02*
D03*
X40900Y53052D02*
D03*
X37160Y53052D02*
D03*
D73*
X7800Y47040D02*
D03*
Y60426D02*
D03*
D74*
X127540Y98077D02*
D03*
Y95518D02*
D03*
Y92959D02*
D03*
Y90400D02*
D03*
Y87841D02*
D03*
Y85281D02*
D03*
X105886Y95518D02*
D03*
Y92959D02*
D03*
Y90400D02*
D03*
Y87841D02*
D03*
Y85282D02*
D03*
Y82722D02*
D03*
X127540D02*
D03*
X105886Y105754D02*
D03*
Y103195D02*
D03*
X127540Y100636D02*
D03*
Y103195D02*
D03*
X105886Y98077D02*
D03*
Y100636D02*
D03*
D75*
X127540Y105754D02*
D03*
D76*
X112979Y62660D02*
D03*
X122034Y66400D02*
D03*
X112979Y70141D02*
D03*
D77*
X34384Y78327D02*
D03*
X30643Y69272D02*
D03*
X26903Y78327D02*
D03*
X12303Y78427D02*
D03*
X16044Y69372D02*
D03*
X19784Y78427D02*
D03*
D78*
X40900Y31545D02*
D03*
Y37056D02*
D03*
M02*
