G04*
G04 #@! TF.GenerationSoftware,Altium Limited,Altium Designer,20.0.2 (26)*
G04*
G04 Layer_Color=32896*
%FSLAX25Y25*%
%MOIN*%
G70*
G01*
G75*
%ADD10C,0.01000*%
%ADD12C,0.00600*%
%ADD13C,0.00598*%
%ADD15C,0.00800*%
%ADD54C,0.02000*%
%ADD79C,0.00787*%
%ADD80C,0.00591*%
D10*
X34900Y53934D02*
G03*
X34900Y53934I-500J0D01*
G01*
X118099Y30500D02*
G03*
X118099Y30500I-5000J0D01*
G01*
X140659D02*
G03*
X140659Y30500I-27559J0D01*
G01*
X52976Y40947D02*
G03*
X54195Y42167I0J1220D01*
G01*
X48606D02*
G03*
X49826Y40947I1220J0D01*
G01*
X54172Y50733D02*
G03*
X52953Y51953I-1220J0D01*
G01*
X49803D02*
G03*
X48583Y50733I0J-1220D01*
G01*
X30403Y39834D02*
G03*
X29183Y38614I0J-1220D01*
G01*
X34773D02*
G03*
X33553Y39834I-1220J0D01*
G01*
X29206Y30047D02*
G03*
X30426Y28828I1220J0D01*
G01*
X33576D02*
G03*
X34795Y30047I0J1220D01*
G01*
X14411Y111903D02*
G03*
X15631Y110683I1220J0D01*
G01*
Y116272D02*
G03*
X14411Y115053I0J-1220D01*
G01*
X24197Y110706D02*
G03*
X25417Y111926I0J1220D01*
G01*
Y115076D02*
G03*
X24197Y116295I-1220J0D01*
G01*
X29026Y21664D02*
X33357Y21657D01*
Y24420D01*
X29026Y11027D02*
X33357Y11034D01*
Y8271D02*
Y11034D01*
X41430Y8173D02*
Y24905D01*
X28829D02*
X41428D01*
X28830Y8173D02*
Y24905D01*
X28829Y8173D02*
X41428D01*
X30207Y9452D02*
X40050D01*
X30207D02*
Y23626D01*
X40050D01*
Y9452D02*
Y23626D01*
X34797Y44390D02*
Y51477D01*
X39325Y44390D02*
X42475D01*
X47002D02*
Y51477D01*
X5800Y52133D02*
X9800D01*
X3863Y47828D02*
Y59639D01*
X6200Y55333D02*
X7800Y53033D01*
X6200Y55333D02*
X9400D01*
X7800Y53033D02*
X9400Y55333D01*
X11737Y47828D02*
Y59639D01*
X24050Y47174D02*
Y61348D01*
X14207D02*
X24050D01*
X14207Y47174D02*
Y61348D01*
Y47174D02*
X24050D01*
X12829Y45895D02*
X25428D01*
X12830D02*
Y62627D01*
X12829D02*
X25428D01*
X25430Y45895D02*
Y62627D01*
X17357Y45993D02*
Y48756D01*
X13026Y48749D02*
X17357Y48756D01*
Y59379D02*
Y62142D01*
X13026Y59386D02*
X17357Y59379D01*
X116325Y60495D02*
X120263D01*
Y63897D01*
X114751Y65164D02*
Y67637D01*
X116325Y72306D02*
X120263D01*
Y68904D02*
Y72306D01*
X54172Y47583D02*
Y50733D01*
X49803Y51953D02*
X52953D01*
X48583Y47583D02*
Y50733D01*
X54195Y42167D02*
Y45316D01*
X48606Y42167D02*
Y45316D01*
X49826Y40947D02*
X52976D01*
X72126Y21664D02*
X76457Y21657D01*
Y24420D01*
X72126Y11027D02*
X76457Y11034D01*
Y8271D02*
Y11034D01*
X84530Y8173D02*
Y24905D01*
X71929D02*
X84528D01*
X71930Y8173D02*
Y24905D01*
X71929Y8173D02*
X84528D01*
X73307Y9452D02*
X83150D01*
X73307D02*
Y23626D01*
X83150D01*
Y9452D02*
Y23626D01*
X33147Y71044D02*
X36549D01*
Y74981D01*
X29407Y76556D02*
X31880D01*
X24738Y71044D02*
X28140D01*
X24738D02*
Y74981D01*
X13026Y40264D02*
X17357Y40257D01*
Y43020D01*
X13026Y29627D02*
X17357Y29634D01*
Y26871D02*
Y29634D01*
X25430Y26773D02*
Y43505D01*
X12829D02*
X25428D01*
X12830Y26773D02*
Y43505D01*
X12829Y26773D02*
X25428D01*
X14207Y28052D02*
X24050D01*
X14207D02*
Y42226D01*
X24050D01*
Y28052D02*
Y42226D01*
X30426Y28828D02*
X33576D01*
X29206Y30047D02*
Y33197D01*
X34795Y30047D02*
Y33197D01*
X29183Y35464D02*
Y38614D01*
X30403Y39833D02*
X33553D01*
X34772Y35464D02*
Y38614D01*
X25417Y111926D02*
Y115076D01*
X21048Y110706D02*
X24197D01*
X21048Y116295D02*
X24197D01*
X15631Y110683D02*
X18781D01*
X14411Y111903D02*
Y115053D01*
X15631Y116272D02*
X18781D01*
X10138Y71144D02*
Y75081D01*
Y71144D02*
X13540D01*
X14807Y76656D02*
X17280D01*
X21949Y71144D02*
Y75081D01*
X18547Y71144D02*
X21949D01*
D12*
X14202Y90358D02*
X17977D01*
X14202D02*
Y95560D01*
X17977D01*
X21333Y90358D02*
X25108D01*
Y95560D01*
X21333D02*
X25108D01*
X32601Y40747D02*
Y44522D01*
X27399Y40747D02*
X32601D01*
X27399D02*
Y44522D01*
X32601Y47878D02*
Y51653D01*
X27399D02*
X32601D01*
X27399Y47878D02*
Y51653D01*
X126099Y67313D02*
Y71088D01*
X131301D01*
Y67313D02*
Y71088D01*
X126099Y60181D02*
Y63956D01*
Y60181D02*
X131301D01*
Y63956D01*
X38263Y39307D02*
X38863Y39907D01*
X42865D01*
X43464Y39307D01*
X42865Y28746D02*
X43464Y29346D01*
X38863Y28746D02*
X42865D01*
X38263Y29346D02*
X38863Y28746D01*
X105244Y71501D02*
X109019D01*
Y66299D02*
Y71501D01*
X105244Y66299D02*
X109019D01*
X98112Y71501D02*
X101888D01*
X98112Y66299D02*
Y71501D01*
Y66299D02*
X101888D01*
X105285Y65501D02*
X109060D01*
Y60300D02*
Y65501D01*
X105285Y60300D02*
X109060D01*
X98154Y65501D02*
X101929D01*
X98154Y60300D02*
Y65501D01*
Y60300D02*
X101929D01*
X21333Y102701D02*
X25108D01*
Y97499D02*
Y102701D01*
X21333Y97499D02*
X25108D01*
X14202Y102701D02*
X17977D01*
X14202Y97499D02*
Y102701D01*
Y97499D02*
X17977D01*
X21378Y108801D02*
X25153D01*
Y103599D02*
Y108801D01*
X21378Y103599D02*
X25153D01*
X14247Y108801D02*
X18022D01*
X14247Y103599D02*
Y108801D01*
Y103599D02*
X18022D01*
X90400Y28400D02*
X92399D01*
X91400Y27401D02*
Y29400D01*
X41100Y3000D02*
Y5999D01*
X39101Y3000D01*
Y5999D01*
X38101D02*
X36102D01*
X37101D01*
Y3000D01*
X33103Y5499D02*
X33602Y5999D01*
X34602D01*
X35102Y5499D01*
Y3500D01*
X34602Y3000D01*
X33602D01*
X33103Y3500D01*
X12100Y66000D02*
Y68999D01*
X11100Y67999D01*
X10101Y68999D01*
Y66000D01*
X7601Y68999D02*
X8601D01*
X9101Y68499D01*
Y66500D01*
X8601Y66000D01*
X7601D01*
X7102Y66500D01*
Y68499D01*
X7601Y68999D01*
X6102D02*
X4103D01*
X5102D01*
Y66000D01*
X1603Y68999D02*
X2603D01*
X3103Y68499D01*
Y66500D01*
X2603Y66000D01*
X1603D01*
X1104Y66500D01*
Y68499D01*
X1603Y68999D01*
X2300Y62100D02*
Y64099D01*
X3299Y63100D02*
X1300D01*
X53799Y59900D02*
Y61899D01*
X9199Y27700D02*
X5866D01*
X5200Y28366D01*
Y29699D01*
X5866Y30366D01*
X9199D01*
X8532Y34365D02*
X9199Y33698D01*
Y32365D01*
X8532Y31699D01*
X7866D01*
X7199Y32365D01*
Y33698D01*
X6533Y34365D01*
X5866D01*
X5200Y33698D01*
Y32365D01*
X5866Y31699D01*
X9199Y35697D02*
X5200D01*
Y37697D01*
X5866Y38363D01*
X6533D01*
X7199Y37697D01*
Y35697D01*
Y37697D01*
X7866Y38363D01*
X8532D01*
X9199Y37697D01*
Y35697D01*
X68700Y19999D02*
X66701D01*
X68900Y11900D02*
X66901D01*
X67900Y12899D02*
Y10900D01*
X84500Y6499D02*
Y3500D01*
X83000D01*
X82501Y4000D01*
Y4500D01*
X83000Y5000D01*
X84500D01*
X83000D01*
X82501Y5499D01*
Y5999D01*
X83000Y6499D01*
X84500D01*
X81501Y3500D02*
Y5499D01*
X80501Y6499D01*
X79502Y5499D01*
Y3500D01*
Y5000D01*
X81501D01*
X78502Y6499D02*
X76503D01*
X77502D01*
Y3500D01*
X9700Y44899D02*
Y41900D01*
X8201D01*
X7701Y42400D01*
Y44399D01*
X8201Y44899D01*
X9700D01*
X4702Y41900D02*
X6701D01*
X4702Y43899D01*
Y44399D01*
X5201Y44899D01*
X6201D01*
X6701Y44399D01*
X11399Y91101D02*
Y94099D01*
X9899D01*
X9399Y93600D01*
Y92600D01*
X9899Y92100D01*
X11399D01*
X10399D02*
X9399Y91101D01*
X6401D02*
X8400D01*
X6401Y93100D01*
Y93600D01*
X6900Y94099D01*
X7900D01*
X8400Y93600D01*
X5401Y91101D02*
X4401D01*
X4901D01*
Y94099D01*
X5401Y93600D01*
X53200Y57099D02*
Y54600D01*
X52700Y54100D01*
X51701D01*
X51201Y54600D01*
Y57099D01*
X48701Y54100D02*
Y57099D01*
X50201Y55599D01*
X48202D01*
X61001Y47199D02*
X61501Y47699D01*
X62500D01*
X63000Y47199D01*
Y45200D01*
X62500Y44700D01*
X61501D01*
X61001Y45200D01*
X60001Y44700D02*
X59001D01*
X59501D01*
Y47699D01*
X60001Y47199D01*
X57502Y44700D02*
X56502D01*
X57002D01*
Y47699D01*
X57502Y47199D01*
X122200Y14499D02*
Y11500D01*
X120701D01*
X120201Y12000D01*
Y12500D01*
X120701Y13000D01*
X122200D01*
X120701D01*
X120201Y13499D01*
Y13999D01*
X120701Y14499D01*
X122200D01*
X119201D02*
Y12000D01*
X118701Y11500D01*
X117701D01*
X117202Y12000D01*
Y14499D01*
X116202D02*
X114203D01*
Y13999D01*
X116202Y12000D01*
Y11500D01*
X114203D01*
X113203Y14499D02*
X111204D01*
Y13999D01*
X113203Y12000D01*
Y11500D01*
X111204D01*
X108204Y14499D02*
X110204D01*
Y11500D01*
X108204D01*
X110204Y13000D02*
X109204D01*
X107205Y11500D02*
Y14499D01*
X105705D01*
X105206Y13999D01*
Y13000D01*
X105705Y12500D01*
X107205D01*
X106205D02*
X105206Y11500D01*
X104206D02*
X103206D01*
X103706D01*
Y14499D01*
X104206Y13999D01*
X136800Y122699D02*
Y119700D01*
Y121200D01*
X134801D01*
Y122699D01*
Y119700D01*
X133801D02*
X132801D01*
X133301D01*
Y122699D01*
X133801Y122199D01*
X24101Y23999D02*
X24600Y24499D01*
X25600D01*
X26100Y23999D01*
Y22000D01*
X25600Y21500D01*
X24600D01*
X24101Y22000D01*
X23101Y21500D02*
X22101D01*
X22601D01*
Y24499D01*
X23101Y23999D01*
X18602Y21500D02*
X20602D01*
X18602Y23499D01*
Y23999D01*
X19102Y24499D01*
X20102D01*
X20602Y23999D01*
X9701Y114699D02*
X10200Y115199D01*
X11200D01*
X11700Y114699D01*
Y112700D01*
X11200Y112200D01*
X10200D01*
X9701Y112700D01*
X8701Y112200D02*
X7701D01*
X8201D01*
Y115199D01*
X8701Y114699D01*
X6202D02*
X5702Y115199D01*
X4702D01*
X4202Y114699D01*
Y114199D01*
X4702Y113699D01*
X5202D01*
X4702D01*
X4202Y113200D01*
Y112700D01*
X4702Y112200D01*
X5702D01*
X6202Y112700D01*
X48300Y26399D02*
Y23400D01*
X46301D01*
X45301Y25899D02*
X44801Y26399D01*
X43801D01*
X43302Y25899D01*
Y25399D01*
X43801Y24900D01*
X44301D01*
X43801D01*
X43302Y24400D01*
Y23900D01*
X43801Y23400D01*
X44801D01*
X45301Y23900D01*
X118001Y74800D02*
Y76799D01*
X118500Y77299D01*
X119500D01*
X120000Y76799D01*
Y74800D01*
X119500Y74300D01*
X118500D01*
X119000Y75300D02*
X118001Y74300D01*
X118500D02*
X118001Y74800D01*
X117001Y74300D02*
X116001D01*
X116501D01*
Y77299D01*
X117001Y76799D01*
X21101Y65000D02*
Y66999D01*
X21600Y67499D01*
X22600D01*
X23100Y66999D01*
Y65000D01*
X22600Y64500D01*
X21600D01*
X22100Y65500D02*
X21101Y64500D01*
X21600D02*
X21101Y65000D01*
X18601Y64500D02*
Y67499D01*
X20101Y66000D01*
X18102D01*
X36401Y65800D02*
Y67799D01*
X36900Y68299D01*
X37900D01*
X38400Y67799D01*
Y65800D01*
X37900Y65300D01*
X36900D01*
X37400Y66300D02*
X36401Y65300D01*
X36900D02*
X36401Y65800D01*
X35401Y67799D02*
X34901Y68299D01*
X33901D01*
X33402Y67799D01*
Y67299D01*
X33901Y66799D01*
X34401D01*
X33901D01*
X33402Y66300D01*
Y65800D01*
X33901Y65300D01*
X34901D01*
X35401Y65800D01*
X130900Y73700D02*
Y76699D01*
X129401D01*
X128901Y76199D01*
Y75200D01*
X129401Y74700D01*
X130900D01*
X129900D02*
X128901Y73700D01*
X127901D02*
X126901D01*
X127401D01*
Y76699D01*
X127901Y76199D01*
X96459Y68400D02*
Y71399D01*
X94959D01*
X94459Y70899D01*
Y69899D01*
X94959Y69399D01*
X96459D01*
X95459D02*
X94459Y68400D01*
X91460D02*
X93460D01*
X91460Y70399D01*
Y70899D01*
X91960Y71399D01*
X92960D01*
X93460Y70899D01*
X96000Y61100D02*
Y64099D01*
X94500D01*
X94001Y63599D01*
Y62599D01*
X94500Y62100D01*
X96000D01*
X95000D02*
X94001Y61100D01*
X91002Y64099D02*
X93001D01*
Y62599D01*
X92001Y63099D01*
X91501D01*
X91002Y62599D01*
Y61600D01*
X91501Y61100D01*
X92501D01*
X93001Y61600D01*
X35100Y56900D02*
Y59899D01*
X33601D01*
X33101Y59399D01*
Y58399D01*
X33601Y57900D01*
X35100D01*
X34100D02*
X33101Y56900D01*
X32101D02*
X31101D01*
X31601D01*
Y59899D01*
X32101Y59399D01*
X29602D02*
X29102Y59899D01*
X28102D01*
X27602Y59399D01*
Y58899D01*
X28102Y58399D01*
X27602Y57900D01*
Y57400D01*
X28102Y56900D01*
X29102D01*
X29602Y57400D01*
Y57900D01*
X29102Y58399D01*
X29602Y58899D01*
Y59399D01*
X29102Y58399D02*
X28102D01*
X11700Y99400D02*
Y102399D01*
X10200D01*
X9701Y101899D01*
Y100900D01*
X10200Y100400D01*
X11700D01*
X10700D02*
X9701Y99400D01*
X6702D02*
X8701D01*
X6702Y101399D01*
Y101899D01*
X7201Y102399D01*
X8201D01*
X8701Y101899D01*
X3703Y99400D02*
X5702D01*
X3703Y101399D01*
Y101899D01*
X4202Y102399D01*
X5202D01*
X5702Y101899D01*
X11700Y105400D02*
Y108399D01*
X10200D01*
X9701Y107899D01*
Y106899D01*
X10200Y106400D01*
X11700D01*
X10700D02*
X9701Y105400D01*
X6702D02*
X8701D01*
X6702Y107399D01*
Y107899D01*
X7201Y108399D01*
X8201D01*
X8701Y107899D01*
X4202Y105400D02*
Y108399D01*
X5702Y106899D01*
X3703D01*
X130890Y115803D02*
Y113304D01*
X130390Y112804D01*
X129391D01*
X128891Y113304D01*
Y115803D01*
X127891Y112804D02*
X126892D01*
X127391D01*
Y115803D01*
X127891Y115303D01*
D13*
X38263Y36307D02*
Y39307D01*
Y29346D02*
Y32346D01*
X43464Y29346D02*
Y32346D01*
Y36307D02*
Y39307D01*
D15*
X74401Y123000D02*
X77067D01*
X78400Y121667D01*
X77067Y120334D01*
X74401D01*
Y119001D02*
X78400D01*
Y117002D01*
X77734Y116335D01*
X77067D01*
X76401Y117002D01*
Y119001D01*
Y117002D01*
X75734Y116335D01*
X75068D01*
X74401Y117002D01*
Y119001D01*
X78400Y115003D02*
X75734D01*
X74401Y113670D01*
X75734Y112337D01*
X78400D01*
X76401D01*
Y115003D01*
X74401Y111004D02*
Y108338D01*
Y109671D01*
X78400D01*
X95201Y123000D02*
Y121667D01*
Y122334D01*
X99200D01*
Y123000D01*
Y121667D01*
X95868Y117002D02*
X95201Y117668D01*
Y119001D01*
X95868Y119668D01*
X96534D01*
X97201Y119001D01*
Y117668D01*
X97867Y117002D01*
X98534D01*
X99200Y117668D01*
Y119001D01*
X98534Y119668D01*
X99200Y115669D02*
X95201D01*
Y113670D01*
X95868Y113003D01*
X97201D01*
X97867Y113670D01*
Y115669D01*
X95201Y111670D02*
X99200D01*
Y109671D01*
X98534Y109004D01*
X95868D01*
X95201Y109671D01*
Y111670D01*
X99200Y107672D02*
X96534D01*
X95201Y106339D01*
X96534Y105006D01*
X99200D01*
X97201D01*
Y107672D01*
X88201Y123000D02*
Y121667D01*
Y122334D01*
X92200D01*
Y123000D01*
Y121667D01*
X88868Y117002D02*
X88201Y117668D01*
Y119001D01*
X88868Y119668D01*
X89534D01*
X90201Y119001D01*
Y117668D01*
X90867Y117002D01*
X91534D01*
X92200Y117668D01*
Y119001D01*
X91534Y119668D01*
X92200Y115669D02*
X88201D01*
Y113670D01*
X88868Y113003D01*
X90201D01*
X90867Y113670D01*
Y115669D01*
X88868Y109004D02*
X88201Y109671D01*
Y111004D01*
X88868Y111670D01*
X91534D01*
X92200Y111004D01*
Y109671D01*
X91534Y109004D01*
X88201Y107672D02*
X92200D01*
X90867D01*
X88201Y105006D01*
X90201Y107005D01*
X92200Y105006D01*
X81768Y120334D02*
X81101Y121001D01*
Y122334D01*
X81768Y123000D01*
X84434D01*
X85100Y122334D01*
Y121001D01*
X84434Y120334D01*
X83101D01*
Y121667D01*
X85100Y119001D02*
X81101D01*
X85100Y116335D01*
X81101D01*
Y115003D02*
X85100D01*
Y113003D01*
X84434Y112337D01*
X81768D01*
X81101Y113003D01*
Y115003D01*
X71000Y123000D02*
X67001D01*
X71000Y120334D01*
X67001D01*
X67668Y116335D02*
X67001Y117002D01*
Y118335D01*
X67668Y119001D01*
X70334D01*
X71000Y118335D01*
Y117002D01*
X70334Y116335D01*
D54*
X127040Y108754D02*
X127540D01*
D79*
X116074Y107034D02*
G03*
X117353Y107034I640J0D01*
G01*
X113111D02*
X116074D01*
X113111Y81443D02*
Y107034D01*
Y81443D02*
X120316D01*
Y107034D01*
X117353D02*
X120316D01*
D80*
X104534Y118300D02*
X129534D01*
X104534D02*
Y123300D01*
X129534D01*
Y118300D02*
Y123300D01*
M02*
