G04*
G04 #@! TF.GenerationSoftware,Altium Limited,Altium Designer,20.0.2 (26)*
G04*
G04 Layer_Color=2752767*
%FSLAX25Y25*%
%MOIN*%
G70*
G01*
G75*
%ADD12C,0.00600*%
%ADD82C,0.00200*%
%ADD83C,0.00267*%
%ADD84C,0.00960*%
%ADD85C,0.00667*%
D12*
X231725Y64999D02*
X229344Y61666D01*
X232915D01*
X231725Y64999D02*
Y60000D01*
X237128Y64999D02*
X234748Y60000D01*
X233796Y64999D02*
X237128D01*
X276644Y64047D02*
X277121Y64285D01*
X277835Y64999D01*
Y60000D01*
X280548Y63809D02*
Y64047D01*
X280786Y64523D01*
X281025Y64761D01*
X281501Y64999D01*
X282453D01*
X282929Y64761D01*
X283167Y64523D01*
X283405Y64047D01*
Y63571D01*
X283167Y63095D01*
X282691Y62380D01*
X280310Y60000D01*
X283643D01*
X284762Y63333D02*
Y60000D01*
Y62380D02*
X285476Y63095D01*
X285952Y63333D01*
X286666D01*
X287142Y63095D01*
X287380Y62380D01*
Y60000D01*
Y62380D02*
X288094Y63095D01*
X288570Y63333D01*
X289285D01*
X289761Y63095D01*
X289999Y62380D01*
Y60000D01*
X292046Y64999D02*
X292284Y64761D01*
X292522Y64999D01*
X292284Y65237D01*
X292046Y64999D01*
X292284Y63333D02*
Y60000D01*
X293403Y64999D02*
Y60000D01*
X300044Y65951D02*
X299568Y65475D01*
X299092Y64761D01*
X298616Y63809D01*
X298378Y62618D01*
Y61666D01*
X298616Y60476D01*
X299092Y59524D01*
X299568Y58810D01*
X300044Y58334D01*
X299568Y65475D02*
X299092Y64523D01*
X298854Y63809D01*
X298616Y62618D01*
Y61666D01*
X298854Y60476D01*
X299092Y59762D01*
X299568Y58810D01*
X302425Y64999D02*
X301711Y64761D01*
X301235Y64047D01*
X300996Y62857D01*
Y62142D01*
X301235Y60952D01*
X301711Y60238D01*
X302425Y60000D01*
X302901D01*
X303615Y60238D01*
X304091Y60952D01*
X304329Y62142D01*
Y62857D01*
X304091Y64047D01*
X303615Y64761D01*
X302901Y64999D01*
X302425D01*
X305686Y60476D02*
X305448Y60238D01*
X305686Y60000D01*
X305924Y60238D01*
X305686Y60476D01*
X307495Y64999D02*
X310114D01*
X308685Y63095D01*
X309399D01*
X309875Y62857D01*
X310114Y62618D01*
X310352Y61904D01*
Y61428D01*
X310114Y60714D01*
X309637Y60238D01*
X308923Y60000D01*
X308209D01*
X307495Y60238D01*
X307257Y60476D01*
X307019Y60952D01*
X312899Y64999D02*
X312185Y64761D01*
X311708Y64047D01*
X311470Y62857D01*
Y62142D01*
X311708Y60952D01*
X312185Y60238D01*
X312899Y60000D01*
X313375D01*
X314089Y60238D01*
X314565Y60952D01*
X314803Y62142D01*
Y62857D01*
X314565Y64047D01*
X314089Y64761D01*
X313375Y64999D01*
X312899D01*
X318302D02*
X315922Y61666D01*
X319493D01*
X318302Y64999D02*
Y60000D01*
X321564Y64999D02*
X320849Y64761D01*
X320611Y64285D01*
Y63809D01*
X320849Y63333D01*
X321325Y63095D01*
X322278Y62857D01*
X322992Y62618D01*
X323468Y62142D01*
X323706Y61666D01*
Y60952D01*
X323468Y60476D01*
X323230Y60238D01*
X322516Y60000D01*
X321564D01*
X320849Y60238D01*
X320611Y60476D01*
X320373Y60952D01*
Y61666D01*
X320611Y62142D01*
X321087Y62618D01*
X321801Y62857D01*
X322754Y63095D01*
X323230Y63333D01*
X323468Y63809D01*
Y64285D01*
X323230Y64761D01*
X322516Y64999D01*
X321564D01*
X324825Y63333D02*
Y60000D01*
Y62380D02*
X325539Y63095D01*
X326015Y63333D01*
X326729D01*
X327205Y63095D01*
X327443Y62380D01*
Y60000D01*
Y62380D02*
X328157Y63095D01*
X328633Y63333D01*
X329347D01*
X329824Y63095D01*
X330062Y62380D01*
Y60000D01*
X331633Y63333D02*
Y60000D01*
Y62380D02*
X332347Y63095D01*
X332823Y63333D01*
X333537D01*
X334013Y63095D01*
X334251Y62380D01*
Y60000D01*
Y62380D02*
X334965Y63095D01*
X335441Y63333D01*
X336156D01*
X336632Y63095D01*
X336870Y62380D01*
Y60000D01*
X338441Y65951D02*
X338917Y65475D01*
X339393Y64761D01*
X339869Y63809D01*
X340107Y62618D01*
Y61666D01*
X339869Y60476D01*
X339393Y59524D01*
X338917Y58810D01*
X338441Y58334D01*
X338917Y65475D02*
X339393Y64523D01*
X339631Y63809D01*
X339869Y62618D01*
Y61666D01*
X339631Y60476D01*
X339393Y59762D01*
X338917Y58810D01*
X359337Y62380D02*
X361480D01*
X362194Y62618D01*
X362432Y62857D01*
X362670Y63333D01*
Y64047D01*
X362432Y64523D01*
X362194Y64761D01*
X361480Y64999D01*
X359337D01*
Y60000D01*
X365455Y64999D02*
Y60000D01*
X363789Y64999D02*
X367121D01*
X367716D02*
Y60000D01*
X371049Y64999D02*
Y60000D01*
X367716Y62618D02*
X371049D01*
X391127Y64999D02*
Y60000D01*
Y64999D02*
X393269D01*
X393983Y64761D01*
X394221Y64523D01*
X394459Y64047D01*
Y63571D01*
X394221Y63095D01*
X393983Y62857D01*
X393269Y62618D01*
X391127D01*
X392793D02*
X394459Y60000D01*
X396768Y63333D02*
X396292Y63095D01*
X395816Y62618D01*
X395578Y61904D01*
Y61428D01*
X395816Y60714D01*
X396292Y60238D01*
X396768Y60000D01*
X397482D01*
X397958Y60238D01*
X398435Y60714D01*
X398673Y61428D01*
Y61904D01*
X398435Y62618D01*
X397958Y63095D01*
X397482Y63333D01*
X396768D01*
X399768D02*
Y60952D01*
X400006Y60238D01*
X400482Y60000D01*
X401196D01*
X401672Y60238D01*
X402386Y60952D01*
Y63333D02*
Y60000D01*
X403695Y63333D02*
Y60000D01*
Y62380D02*
X404410Y63095D01*
X404886Y63333D01*
X405600D01*
X406076Y63095D01*
X406314Y62380D01*
Y60000D01*
X410480Y64999D02*
Y60000D01*
Y62618D02*
X410004Y63095D01*
X409527Y63333D01*
X408813D01*
X408337Y63095D01*
X407861Y62618D01*
X407623Y61904D01*
Y61428D01*
X407861Y60714D01*
X408337Y60238D01*
X408813Y60000D01*
X409527D01*
X410004Y60238D01*
X410480Y60714D01*
X229582Y53809D02*
Y54047D01*
X229820Y54523D01*
X230058Y54761D01*
X230534Y54999D01*
X231487D01*
X231963Y54761D01*
X232201Y54523D01*
X232439Y54047D01*
Y53571D01*
X232201Y53095D01*
X231725Y52380D01*
X229344Y50000D01*
X232677D01*
X276644Y54047D02*
X277121Y54285D01*
X277835Y54999D01*
Y50000D01*
X280786Y54999D02*
X283405D01*
X281977Y53095D01*
X282691D01*
X283167Y52856D01*
X283405Y52618D01*
X283643Y51904D01*
Y51428D01*
X283405Y50714D01*
X282929Y50238D01*
X282215Y50000D01*
X281501D01*
X280786Y50238D01*
X280548Y50476D01*
X280310Y50952D01*
X284762Y53333D02*
Y50000D01*
Y52380D02*
X285476Y53095D01*
X285952Y53333D01*
X286666D01*
X287142Y53095D01*
X287380Y52380D01*
Y50000D01*
Y52380D02*
X288094Y53095D01*
X288570Y53333D01*
X289285D01*
X289761Y53095D01*
X289999Y52380D01*
Y50000D01*
X292046Y54999D02*
X292284Y54761D01*
X292522Y54999D01*
X292284Y55237D01*
X292046Y54999D01*
X292284Y53333D02*
Y50000D01*
X293403Y54999D02*
Y50000D01*
X300044Y55951D02*
X299568Y55475D01*
X299092Y54761D01*
X298616Y53809D01*
X298378Y52618D01*
Y51666D01*
X298616Y50476D01*
X299092Y49524D01*
X299568Y48810D01*
X300044Y48334D01*
X299568Y55475D02*
X299092Y54523D01*
X298854Y53809D01*
X298616Y52618D01*
Y51666D01*
X298854Y50476D01*
X299092Y49762D01*
X299568Y48810D01*
X302425Y54999D02*
X301711Y54761D01*
X301235Y54047D01*
X300996Y52856D01*
Y52142D01*
X301235Y50952D01*
X301711Y50238D01*
X302425Y50000D01*
X302901D01*
X303615Y50238D01*
X304091Y50952D01*
X304329Y52142D01*
Y52856D01*
X304091Y54047D01*
X303615Y54761D01*
X302901Y54999D01*
X302425D01*
X305686Y50476D02*
X305448Y50238D01*
X305686Y50000D01*
X305924Y50238D01*
X305686Y50476D01*
X307495Y54999D02*
X310114D01*
X308685Y53095D01*
X309399D01*
X309875Y52856D01*
X310114Y52618D01*
X310352Y51904D01*
Y51428D01*
X310114Y50714D01*
X309637Y50238D01*
X308923Y50000D01*
X308209D01*
X307495Y50238D01*
X307257Y50476D01*
X307019Y50952D01*
X311947Y54999D02*
X314565D01*
X313137Y53095D01*
X313851D01*
X314327Y52856D01*
X314565Y52618D01*
X314803Y51904D01*
Y51428D01*
X314565Y50714D01*
X314089Y50238D01*
X313375Y50000D01*
X312661D01*
X311947Y50238D01*
X311708Y50476D01*
X311470Y50952D01*
X317350Y54999D02*
X316636Y54761D01*
X316160Y54047D01*
X315922Y52856D01*
Y52142D01*
X316160Y50952D01*
X316636Y50238D01*
X317350Y50000D01*
X317826D01*
X318540Y50238D01*
X319016Y50952D01*
X319254Y52142D01*
Y52856D01*
X319016Y54047D01*
X318540Y54761D01*
X317826Y54999D01*
X317350D01*
X320611Y53809D02*
Y54047D01*
X320849Y54523D01*
X321087Y54761D01*
X321564Y54999D01*
X322516D01*
X322992Y54761D01*
X323230Y54523D01*
X323468Y54047D01*
Y53571D01*
X323230Y53095D01*
X322754Y52380D01*
X320373Y50000D01*
X323706D01*
X324825Y53333D02*
Y50000D01*
Y52380D02*
X325539Y53095D01*
X326015Y53333D01*
X326729D01*
X327205Y53095D01*
X327443Y52380D01*
Y50000D01*
Y52380D02*
X328157Y53095D01*
X328633Y53333D01*
X329347D01*
X329824Y53095D01*
X330062Y52380D01*
Y50000D01*
X331633Y53333D02*
Y50000D01*
Y52380D02*
X332347Y53095D01*
X332823Y53333D01*
X333537D01*
X334013Y53095D01*
X334251Y52380D01*
Y50000D01*
Y52380D02*
X334965Y53095D01*
X335441Y53333D01*
X336156D01*
X336632Y53095D01*
X336870Y52380D01*
Y50000D01*
X338441Y55951D02*
X338917Y55475D01*
X339393Y54761D01*
X339869Y53809D01*
X340107Y52618D01*
Y51666D01*
X339869Y50476D01*
X339393Y49524D01*
X338917Y48810D01*
X338441Y48334D01*
X338917Y55475D02*
X339393Y54523D01*
X339631Y53809D01*
X339869Y52618D01*
Y51666D01*
X339631Y50476D01*
X339393Y49762D01*
X338917Y48810D01*
X359337Y52380D02*
X361480D01*
X362194Y52618D01*
X362432Y52856D01*
X362670Y53333D01*
Y54047D01*
X362432Y54523D01*
X362194Y54761D01*
X361480Y54999D01*
X359337D01*
Y50000D01*
X365455Y54999D02*
Y50000D01*
X363789Y54999D02*
X367121D01*
X367716D02*
Y50000D01*
X371049Y54999D02*
Y50000D01*
X367716Y52618D02*
X371049D01*
X391127Y54999D02*
Y50000D01*
Y54999D02*
X393269D01*
X393983Y54761D01*
X394221Y54523D01*
X394459Y54047D01*
Y53571D01*
X394221Y53095D01*
X393983Y52856D01*
X393269Y52618D01*
X391127D01*
X392793D02*
X394459Y50000D01*
X396768Y53333D02*
X396292Y53095D01*
X395816Y52618D01*
X395578Y51904D01*
Y51428D01*
X395816Y50714D01*
X396292Y50238D01*
X396768Y50000D01*
X397482D01*
X397958Y50238D01*
X398435Y50714D01*
X398673Y51428D01*
Y51904D01*
X398435Y52618D01*
X397958Y53095D01*
X397482Y53333D01*
X396768D01*
X399768D02*
Y50952D01*
X400006Y50238D01*
X400482Y50000D01*
X401196D01*
X401672Y50238D01*
X402386Y50952D01*
Y53333D02*
Y50000D01*
X403695Y53333D02*
Y50000D01*
Y52380D02*
X404410Y53095D01*
X404886Y53333D01*
X405600D01*
X406076Y53095D01*
X406314Y52380D01*
Y50000D01*
X410480Y54999D02*
Y50000D01*
Y52618D02*
X410004Y53095D01*
X409527Y53333D01*
X408813D01*
X408337Y53095D01*
X407861Y52618D01*
X407623Y51904D01*
Y51428D01*
X407861Y50714D01*
X408337Y50238D01*
X408813Y50000D01*
X409527D01*
X410004Y50238D01*
X410480Y50714D01*
X230534Y44999D02*
X229820Y44761D01*
X229582Y44285D01*
Y43809D01*
X229820Y43333D01*
X230296Y43095D01*
X231248Y42856D01*
X231963Y42619D01*
X232439Y42142D01*
X232677Y41666D01*
Y40952D01*
X232439Y40476D01*
X232201Y40238D01*
X231487Y40000D01*
X230534D01*
X229820Y40238D01*
X229582Y40476D01*
X229344Y40952D01*
Y41666D01*
X229582Y42142D01*
X230058Y42619D01*
X230772Y42856D01*
X231725Y43095D01*
X232201Y43333D01*
X232439Y43809D01*
Y44285D01*
X232201Y44761D01*
X231487Y44999D01*
X230534D01*
X276883Y43809D02*
Y44047D01*
X277121Y44523D01*
X277359Y44761D01*
X277835Y44999D01*
X278787D01*
X279263Y44761D01*
X279501Y44523D01*
X279739Y44047D01*
Y43571D01*
X279501Y43095D01*
X279025Y42380D01*
X276644Y40000D01*
X279977D01*
X281572Y44999D02*
X284191D01*
X282762Y43095D01*
X283476D01*
X283952Y42856D01*
X284191Y42619D01*
X284429Y41904D01*
Y41428D01*
X284191Y40714D01*
X283714Y40238D01*
X283000Y40000D01*
X282286D01*
X281572Y40238D01*
X281334Y40476D01*
X281096Y40952D01*
X285785Y40476D02*
X285547Y40238D01*
X285785Y40000D01*
X286023Y40238D01*
X285785Y40476D01*
X289975Y44285D02*
X289737Y44761D01*
X289023Y44999D01*
X288547D01*
X287833Y44761D01*
X287356Y44047D01*
X287119Y42856D01*
Y41666D01*
X287356Y40714D01*
X287833Y40238D01*
X288547Y40000D01*
X288785D01*
X289499Y40238D01*
X289975Y40714D01*
X290213Y41428D01*
Y41666D01*
X289975Y42380D01*
X289499Y42856D01*
X288785Y43095D01*
X288547D01*
X287833Y42856D01*
X287356Y42380D01*
X287119Y41666D01*
X291546Y43809D02*
Y44047D01*
X291784Y44523D01*
X292022Y44761D01*
X292498Y44999D01*
X293450D01*
X293927Y44761D01*
X294165Y44523D01*
X294403Y44047D01*
Y43571D01*
X294165Y43095D01*
X293689Y42380D01*
X291308Y40000D01*
X294641D01*
X295760Y43333D02*
Y40000D01*
Y42380D02*
X296474Y43095D01*
X296950Y43333D01*
X297664D01*
X298140Y43095D01*
X298378Y42380D01*
Y40000D01*
Y42380D02*
X299092Y43095D01*
X299568Y43333D01*
X300282D01*
X300758Y43095D01*
X300996Y42380D01*
Y40000D01*
X303044Y44999D02*
X303282Y44761D01*
X303520Y44999D01*
X303282Y45237D01*
X303044Y44999D01*
X303282Y43333D02*
Y40000D01*
X304400Y44999D02*
Y40000D01*
X311042Y45951D02*
X310566Y45475D01*
X310090Y44761D01*
X309614Y43809D01*
X309376Y42619D01*
Y41666D01*
X309614Y40476D01*
X310090Y39524D01*
X310566Y38810D01*
X311042Y38334D01*
X310566Y45475D02*
X310090Y44523D01*
X309852Y43809D01*
X309614Y42619D01*
Y41666D01*
X309852Y40476D01*
X310090Y39762D01*
X310566Y38810D01*
X313422Y44999D02*
X312708Y44761D01*
X312232Y44047D01*
X311994Y42856D01*
Y42142D01*
X312232Y40952D01*
X312708Y40238D01*
X313422Y40000D01*
X313898D01*
X314613Y40238D01*
X315089Y40952D01*
X315327Y42142D01*
Y42856D01*
X315089Y44047D01*
X314613Y44761D01*
X313898Y44999D01*
X313422D01*
X316684Y40476D02*
X316445Y40238D01*
X316684Y40000D01*
X316922Y40238D01*
X316684Y40476D01*
X320873Y44999D02*
X318493D01*
X318255Y42856D01*
X318493Y43095D01*
X319207Y43333D01*
X319921D01*
X320635Y43095D01*
X321111Y42619D01*
X321349Y41904D01*
Y41428D01*
X321111Y40714D01*
X320635Y40238D01*
X319921Y40000D01*
X319207D01*
X318493Y40238D01*
X318255Y40476D01*
X318017Y40952D01*
X325563Y43333D02*
X325325Y42619D01*
X324849Y42142D01*
X324134Y41904D01*
X323896D01*
X323182Y42142D01*
X322706Y42619D01*
X322468Y43333D01*
Y43571D01*
X322706Y44285D01*
X323182Y44761D01*
X323896Y44999D01*
X324134D01*
X324849Y44761D01*
X325325Y44285D01*
X325563Y43333D01*
Y42142D01*
X325325Y40952D01*
X324849Y40238D01*
X324134Y40000D01*
X323658D01*
X322944Y40238D01*
X322706Y40714D01*
X330014Y43333D02*
X329776Y42619D01*
X329300Y42142D01*
X328586Y41904D01*
X328348D01*
X327634Y42142D01*
X327157Y42619D01*
X326920Y43333D01*
Y43571D01*
X327157Y44285D01*
X327634Y44761D01*
X328348Y44999D01*
X328586D01*
X329300Y44761D01*
X329776Y44285D01*
X330014Y43333D01*
Y42142D01*
X329776Y40952D01*
X329300Y40238D01*
X328586Y40000D01*
X328110D01*
X327396Y40238D01*
X327157Y40714D01*
X334466Y43333D02*
X334227Y42619D01*
X333751Y42142D01*
X333037Y41904D01*
X332799D01*
X332085Y42142D01*
X331609Y42619D01*
X331371Y43333D01*
Y43571D01*
X331609Y44285D01*
X332085Y44761D01*
X332799Y44999D01*
X333037D01*
X333751Y44761D01*
X334227Y44285D01*
X334466Y43333D01*
Y42142D01*
X334227Y40952D01*
X333751Y40238D01*
X333037Y40000D01*
X332561D01*
X331847Y40238D01*
X331609Y40714D01*
X338679Y44999D02*
X336298D01*
X336060Y42856D01*
X336298Y43095D01*
X337013Y43333D01*
X337727D01*
X338441Y43095D01*
X338917Y42619D01*
X339155Y41904D01*
Y41428D01*
X338917Y40714D01*
X338441Y40238D01*
X337727Y40000D01*
X337013D01*
X336298Y40238D01*
X336060Y40476D01*
X335822Y40952D01*
X340274Y43333D02*
Y40000D01*
Y42380D02*
X340988Y43095D01*
X341464Y43333D01*
X342178D01*
X342654Y43095D01*
X342892Y42380D01*
Y40000D01*
Y42380D02*
X343606Y43095D01*
X344082Y43333D01*
X344797D01*
X345273Y43095D01*
X345511Y42380D01*
Y40000D01*
X347082Y43333D02*
Y40000D01*
Y42380D02*
X347796Y43095D01*
X348272Y43333D01*
X348986D01*
X349462Y43095D01*
X349700Y42380D01*
Y40000D01*
Y42380D02*
X350414Y43095D01*
X350890Y43333D01*
X351605D01*
X352081Y43095D01*
X352319Y42380D01*
Y40000D01*
X353890Y45951D02*
X354366Y45475D01*
X354842Y44761D01*
X355318Y43809D01*
X355556Y42619D01*
Y41666D01*
X355318Y40476D01*
X354842Y39524D01*
X354366Y38810D01*
X353890Y38334D01*
X354366Y45475D02*
X354842Y44523D01*
X355080Y43809D01*
X355318Y42619D01*
Y41666D01*
X355080Y40476D01*
X354842Y39762D01*
X354366Y38810D01*
X359337Y42380D02*
X361480D01*
X362194Y42619D01*
X362432Y42856D01*
X362670Y43333D01*
Y44047D01*
X362432Y44523D01*
X362194Y44761D01*
X361480Y44999D01*
X359337D01*
Y40000D01*
X365455Y44999D02*
Y40000D01*
X363789Y44999D02*
X367121D01*
X367716D02*
Y40000D01*
X371049Y44999D02*
Y40000D01*
X367716Y42619D02*
X371049D01*
X391127Y44999D02*
Y40000D01*
Y44999D02*
X393269D01*
X393983Y44761D01*
X394221Y44523D01*
X394459Y44047D01*
Y43571D01*
X394221Y43095D01*
X393983Y42856D01*
X393269Y42619D01*
X391127D01*
X392793D02*
X394459Y40000D01*
X396768Y43333D02*
X396292Y43095D01*
X395816Y42619D01*
X395578Y41904D01*
Y41428D01*
X395816Y40714D01*
X396292Y40238D01*
X396768Y40000D01*
X397482D01*
X397958Y40238D01*
X398435Y40714D01*
X398673Y41428D01*
Y41904D01*
X398435Y42619D01*
X397958Y43095D01*
X397482Y43333D01*
X396768D01*
X399768D02*
Y40952D01*
X400006Y40238D01*
X400482Y40000D01*
X401196D01*
X401672Y40238D01*
X402386Y40952D01*
Y43333D02*
Y40000D01*
X403695Y43333D02*
Y40000D01*
Y42380D02*
X404410Y43095D01*
X404886Y43333D01*
X405600D01*
X406076Y43095D01*
X406314Y42380D01*
Y40000D01*
X410480Y44999D02*
Y40000D01*
Y42619D02*
X410004Y43095D01*
X409527Y43333D01*
X408813D01*
X408337Y43095D01*
X407861Y42619D01*
X407623Y41904D01*
Y41428D01*
X407861Y40714D01*
X408337Y40238D01*
X408813Y40000D01*
X409527D01*
X410004Y40238D01*
X410480Y40714D01*
X232201Y34999D02*
X229820D01*
X229582Y32857D01*
X229820Y33095D01*
X230534Y33333D01*
X231248D01*
X231963Y33095D01*
X232439Y32618D01*
X232677Y31904D01*
Y31428D01*
X232439Y30714D01*
X231963Y30238D01*
X231248Y30000D01*
X230534D01*
X229820Y30238D01*
X229582Y30476D01*
X229344Y30952D01*
X276883Y33809D02*
Y34047D01*
X277121Y34523D01*
X277359Y34761D01*
X277835Y34999D01*
X278787D01*
X279263Y34761D01*
X279501Y34523D01*
X279739Y34047D01*
Y33571D01*
X279501Y33095D01*
X279025Y32380D01*
X276644Y30000D01*
X279977D01*
X281572Y34999D02*
X284191D01*
X282762Y33095D01*
X283476D01*
X283952Y32857D01*
X284191Y32618D01*
X284429Y31904D01*
Y31428D01*
X284191Y30714D01*
X283714Y30238D01*
X283000Y30000D01*
X282286D01*
X281572Y30238D01*
X281334Y30476D01*
X281096Y30952D01*
X285785Y30476D02*
X285547Y30238D01*
X285785Y30000D01*
X286023Y30238D01*
X285785Y30476D01*
X289975Y34285D02*
X289737Y34761D01*
X289023Y34999D01*
X288547D01*
X287833Y34761D01*
X287356Y34047D01*
X287119Y32857D01*
Y31666D01*
X287356Y30714D01*
X287833Y30238D01*
X288547Y30000D01*
X288785D01*
X289499Y30238D01*
X289975Y30714D01*
X290213Y31428D01*
Y31666D01*
X289975Y32380D01*
X289499Y32857D01*
X288785Y33095D01*
X288547D01*
X287833Y32857D01*
X287356Y32380D01*
X287119Y31666D01*
X291546Y33809D02*
Y34047D01*
X291784Y34523D01*
X292022Y34761D01*
X292498Y34999D01*
X293450D01*
X293927Y34761D01*
X294165Y34523D01*
X294403Y34047D01*
Y33571D01*
X294165Y33095D01*
X293689Y32380D01*
X291308Y30000D01*
X294641D01*
X295998Y33809D02*
Y34047D01*
X296236Y34523D01*
X296474Y34761D01*
X296950Y34999D01*
X297902D01*
X298378Y34761D01*
X298616Y34523D01*
X298854Y34047D01*
Y33571D01*
X298616Y33095D01*
X298140Y32380D01*
X295760Y30000D01*
X299092D01*
X300211Y33333D02*
Y30000D01*
Y32380D02*
X300925Y33095D01*
X301401Y33333D01*
X302115D01*
X302591Y33095D01*
X302829Y32380D01*
Y30000D01*
Y32380D02*
X303543Y33095D01*
X304020Y33333D01*
X304734D01*
X305210Y33095D01*
X305448Y32380D01*
Y30000D01*
X307495Y34999D02*
X307733Y34761D01*
X307971Y34999D01*
X307733Y35237D01*
X307495Y34999D01*
X307733Y33333D02*
Y30000D01*
X308852Y34999D02*
Y30000D01*
X315493Y35951D02*
X315017Y35475D01*
X314541Y34761D01*
X314065Y33809D01*
X313827Y32618D01*
Y31666D01*
X314065Y30476D01*
X314541Y29524D01*
X315017Y28810D01*
X315493Y28334D01*
X315017Y35475D02*
X314541Y34523D01*
X314303Y33809D01*
X314065Y32618D01*
Y31666D01*
X314303Y30476D01*
X314541Y29762D01*
X315017Y28810D01*
X317874Y34999D02*
X317160Y34761D01*
X316684Y34047D01*
X316445Y32857D01*
Y32142D01*
X316684Y30952D01*
X317160Y30238D01*
X317874Y30000D01*
X318350D01*
X319064Y30238D01*
X319540Y30952D01*
X319778Y32142D01*
Y32857D01*
X319540Y34047D01*
X319064Y34761D01*
X318350Y34999D01*
X317874D01*
X321135Y30476D02*
X320897Y30238D01*
X321135Y30000D01*
X321373Y30238D01*
X321135Y30476D01*
X325325Y34285D02*
X325086Y34761D01*
X324372Y34999D01*
X323896D01*
X323182Y34761D01*
X322706Y34047D01*
X322468Y32857D01*
Y31666D01*
X322706Y30714D01*
X323182Y30238D01*
X323896Y30000D01*
X324134D01*
X324849Y30238D01*
X325325Y30714D01*
X325563Y31428D01*
Y31666D01*
X325325Y32380D01*
X324849Y32857D01*
X324134Y33095D01*
X323896D01*
X323182Y32857D01*
X322706Y32380D01*
X322468Y31666D01*
X326658Y33333D02*
Y30000D01*
Y32380D02*
X327372Y33095D01*
X327848Y33333D01*
X328562D01*
X329038Y33095D01*
X329276Y32380D01*
Y30000D01*
Y32380D02*
X329990Y33095D01*
X330466Y33333D01*
X331181D01*
X331657Y33095D01*
X331895Y32380D01*
Y30000D01*
X333466Y33333D02*
Y30000D01*
Y32380D02*
X334180Y33095D01*
X334656Y33333D01*
X335370D01*
X335846Y33095D01*
X336084Y32380D01*
Y30000D01*
Y32380D02*
X336798Y33095D01*
X337274Y33333D01*
X337988D01*
X338465Y33095D01*
X338703Y32380D01*
Y30000D01*
X340274Y35951D02*
X340750Y35475D01*
X341226Y34761D01*
X341702Y33809D01*
X341940Y32618D01*
Y31666D01*
X341702Y30476D01*
X341226Y29524D01*
X340750Y28810D01*
X340274Y28334D01*
X340750Y35475D02*
X341226Y34523D01*
X341464Y33809D01*
X341702Y32618D01*
Y31666D01*
X341464Y30476D01*
X341226Y29762D01*
X340750Y28810D01*
X359337Y32380D02*
X361480D01*
X362194Y32618D01*
X362432Y32857D01*
X362670Y33333D01*
Y34047D01*
X362432Y34523D01*
X362194Y34761D01*
X361480Y34999D01*
X359337D01*
Y30000D01*
X365455Y34999D02*
Y30000D01*
X363789Y34999D02*
X367121D01*
X367716D02*
Y30000D01*
X371049Y34999D02*
Y30000D01*
X367716Y32618D02*
X371049D01*
X391127Y34999D02*
Y30000D01*
Y34999D02*
X393269D01*
X393983Y34761D01*
X394221Y34523D01*
X394459Y34047D01*
Y33571D01*
X394221Y33095D01*
X393983Y32857D01*
X393269Y32618D01*
X391127D01*
X392793D02*
X394459Y30000D01*
X396768Y33333D02*
X396292Y33095D01*
X395816Y32618D01*
X395578Y31904D01*
Y31428D01*
X395816Y30714D01*
X396292Y30238D01*
X396768Y30000D01*
X397482D01*
X397958Y30238D01*
X398435Y30714D01*
X398673Y31428D01*
Y31904D01*
X398435Y32618D01*
X397958Y33095D01*
X397482Y33333D01*
X396768D01*
X399768D02*
Y30952D01*
X400006Y30238D01*
X400482Y30000D01*
X401196D01*
X401672Y30238D01*
X402386Y30952D01*
Y33333D02*
Y30000D01*
X403695Y33333D02*
Y30000D01*
Y32380D02*
X404410Y33095D01*
X404886Y33333D01*
X405600D01*
X406076Y33095D01*
X406314Y32380D01*
Y30000D01*
X410480Y34999D02*
Y30000D01*
Y32618D02*
X410004Y33095D01*
X409527Y33333D01*
X408813D01*
X408337Y33095D01*
X407861Y32618D01*
X407623Y31904D01*
Y31428D01*
X407861Y30714D01*
X408337Y30238D01*
X408813Y30000D01*
X409527D01*
X410004Y30238D01*
X410480Y30714D01*
X229582Y23809D02*
Y24047D01*
X229820Y24523D01*
X230058Y24761D01*
X230534Y24999D01*
X231487D01*
X231963Y24761D01*
X232201Y24523D01*
X232439Y24047D01*
Y23571D01*
X232201Y23095D01*
X231725Y22380D01*
X229344Y20000D01*
X232677D01*
X277121Y24999D02*
X279739D01*
X278311Y23095D01*
X279025D01*
X279501Y22857D01*
X279739Y22618D01*
X279977Y21904D01*
Y21428D01*
X279739Y20714D01*
X279263Y20238D01*
X278549Y20000D01*
X277835D01*
X277121Y20238D01*
X276883Y20476D01*
X276644Y20952D01*
X284191Y23333D02*
X283952Y22618D01*
X283476Y22142D01*
X282762Y21904D01*
X282524D01*
X281810Y22142D01*
X281334Y22618D01*
X281096Y23333D01*
Y23571D01*
X281334Y24285D01*
X281810Y24761D01*
X282524Y24999D01*
X282762D01*
X283476Y24761D01*
X283952Y24285D01*
X284191Y23333D01*
Y22142D01*
X283952Y20952D01*
X283476Y20238D01*
X282762Y20000D01*
X282286D01*
X281572Y20238D01*
X281334Y20714D01*
X285785Y20476D02*
X285547Y20238D01*
X285785Y20000D01*
X286023Y20238D01*
X285785Y20476D01*
X287595Y24999D02*
X290213D01*
X288785Y23095D01*
X289499D01*
X289975Y22857D01*
X290213Y22618D01*
X290451Y21904D01*
Y21428D01*
X290213Y20714D01*
X289737Y20238D01*
X289023Y20000D01*
X288309D01*
X287595Y20238D01*
X287356Y20476D01*
X287119Y20952D01*
X294902Y24999D02*
X292522Y20000D01*
X291570Y24999D02*
X294902D01*
X296021Y23333D02*
Y20000D01*
Y22380D02*
X296735Y23095D01*
X297212Y23333D01*
X297926D01*
X298402Y23095D01*
X298640Y22380D01*
Y20000D01*
Y22380D02*
X299354Y23095D01*
X299830Y23333D01*
X300544D01*
X301020Y23095D01*
X301258Y22380D01*
Y20000D01*
X303306Y24999D02*
X303543Y24761D01*
X303782Y24999D01*
X303543Y25237D01*
X303306Y24999D01*
X303543Y23333D02*
Y20000D01*
X304662Y24999D02*
Y20000D01*
X311304Y25951D02*
X310828Y25475D01*
X310352Y24761D01*
X309875Y23809D01*
X309637Y22618D01*
Y21666D01*
X309875Y20476D01*
X310352Y19524D01*
X310828Y18810D01*
X311304Y18334D01*
X310828Y25475D02*
X310352Y24523D01*
X310114Y23809D01*
X309875Y22618D01*
Y21666D01*
X310114Y20476D01*
X310352Y19762D01*
X310828Y18810D01*
X312256Y24047D02*
X312732Y24285D01*
X313446Y24999D01*
Y20000D01*
X315922Y23333D02*
Y20000D01*
Y22380D02*
X316636Y23095D01*
X317112Y23333D01*
X317826D01*
X318302Y23095D01*
X318540Y22380D01*
Y20000D01*
Y22380D02*
X319254Y23095D01*
X319730Y23333D01*
X320445D01*
X320921Y23095D01*
X321159Y22380D01*
Y20000D01*
X322730Y23333D02*
Y20000D01*
Y22380D02*
X323444Y23095D01*
X323920Y23333D01*
X324634D01*
X325110Y23095D01*
X325348Y22380D01*
Y20000D01*
Y22380D02*
X326062Y23095D01*
X326539Y23333D01*
X327253D01*
X327729Y23095D01*
X327967Y22380D01*
Y20000D01*
X329538Y25951D02*
X330014Y25475D01*
X330490Y24761D01*
X330966Y23809D01*
X331204Y22618D01*
Y21666D01*
X330966Y20476D01*
X330490Y19524D01*
X330014Y18810D01*
X329538Y18334D01*
X330014Y25475D02*
X330490Y24523D01*
X330728Y23809D01*
X330966Y22618D01*
Y21666D01*
X330728Y20476D01*
X330490Y19762D01*
X330014Y18810D01*
X359337Y22380D02*
X361480D01*
X362194Y22618D01*
X362432Y22857D01*
X362670Y23333D01*
Y24047D01*
X362432Y24523D01*
X362194Y24761D01*
X361480Y24999D01*
X359337D01*
Y20000D01*
X365455Y24999D02*
Y20000D01*
X363789Y24999D02*
X367121D01*
X367716D02*
Y20000D01*
X371049Y24999D02*
Y20000D01*
X367716Y22618D02*
X371049D01*
X391127Y24999D02*
Y20000D01*
Y24999D02*
X393269D01*
X393983Y24761D01*
X394221Y24523D01*
X394459Y24047D01*
Y23571D01*
X394221Y23095D01*
X393983Y22857D01*
X393269Y22618D01*
X391127D01*
X392793D02*
X394459Y20000D01*
X396768Y23333D02*
X396292Y23095D01*
X395816Y22618D01*
X395578Y21904D01*
Y21428D01*
X395816Y20714D01*
X396292Y20238D01*
X396768Y20000D01*
X397482D01*
X397958Y20238D01*
X398435Y20714D01*
X398673Y21428D01*
Y21904D01*
X398435Y22618D01*
X397958Y23095D01*
X397482Y23333D01*
X396768D01*
X399768D02*
Y20952D01*
X400006Y20238D01*
X400482Y20000D01*
X401196D01*
X401672Y20238D01*
X402386Y20952D01*
Y23333D02*
Y20000D01*
X403695Y23333D02*
Y20000D01*
Y22380D02*
X404410Y23095D01*
X404886Y23333D01*
X405600D01*
X406076Y23095D01*
X406314Y22380D01*
Y20000D01*
X410480Y24999D02*
Y20000D01*
Y22618D02*
X410004Y23095D01*
X409527Y23333D01*
X408813D01*
X408337Y23095D01*
X407861Y22618D01*
X407623Y21904D01*
Y21428D01*
X407861Y20714D01*
X408337Y20238D01*
X408813Y20000D01*
X409527D01*
X410004Y20238D01*
X410480Y20714D01*
X229582Y13809D02*
Y14047D01*
X229820Y14523D01*
X230058Y14761D01*
X230534Y14999D01*
X231487D01*
X231963Y14761D01*
X232201Y14523D01*
X232439Y14047D01*
Y13571D01*
X232201Y13095D01*
X231725Y12380D01*
X229344Y10000D01*
X232677D01*
X279977Y14999D02*
X277597Y10000D01*
X276644Y14999D02*
X279977D01*
X282524D02*
X281810Y14761D01*
X281334Y14047D01*
X281096Y12856D01*
Y12142D01*
X281334Y10952D01*
X281810Y10238D01*
X282524Y10000D01*
X283000D01*
X283714Y10238D01*
X284191Y10952D01*
X284429Y12142D01*
Y12856D01*
X284191Y14047D01*
X283714Y14761D01*
X283000Y14999D01*
X282524D01*
X285785Y10476D02*
X285547Y10238D01*
X285785Y10000D01*
X286023Y10238D01*
X285785Y10476D01*
X288309Y14999D02*
X287595Y14761D01*
X287356Y14285D01*
Y13809D01*
X287595Y13333D01*
X288071Y13095D01*
X289023Y12856D01*
X289737Y12618D01*
X290213Y12142D01*
X290451Y11666D01*
Y10952D01*
X290213Y10476D01*
X289975Y10238D01*
X289261Y10000D01*
X288309D01*
X287595Y10238D01*
X287356Y10476D01*
X287119Y10952D01*
Y11666D01*
X287356Y12142D01*
X287833Y12618D01*
X288547Y12856D01*
X289499Y13095D01*
X289975Y13333D01*
X290213Y13809D01*
Y14285D01*
X289975Y14761D01*
X289261Y14999D01*
X288309D01*
X294426Y14285D02*
X294188Y14761D01*
X293474Y14999D01*
X292998D01*
X292284Y14761D01*
X291808Y14047D01*
X291570Y12856D01*
Y11666D01*
X291808Y10714D01*
X292284Y10238D01*
X292998Y10000D01*
X293236D01*
X293950Y10238D01*
X294426Y10714D01*
X294665Y11428D01*
Y11666D01*
X294426Y12380D01*
X293950Y12856D01*
X293236Y13095D01*
X292998D01*
X292284Y12856D01*
X291808Y12380D01*
X291570Y11666D01*
X298616Y14285D02*
X298378Y14761D01*
X297664Y14999D01*
X297188D01*
X296474Y14761D01*
X295998Y14047D01*
X295760Y12856D01*
Y11666D01*
X295998Y10714D01*
X296474Y10238D01*
X297188Y10000D01*
X297426D01*
X298140Y10238D01*
X298616Y10714D01*
X298854Y11428D01*
Y11666D01*
X298616Y12380D01*
X298140Y12856D01*
X297426Y13095D01*
X297188D01*
X296474Y12856D01*
X295998Y12380D01*
X295760Y11666D01*
X299949Y13333D02*
Y10000D01*
Y12380D02*
X300663Y13095D01*
X301139Y13333D01*
X301853D01*
X302329Y13095D01*
X302568Y12380D01*
Y10000D01*
Y12380D02*
X303282Y13095D01*
X303758Y13333D01*
X304472D01*
X304948Y13095D01*
X305186Y12380D01*
Y10000D01*
X307233Y14999D02*
X307471Y14761D01*
X307709Y14999D01*
X307471Y15237D01*
X307233Y14999D01*
X307471Y13333D02*
Y10000D01*
X308590Y14999D02*
Y10000D01*
X315231Y15951D02*
X314755Y15475D01*
X314279Y14761D01*
X313803Y13809D01*
X313565Y12618D01*
Y11666D01*
X313803Y10476D01*
X314279Y9524D01*
X314755Y8810D01*
X315231Y8334D01*
X314755Y15475D02*
X314279Y14523D01*
X314041Y13809D01*
X313803Y12618D01*
Y11666D01*
X314041Y10476D01*
X314279Y9762D01*
X314755Y8810D01*
X316184Y14047D02*
X316660Y14285D01*
X317374Y14999D01*
Y10000D01*
X320088Y10476D02*
X319849Y10238D01*
X320088Y10000D01*
X320326Y10238D01*
X320088Y10476D01*
X322611Y14999D02*
X321897Y14761D01*
X321659Y14285D01*
Y13809D01*
X321897Y13333D01*
X322373Y13095D01*
X323325Y12856D01*
X324039Y12618D01*
X324515Y12142D01*
X324753Y11666D01*
Y10952D01*
X324515Y10476D01*
X324277Y10238D01*
X323563Y10000D01*
X322611D01*
X321897Y10238D01*
X321659Y10476D01*
X321421Y10952D01*
Y11666D01*
X321659Y12142D01*
X322135Y12618D01*
X322849Y12856D01*
X323801Y13095D01*
X324277Y13333D01*
X324515Y13809D01*
Y14285D01*
X324277Y14761D01*
X323563Y14999D01*
X322611D01*
X325872Y13333D02*
Y10000D01*
Y12380D02*
X326586Y13095D01*
X327062Y13333D01*
X327776D01*
X328253Y13095D01*
X328491Y12380D01*
Y10000D01*
Y12380D02*
X329205Y13095D01*
X329681Y13333D01*
X330395D01*
X330871Y13095D01*
X331109Y12380D01*
Y10000D01*
X332680Y13333D02*
Y10000D01*
Y12380D02*
X333394Y13095D01*
X333870Y13333D01*
X334584D01*
X335061Y13095D01*
X335299Y12380D01*
Y10000D01*
Y12380D02*
X336013Y13095D01*
X336489Y13333D01*
X337203D01*
X337679Y13095D01*
X337917Y12380D01*
Y10000D01*
X339488Y15951D02*
X339964Y15475D01*
X340440Y14761D01*
X340916Y13809D01*
X341155Y12618D01*
Y11666D01*
X340916Y10476D01*
X340440Y9524D01*
X339964Y8810D01*
X339488Y8334D01*
X339964Y15475D02*
X340440Y14523D01*
X340678Y13809D01*
X340916Y12618D01*
Y11666D01*
X340678Y10476D01*
X340440Y9762D01*
X339964Y8810D01*
X359337Y12380D02*
X361480D01*
X362194Y12618D01*
X362432Y12856D01*
X362670Y13333D01*
Y14047D01*
X362432Y14523D01*
X362194Y14761D01*
X361480Y14999D01*
X359337D01*
Y10000D01*
X365455Y14999D02*
Y10000D01*
X363789Y14999D02*
X367121D01*
X367716D02*
Y10000D01*
X371049Y14999D02*
Y10000D01*
X367716Y12618D02*
X371049D01*
X391127Y14999D02*
Y10000D01*
Y14999D02*
X393269D01*
X393983Y14761D01*
X394221Y14523D01*
X394459Y14047D01*
Y13571D01*
X394221Y13095D01*
X393983Y12856D01*
X393269Y12618D01*
X391127D01*
X392793D02*
X394459Y10000D01*
X396768Y13333D02*
X396292Y13095D01*
X395816Y12618D01*
X395578Y11904D01*
Y11428D01*
X395816Y10714D01*
X396292Y10238D01*
X396768Y10000D01*
X397482D01*
X397958Y10238D01*
X398435Y10714D01*
X398673Y11428D01*
Y11904D01*
X398435Y12618D01*
X397958Y13095D01*
X397482Y13333D01*
X396768D01*
X399768D02*
Y10952D01*
X400006Y10238D01*
X400482Y10000D01*
X401196D01*
X401672Y10238D01*
X402386Y10952D01*
Y13333D02*
Y10000D01*
X403695Y13333D02*
Y10000D01*
Y12380D02*
X404410Y13095D01*
X404886Y13333D01*
X405600D01*
X406076Y13095D01*
X406314Y12380D01*
Y10000D01*
X410480Y14999D02*
Y10000D01*
Y12618D02*
X410004Y13095D01*
X409527Y13333D01*
X408813D01*
X408337Y13095D01*
X407861Y12618D01*
X407623Y11904D01*
Y11428D01*
X407861Y10714D01*
X408337Y10238D01*
X408813Y10000D01*
X409527D01*
X410004Y10238D01*
X410480Y10714D01*
X232201Y4285D02*
X231963Y4761D01*
X231248Y4999D01*
X230772D01*
X230058Y4761D01*
X229582Y4047D01*
X229344Y2857D01*
Y1666D01*
X229582Y714D01*
X230058Y238D01*
X230772Y0D01*
X231011D01*
X231725Y238D01*
X232201Y714D01*
X232439Y1428D01*
Y1666D01*
X232201Y2380D01*
X231725Y2857D01*
X231011Y3095D01*
X230772D01*
X230058Y2857D01*
X229582Y2380D01*
X229344Y1666D01*
X236390Y4285D02*
X236152Y4761D01*
X235438Y4999D01*
X234962D01*
X234248Y4761D01*
X233772Y4047D01*
X233534Y2857D01*
Y1666D01*
X233772Y714D01*
X234248Y238D01*
X234962Y0D01*
X235200D01*
X235914Y238D01*
X236390Y714D01*
X236628Y1428D01*
Y1666D01*
X236390Y2380D01*
X235914Y2857D01*
X235200Y3095D01*
X234962D01*
X234248Y2857D01*
X233772Y2380D01*
X233534Y1666D01*
X246455Y4999D02*
Y0D01*
X244788Y4999D02*
X248121D01*
X249906Y3333D02*
X249430Y3095D01*
X248954Y2619D01*
X248716Y1904D01*
Y1428D01*
X248954Y714D01*
X249430Y238D01*
X249906Y0D01*
X250620D01*
X251097Y238D01*
X251573Y714D01*
X251811Y1428D01*
Y1904D01*
X251573Y2619D01*
X251097Y3095D01*
X250620Y3333D01*
X249906D01*
X253620Y4999D02*
Y952D01*
X253858Y238D01*
X254334Y0D01*
X254810D01*
X252906Y3333D02*
X254572D01*
X258381D02*
Y0D01*
Y2619D02*
X257905Y3095D01*
X257429Y3333D01*
X256714D01*
X256238Y3095D01*
X255762Y2619D01*
X255524Y1904D01*
Y1428D01*
X255762Y714D01*
X256238Y238D01*
X256714Y0D01*
X257429D01*
X257905Y238D01*
X258381Y714D01*
X259714Y4999D02*
Y0D01*
D82*
X36100Y13278D02*
Y14878D01*
X37700D01*
Y13278D01*
X36100D01*
Y18200D02*
Y19800D01*
X37700D01*
Y18200D01*
X36100D01*
X20100Y55922D02*
Y57522D01*
X21700D01*
Y55922D01*
X20100D01*
Y51000D02*
Y52600D01*
X21700D01*
Y51000D01*
X20100D01*
X122034Y120000D02*
X121234Y121600D01*
X122834D01*
X122034Y120000D01*
X127034D02*
X126234Y121600D01*
X127834D01*
X127034Y120000D01*
X117034D02*
X116234Y121600D01*
X117834D01*
X117034Y120000D01*
X112034D02*
X111234Y121600D01*
X112834D01*
X112034Y120000D01*
X107034D02*
X106234Y121600D01*
X107834D01*
X107034Y120000D01*
X128061Y29700D02*
X128461Y30100D01*
X128861D01*
X128461Y30500D01*
X128861Y30900D01*
X128461D01*
X128061Y31300D01*
X127661Y30900D01*
X127261D01*
X127661Y30500D01*
X127261Y30100D01*
X127661D01*
X128061Y29700D01*
X98139D02*
X98539Y30100D01*
X98939D01*
X98539Y30500D01*
X98939Y30900D01*
X98539D01*
X98139Y31300D01*
X97739Y30900D01*
X97339D01*
X97739Y30500D01*
X97339Y30100D01*
X97739D01*
X98139Y29700D01*
X79200Y13278D02*
Y14878D01*
X80800D01*
Y13278D01*
X79200D01*
Y18200D02*
Y19800D01*
X80800D01*
Y18200D01*
X79200D01*
X20100Y31878D02*
Y33478D01*
X21700D01*
Y31878D01*
X20100D01*
Y36800D02*
Y38400D01*
X21700D01*
Y36800D01*
X20100D01*
X3700Y36600D02*
X4100Y37400D01*
X3700Y38200D01*
X4500Y37800D01*
X5300Y38200D01*
X4900Y37400D01*
X5300Y36600D01*
X4500Y37000D01*
X3700Y36600D01*
X49900Y52700D02*
Y52300D01*
X50700D01*
Y52700D01*
X51100D01*
Y53500D01*
X50700D01*
Y53900D01*
X49900D01*
Y53500D01*
X49500D01*
Y52700D01*
X49900D01*
X39000Y71800D02*
Y71400D01*
X39800D01*
Y71800D01*
X40200D01*
Y72600D01*
X39800D01*
Y73000D01*
X39000D01*
Y72600D01*
X38600D01*
Y71800D01*
X39000D01*
X115000Y99500D02*
Y99100D01*
X115800D01*
Y99500D01*
X116200D01*
Y100300D01*
X115800D01*
Y100700D01*
X115000D01*
Y100300D01*
X114600D01*
Y99500D01*
X115000D01*
X114900Y102800D02*
Y102400D01*
X115700D01*
Y102800D01*
X116100D01*
Y103600D01*
X115700D01*
Y104000D01*
X114900D01*
Y103600D01*
X114500D01*
Y102800D01*
X114900D01*
X106800Y76000D02*
Y75600D01*
X107600D01*
Y76000D01*
X108000D01*
Y76800D01*
X107600D01*
Y77200D01*
X106800D01*
Y76800D01*
X106400D01*
Y76000D01*
X106800D01*
X99700Y82300D02*
Y81900D01*
X100500D01*
Y82300D01*
X100900D01*
Y83100D01*
X100500D01*
Y83500D01*
X99700D01*
Y83100D01*
X99300D01*
Y82300D01*
X99700D01*
X33600Y83300D02*
X34000Y84100D01*
X33600Y84900D01*
X34400Y84500D01*
X35200Y84900D01*
X34800Y84100D01*
X35200Y83300D01*
X34400Y83700D01*
X33600Y83300D01*
X44600Y48600D02*
Y48200D01*
X45400D01*
Y48600D01*
X45800D01*
Y49400D01*
X45400D01*
Y49800D01*
X44600D01*
Y49400D01*
X44200D01*
Y48600D01*
X44600D01*
X30143Y92474D02*
Y92074D01*
X30943D01*
Y92474D01*
X31343D01*
Y93274D01*
X30943D01*
Y93674D01*
X30143D01*
Y93274D01*
X29743D01*
Y92474D01*
X30143D01*
X25344Y60456D02*
Y60056D01*
X26144D01*
Y60456D01*
X26544D01*
Y61256D01*
X26144D01*
Y61655D01*
X25344D01*
Y61256D01*
X24945D01*
Y60456D01*
X25344D01*
X49126Y112574D02*
Y112174D01*
X49926D01*
Y112574D01*
X50326D01*
Y113374D01*
X49926D01*
Y113774D01*
X49126D01*
Y113374D01*
X48726D01*
Y112574D01*
X49126D01*
X53800Y48800D02*
Y48400D01*
X54600D01*
Y48800D01*
X55000D01*
Y49600D01*
X54600D01*
Y50000D01*
X53800D01*
Y49600D01*
X53400D01*
Y48800D01*
X53800D01*
X4300Y14000D02*
Y13600D01*
X5100D01*
Y14000D01*
X5500D01*
Y14800D01*
X5100D01*
Y15200D01*
X4300D01*
Y14800D01*
X3900D01*
Y14000D01*
X4300D01*
X117866Y69730D02*
Y69330D01*
X118666D01*
Y69730D01*
X119066D01*
Y70530D01*
X118666D01*
Y70930D01*
X117866D01*
Y70530D01*
X117466D01*
Y69730D01*
X117866D01*
X27600Y13700D02*
Y13300D01*
X28400D01*
Y13700D01*
X28800D01*
Y14500D01*
X28400D01*
Y14900D01*
X27600D01*
Y14500D01*
X27200D01*
Y13700D01*
X27600D01*
X98300Y110000D02*
Y109600D01*
X99100D01*
Y110000D01*
X99500D01*
Y110800D01*
X99100D01*
Y111200D01*
X98300D01*
Y110800D01*
X97900D01*
Y110000D01*
X98300D01*
X74200Y109900D02*
Y109500D01*
X75000D01*
Y109900D01*
X75400D01*
Y110700D01*
X75000D01*
Y111100D01*
X74200D01*
Y110700D01*
X73800D01*
Y109900D01*
X74200D01*
X48600Y75850D02*
Y75450D01*
X49400D01*
Y75850D01*
X49800D01*
Y76650D01*
X49400D01*
Y77050D01*
X48600D01*
Y76650D01*
X48200D01*
Y75850D01*
X48600D01*
X99821Y72106D02*
Y71706D01*
X100621D01*
Y72106D01*
X101021D01*
Y72906D01*
X100621D01*
Y73306D01*
X99821D01*
Y72906D01*
X99421D01*
Y72106D01*
X99821D01*
X92439Y75850D02*
Y75450D01*
X93239D01*
Y75850D01*
X93639D01*
Y76650D01*
X93239D01*
Y77050D01*
X92439D01*
Y76650D01*
X92039D01*
Y75850D01*
X92439D01*
X78600D02*
Y75450D01*
X79400D01*
Y75850D01*
X79800D01*
Y76650D01*
X79400D01*
Y77050D01*
X78600D01*
Y76650D01*
X78200D01*
Y75850D01*
X78600D01*
X70200D02*
Y75450D01*
X71000D01*
Y75850D01*
X71400D01*
Y76650D01*
X71000D01*
Y77050D01*
X70200D01*
Y76650D01*
X69800D01*
Y75850D01*
X70200D01*
X115900Y22800D02*
Y22400D01*
X116700D01*
Y22800D01*
X117100D01*
Y23600D01*
X116700D01*
Y24000D01*
X115900D01*
Y23600D01*
X115500D01*
Y22800D01*
X115900D01*
X115800Y41600D02*
Y41200D01*
X116600D01*
Y41600D01*
X117000D01*
Y42400D01*
X116600D01*
Y42800D01*
X115800D01*
Y42400D01*
X115400D01*
Y41600D01*
X115800D01*
X4300Y113400D02*
Y113000D01*
X5100D01*
Y113400D01*
X5500D01*
Y114200D01*
X5100D01*
Y114600D01*
X4300D01*
Y114200D01*
X3900D01*
Y113400D01*
X4300D01*
X23200Y8500D02*
Y8100D01*
X24000D01*
Y8500D01*
X24400D01*
Y9300D01*
X24000D01*
Y9700D01*
X23200D01*
Y9300D01*
X22800D01*
Y8500D01*
X23200D01*
X98950Y53350D02*
Y52950D01*
X99750D01*
Y53350D01*
X100150D01*
Y54150D01*
X99750D01*
Y54550D01*
X98950D01*
Y54150D01*
X98550D01*
Y53350D01*
X98950D01*
X111800Y105600D02*
Y105200D01*
X112600D01*
Y105600D01*
X113000D01*
Y106400D01*
X112600D01*
Y106800D01*
X111800D01*
Y106400D01*
X111400D01*
Y105600D01*
X111800D01*
X98318Y97382D02*
Y96982D01*
X99118D01*
Y97382D01*
X99518D01*
Y98182D01*
X99118D01*
Y98582D01*
X98318D01*
Y98182D01*
X97918D01*
Y97382D01*
X98318D01*
X94989Y95725D02*
Y95325D01*
X95789D01*
Y95725D01*
X96189D01*
Y96525D01*
X95789D01*
Y96925D01*
X94989D01*
Y96525D01*
X94589D01*
Y95725D01*
X94989D01*
X125800Y11800D02*
Y11400D01*
X126600D01*
Y11800D01*
X127000D01*
Y12600D01*
X126600D01*
Y13000D01*
X125800D01*
Y12600D01*
X125400D01*
Y11800D01*
X125800D01*
X59600Y6350D02*
Y5950D01*
X60400D01*
Y6350D01*
X60800D01*
Y7150D01*
X60400D01*
Y7550D01*
X59600D01*
Y7150D01*
X59200D01*
Y6350D01*
X59600D01*
X46200Y3800D02*
Y3400D01*
X47000D01*
Y3800D01*
X47400D01*
Y4600D01*
X47000D01*
Y5000D01*
X46200D01*
Y4600D01*
X45800D01*
Y3800D01*
X46200D01*
X88500Y109800D02*
Y109400D01*
X89300D01*
Y109800D01*
X89700D01*
Y110600D01*
X89300D01*
Y111000D01*
X88500D01*
Y110600D01*
X88100D01*
Y109800D01*
X88500D01*
X55951D02*
Y109400D01*
X56751D01*
Y109800D01*
X57151D01*
Y110600D01*
X56751D01*
Y111000D01*
X55951D01*
Y110600D01*
X55551D01*
Y109800D01*
X55951D01*
X71000Y81500D02*
Y81100D01*
X71800D01*
Y81500D01*
X72200D01*
Y82300D01*
X71800D01*
Y82700D01*
X71000D01*
Y82300D01*
X70600D01*
Y81500D01*
X71000D01*
X56400Y95500D02*
Y95100D01*
X57200D01*
Y95500D01*
X57600D01*
Y96300D01*
X57200D01*
Y96700D01*
X56400D01*
Y96300D01*
X56000D01*
Y95500D01*
X56400D01*
X56100Y79600D02*
Y79200D01*
X56900D01*
Y79600D01*
X57300D01*
Y80400D01*
X56900D01*
Y80800D01*
X56100D01*
Y80400D01*
X55700D01*
Y79600D01*
X56100D01*
X133046Y105354D02*
Y104954D01*
X133846D01*
Y105354D01*
X134246D01*
Y106154D01*
X133846D01*
Y106554D01*
X133046D01*
Y106154D01*
X132646D01*
Y105354D01*
X133046D01*
X89200Y105300D02*
Y104900D01*
X90000D01*
Y105300D01*
X90400D01*
Y106100D01*
X90000D01*
Y106500D01*
X89200D01*
Y106100D01*
X88800D01*
Y105300D01*
X89200D01*
X74400Y105000D02*
Y104600D01*
X75200D01*
Y105000D01*
X75600D01*
Y105800D01*
X75200D01*
Y106200D01*
X74400D01*
Y105800D01*
X74000D01*
Y105000D01*
X74400D01*
X62182Y82482D02*
Y82082D01*
X62982D01*
Y82482D01*
X63382D01*
Y83282D01*
X62982D01*
Y83682D01*
X62182D01*
Y83282D01*
X61782D01*
Y82482D01*
X62182D01*
X51500Y104800D02*
Y104400D01*
X52300D01*
Y104800D01*
X52700D01*
Y105600D01*
X52300D01*
Y106000D01*
X51500D01*
Y105600D01*
X51100D01*
Y104800D01*
X51500D01*
X66300Y104800D02*
Y104400D01*
X67100D01*
Y104800D01*
X67500D01*
Y105600D01*
X67100D01*
Y106000D01*
X66300D01*
Y105600D01*
X65900D01*
Y104800D01*
X66300D01*
X30100Y105700D02*
Y105300D01*
X30900D01*
Y105700D01*
X31300D01*
Y106500D01*
X30900D01*
Y106900D01*
X30100D01*
Y106500D01*
X29700D01*
Y105700D01*
X30100D01*
X62200Y93200D02*
Y92800D01*
X63000D01*
Y93200D01*
X63400D01*
Y94000D01*
X63000D01*
Y94400D01*
X62200D01*
Y94000D01*
X61800D01*
Y93200D01*
X62200D01*
X84800Y92900D02*
Y92500D01*
X85600D01*
Y92900D01*
X86000D01*
Y93700D01*
X85600D01*
Y94100D01*
X84800D01*
Y93700D01*
X84400D01*
Y92900D01*
X84800D01*
X82100Y99900D02*
Y99500D01*
X82900D01*
Y99900D01*
X83300D01*
Y100700D01*
X82900D01*
Y101100D01*
X82100D01*
Y100700D01*
X81700D01*
Y99900D01*
X82100D01*
X193499Y61500D02*
Y60500D01*
X195499D01*
Y61500D01*
X196499D01*
Y63500D01*
X195499D01*
Y64500D01*
X193499D01*
Y63500D01*
X192499D01*
Y61500D01*
X193499D01*
X192499Y50500D02*
X193499Y52500D01*
X192499Y54500D01*
X194499Y53500D01*
X196499Y54500D01*
X195499Y52500D01*
X196499Y50500D01*
X194499Y51500D01*
X192499Y50500D01*
Y40500D02*
Y44500D01*
X196499D01*
Y40500D01*
X192499D01*
X194499Y30500D02*
X192499Y34500D01*
X196499D01*
X194499Y30500D01*
Y20500D02*
X195499Y21500D01*
X196499D01*
X195499Y22500D01*
X196499Y23500D01*
X195499D01*
X194499Y24500D01*
X193499Y23500D01*
X192499D01*
X193499Y22500D01*
X192499Y21500D01*
X193499D01*
X194499Y20500D01*
D83*
X82500Y53800D02*
G03*
X82500Y53800I-800J0D01*
G01*
X60400Y31800D02*
G03*
X60400Y31800I-800J0D01*
G01*
D84*
X196498Y77142D02*
X195927Y77713D01*
X195070Y77999D01*
X193927D01*
X193070Y77713D01*
X192499Y77142D01*
Y76570D01*
X192784Y75999D01*
X193070Y75713D01*
X193641Y75428D01*
X195355Y74857D01*
X195927Y74571D01*
X196212Y74285D01*
X196498Y73714D01*
Y72857D01*
X195927Y72286D01*
X195070Y72000D01*
X193927D01*
X193070Y72286D01*
X192499Y72857D01*
X198126Y75999D02*
X199840Y72000D01*
X201554Y75999D02*
X199840Y72000D01*
X199269Y70857D01*
X198697Y70286D01*
X198126Y70000D01*
X197840D01*
X202554Y75999D02*
Y72000D01*
Y74857D02*
X203411Y75713D01*
X203982Y75999D01*
X204839D01*
X205410Y75713D01*
X205696Y74857D01*
Y72000D01*
Y74857D02*
X206553Y75713D01*
X207124Y75999D01*
X207981D01*
X208552Y75713D01*
X208838Y74857D01*
Y72000D01*
X210723Y77999D02*
Y72000D01*
Y75142D02*
X211295Y75713D01*
X211866Y75999D01*
X212723D01*
X213294Y75713D01*
X213866Y75142D01*
X214151Y74285D01*
Y73714D01*
X213866Y72857D01*
X213294Y72286D01*
X212723Y72000D01*
X211866D01*
X211295Y72286D01*
X210723Y72857D01*
X216865Y75999D02*
X216294Y75713D01*
X215722Y75142D01*
X215437Y74285D01*
Y73714D01*
X215722Y72857D01*
X216294Y72286D01*
X216865Y72000D01*
X217722D01*
X218293Y72286D01*
X218864Y72857D01*
X219150Y73714D01*
Y74285D01*
X218864Y75142D01*
X218293Y75713D01*
X217722Y75999D01*
X216865D01*
X220464Y77999D02*
Y72000D01*
X229344Y77999D02*
Y72000D01*
X233343Y77999D02*
Y72000D01*
X229344Y75142D02*
X233343D01*
X235571Y77999D02*
X235857Y77713D01*
X236143Y77999D01*
X235857Y78284D01*
X235571Y77999D01*
X235857Y75999D02*
Y72000D01*
X238057Y77999D02*
Y73143D01*
X238342Y72286D01*
X238913Y72000D01*
X239485D01*
X237200Y75999D02*
X239199D01*
X249340Y76570D02*
X249054Y77142D01*
X248483Y77713D01*
X247912Y77999D01*
X246769D01*
X246198Y77713D01*
X245626Y77142D01*
X245341Y76570D01*
X245055Y75713D01*
Y74285D01*
X245341Y73428D01*
X245626Y72857D01*
X246198Y72286D01*
X246769Y72000D01*
X247912D01*
X248483Y72286D01*
X249054Y72857D01*
X249340Y73428D01*
X252453Y75999D02*
X251882Y75713D01*
X251311Y75142D01*
X251025Y74285D01*
Y73714D01*
X251311Y72857D01*
X251882Y72286D01*
X252453Y72000D01*
X253310D01*
X253882Y72286D01*
X254453Y72857D01*
X254739Y73714D01*
Y74285D01*
X254453Y75142D01*
X253882Y75713D01*
X253310Y75999D01*
X252453D01*
X256053D02*
Y73143D01*
X256338Y72286D01*
X256910Y72000D01*
X257767D01*
X258338Y72286D01*
X259195Y73143D01*
Y75999D02*
Y72000D01*
X260766Y75999D02*
Y72000D01*
Y74857D02*
X261623Y75713D01*
X262194Y75999D01*
X263051D01*
X263622Y75713D01*
X263908Y74857D01*
Y72000D01*
X266336Y77999D02*
Y73143D01*
X266622Y72286D01*
X267193Y72000D01*
X267764D01*
X265479Y75999D02*
X267479D01*
X276644Y77999D02*
Y72000D01*
Y77999D02*
X280358D01*
X276644Y75142D02*
X278930D01*
X281615Y77999D02*
X281901Y77713D01*
X282186Y77999D01*
X281901Y78284D01*
X281615Y77999D01*
X281901Y75999D02*
Y72000D01*
X283243Y75999D02*
Y72000D01*
Y74857D02*
X284100Y75713D01*
X284671Y75999D01*
X285528D01*
X286100Y75713D01*
X286385Y74857D01*
Y72000D01*
X288528Y77999D02*
X288813Y77713D01*
X289099Y77999D01*
X288813Y78284D01*
X288528Y77999D01*
X288813Y75999D02*
Y72000D01*
X293298Y75142D02*
X293012Y75713D01*
X292156Y75999D01*
X291299D01*
X290442Y75713D01*
X290156Y75142D01*
X290442Y74571D01*
X291013Y74285D01*
X292441Y74000D01*
X293012Y73714D01*
X293298Y73143D01*
Y72857D01*
X293012Y72286D01*
X292156Y72000D01*
X291299D01*
X290442Y72286D01*
X290156Y72857D01*
X294555Y77999D02*
Y72000D01*
Y74857D02*
X295412Y75713D01*
X295983Y75999D01*
X296840D01*
X297411Y75713D01*
X297697Y74857D01*
Y72000D01*
X299268Y74285D02*
X302696D01*
Y74857D01*
X302410Y75428D01*
X302125Y75713D01*
X301554Y75999D01*
X300696D01*
X300125Y75713D01*
X299554Y75142D01*
X299268Y74285D01*
Y73714D01*
X299554Y72857D01*
X300125Y72286D01*
X300696Y72000D01*
X301554D01*
X302125Y72286D01*
X302696Y72857D01*
X307409Y77999D02*
Y72000D01*
Y75142D02*
X306838Y75713D01*
X306267Y75999D01*
X305410D01*
X304838Y75713D01*
X304267Y75142D01*
X303981Y74285D01*
Y73714D01*
X304267Y72857D01*
X304838Y72286D01*
X305410Y72000D01*
X306267D01*
X306838Y72286D01*
X307409Y72857D01*
X313722Y77999D02*
Y72000D01*
X317721Y77999D02*
Y72000D01*
X313722Y75142D02*
X317721D01*
X320807Y75999D02*
X320235Y75713D01*
X319664Y75142D01*
X319378Y74285D01*
Y73714D01*
X319664Y72857D01*
X320235Y72286D01*
X320807Y72000D01*
X321663D01*
X322235Y72286D01*
X322806Y72857D01*
X323092Y73714D01*
Y74285D01*
X322806Y75142D01*
X322235Y75713D01*
X321663Y75999D01*
X320807D01*
X324406Y77999D02*
Y72000D01*
X325663Y74285D02*
X329090D01*
Y74857D01*
X328805Y75428D01*
X328519Y75713D01*
X327948Y75999D01*
X327091D01*
X326519Y75713D01*
X325948Y75142D01*
X325663Y74285D01*
Y73714D01*
X325948Y72857D01*
X326519Y72286D01*
X327091Y72000D01*
X327948D01*
X328519Y72286D01*
X329090Y72857D01*
X339088Y77142D02*
X338517Y77713D01*
X337660Y77999D01*
X336517D01*
X335661Y77713D01*
X335089Y77142D01*
Y76570D01*
X335375Y75999D01*
X335661Y75713D01*
X336232Y75428D01*
X337946Y74857D01*
X338517Y74571D01*
X338803Y74285D01*
X339088Y73714D01*
Y72857D01*
X338517Y72286D01*
X337660Y72000D01*
X336517D01*
X335661Y72286D01*
X335089Y72857D01*
X341002Y77999D02*
X341288Y77713D01*
X341574Y77999D01*
X341288Y78284D01*
X341002Y77999D01*
X341288Y75999D02*
Y72000D01*
X345773Y75999D02*
X342630Y72000D01*
Y75999D02*
X345773D01*
X342630Y72000D02*
X345773D01*
X347029Y74285D02*
X350457D01*
Y74857D01*
X350172Y75428D01*
X349886Y75713D01*
X349315Y75999D01*
X348458D01*
X347886Y75713D01*
X347315Y75142D01*
X347029Y74285D01*
Y73714D01*
X347315Y72857D01*
X347886Y72286D01*
X348458Y72000D01*
X349315D01*
X349886Y72286D01*
X350457Y72857D01*
X359337Y74857D02*
X361908D01*
X362765Y75142D01*
X363051Y75428D01*
X363336Y75999D01*
Y76856D01*
X363051Y77427D01*
X362765Y77713D01*
X361908Y77999D01*
X359337D01*
Y72000D01*
X364679Y77999D02*
Y72000D01*
X369364Y75999D02*
Y72000D01*
Y75142D02*
X368792Y75713D01*
X368221Y75999D01*
X367364D01*
X366793Y75713D01*
X366221Y75142D01*
X365936Y74285D01*
Y73714D01*
X366221Y72857D01*
X366793Y72286D01*
X367364Y72000D01*
X368221D01*
X368792Y72286D01*
X369364Y72857D01*
X371820Y77999D02*
Y73143D01*
X372106Y72286D01*
X372677Y72000D01*
X373249D01*
X370963Y75999D02*
X372963D01*
X374106Y74285D02*
X377533D01*
Y74857D01*
X377248Y75428D01*
X376962Y75713D01*
X376391Y75999D01*
X375534D01*
X374962Y75713D01*
X374391Y75142D01*
X374106Y74285D01*
Y73714D01*
X374391Y72857D01*
X374962Y72286D01*
X375534Y72000D01*
X376391D01*
X376962Y72286D01*
X377533Y72857D01*
X382247Y77999D02*
Y72000D01*
Y75142D02*
X381675Y75713D01*
X381104Y75999D01*
X380247D01*
X379676Y75713D01*
X379104Y75142D01*
X378819Y74285D01*
Y73714D01*
X379104Y72857D01*
X379676Y72286D01*
X380247Y72000D01*
X381104D01*
X381675Y72286D01*
X382247Y72857D01*
X391127Y77999D02*
Y72000D01*
X395126Y77999D02*
Y72000D01*
X391127Y75142D02*
X395126D01*
X398211Y75999D02*
X397640Y75713D01*
X397068Y75142D01*
X396783Y74285D01*
Y73714D01*
X397068Y72857D01*
X397640Y72286D01*
X398211Y72000D01*
X399068D01*
X399639Y72286D01*
X400210Y72857D01*
X400496Y73714D01*
Y74285D01*
X400210Y75142D01*
X399639Y75713D01*
X399068Y75999D01*
X398211D01*
X401810Y77999D02*
Y72000D01*
X403067Y74285D02*
X406495D01*
Y74857D01*
X406209Y75428D01*
X405924Y75713D01*
X405352Y75999D01*
X404495D01*
X403924Y75713D01*
X403353Y75142D01*
X403067Y74285D01*
Y73714D01*
X403353Y72857D01*
X403924Y72286D01*
X404495Y72000D01*
X405352D01*
X405924Y72286D01*
X406495Y72857D01*
X414493Y77999D02*
Y72000D01*
X412494Y77999D02*
X416493D01*
X417492Y75999D02*
X419206Y72000D01*
X420920Y75999D02*
X419206Y72000D01*
X418635Y70857D01*
X418064Y70286D01*
X417492Y70000D01*
X417207D01*
X421920Y75999D02*
Y70000D01*
Y75142D02*
X422491Y75713D01*
X423063Y75999D01*
X423920D01*
X424491Y75713D01*
X425062Y75142D01*
X425348Y74285D01*
Y73714D01*
X425062Y72857D01*
X424491Y72286D01*
X423920Y72000D01*
X423063D01*
X422491Y72286D01*
X421920Y72857D01*
X426633Y74285D02*
X430061D01*
Y74857D01*
X429775Y75428D01*
X429490Y75713D01*
X428919Y75999D01*
X428062D01*
X427490Y75713D01*
X426919Y75142D01*
X426633Y74285D01*
Y73714D01*
X426919Y72857D01*
X427490Y72286D01*
X428062Y72000D01*
X428919D01*
X429490Y72286D01*
X430061Y72857D01*
X185539Y81000D02*
X438941D01*
X185539Y67500D02*
X438941D01*
X185539Y81000D02*
Y-2500D01*
X438941Y81000D02*
Y-2500D01*
X225864Y81000D02*
Y-2500D01*
X273165Y81000D02*
Y-2500D01*
X355857Y81000D02*
Y-2500D01*
X387647Y81000D02*
Y-2500D01*
X185539Y7500D02*
X438941D01*
X185539Y-2500D02*
X438941D01*
D85*
X196499Y12500D02*
G03*
X196499Y12500I-2000J0D01*
G01*
M02*
