G04*
G04 #@! TF.GenerationSoftware,Altium Limited,Altium Designer,20.0.2 (26)*
G04*
G04 Layer_Color=128*
%FSLAX25Y25*%
%MOIN*%
G70*
G01*
G75*
%ADD17C,0.06000*%
%ADD19R,0.03543X0.03937*%
%ADD20R,0.03150X0.03543*%
%ADD21R,0.03543X0.03150*%
%ADD24R,0.03402X0.03175*%
%ADD25R,0.03175X0.03402*%
%ADD60R,0.05118X0.05118*%
%ADD61R,0.03402X0.03150*%
%ADD62R,0.03937X0.03150*%
%ADD63R,0.03150X0.03937*%
%ADD64O,0.07874X0.00984*%
%ADD65R,0.07874X0.00984*%
%ADD66R,0.02362X0.03937*%
G36*
X24601Y107775D02*
Y104625D01*
X24405Y104428D01*
X21294D01*
X21098Y104625D01*
Y105578D01*
X22594D01*
Y106877D01*
X21098D01*
Y107775D01*
X21294Y107972D01*
X24405D01*
X24601Y107775D01*
D02*
G37*
G36*
X18342D02*
Y106877D01*
X16885D01*
Y105578D01*
X18342D01*
Y104625D01*
X18145Y104428D01*
X14995D01*
X14798Y104625D01*
Y107775D01*
X14995Y107972D01*
X18145D01*
X18342Y107775D01*
D02*
G37*
G36*
X24557Y101675D02*
Y98525D01*
X24360Y98328D01*
X21250D01*
X21053Y98525D01*
Y99478D01*
X22549D01*
Y100777D01*
X21053D01*
Y101675D01*
X21250Y101872D01*
X24360D01*
X24557Y101675D01*
D02*
G37*
G36*
X18297D02*
Y100777D01*
X16840D01*
Y99478D01*
X18297D01*
Y98525D01*
X18100Y98328D01*
X14951D01*
X14754Y98525D01*
Y101675D01*
X14951Y101872D01*
X18100D01*
X18297Y101675D01*
D02*
G37*
G36*
X24557Y95575D02*
Y92425D01*
X24360Y92228D01*
X21250D01*
X21053Y92425D01*
Y93378D01*
X22549D01*
Y94677D01*
X21053D01*
Y95575D01*
X21250Y95772D01*
X24360D01*
X24557Y95575D01*
D02*
G37*
G36*
X18297D02*
Y94677D01*
X16840D01*
Y93378D01*
X18297D01*
Y92425D01*
X18100Y92228D01*
X14951D01*
X14754Y92425D01*
Y95575D01*
X14951Y95772D01*
X18100D01*
X18297Y95575D01*
D02*
G37*
G36*
X32772Y50905D02*
Y47755D01*
X32575Y47558D01*
X31677D01*
Y49015D01*
X30378D01*
Y47558D01*
X29425D01*
X29228Y47755D01*
Y50905D01*
X29425Y51102D01*
X32575D01*
X32772Y50905D01*
D02*
G37*
G36*
Y44606D02*
Y41495D01*
X32575Y41298D01*
X29425D01*
X29228Y41495D01*
Y44606D01*
X29425Y44802D01*
X30378D01*
Y43306D01*
X31677D01*
Y44802D01*
X32575D01*
X32772Y44606D01*
D02*
G37*
G36*
X42582Y38352D02*
Y36370D01*
X41426Y35291D01*
X40337D01*
X39181Y36370D01*
Y38352D01*
X39433Y38603D01*
X42330D01*
X42582Y38352D01*
D02*
G37*
G36*
X42538Y32181D02*
Y30200D01*
X42286Y29948D01*
X39388D01*
X39136Y30200D01*
Y32181D01*
X40293Y33261D01*
X41381D01*
X42538Y32181D01*
D02*
G37*
G36*
X108467Y70475D02*
Y67325D01*
X108270Y67128D01*
X105160D01*
X104963Y67325D01*
Y68278D01*
X106459D01*
Y69577D01*
X104963D01*
Y70475D01*
X105160Y70672D01*
X108270D01*
X108467Y70475D01*
D02*
G37*
G36*
X102207D02*
Y69577D01*
X100751D01*
Y68278D01*
X102207D01*
Y67325D01*
X102010Y67128D01*
X98861D01*
X98664Y67325D01*
Y70475D01*
X98861Y70672D01*
X102010D01*
X102207Y70475D01*
D02*
G37*
G36*
X130472Y70339D02*
Y67190D01*
X130275Y66993D01*
X129377D01*
Y68449D01*
X128078D01*
Y66993D01*
X127125D01*
X126928Y67190D01*
Y70339D01*
X127125Y70536D01*
X130275D01*
X130472Y70339D01*
D02*
G37*
G36*
Y64040D02*
Y60930D01*
X130275Y60733D01*
X127125D01*
X126928Y60930D01*
Y64040D01*
X127125Y64237D01*
X128078D01*
Y62741D01*
X129377D01*
Y64237D01*
X130275D01*
X130472Y64040D01*
D02*
G37*
G36*
X108508Y64475D02*
Y61326D01*
X108311Y61129D01*
X105201D01*
X105004Y61326D01*
Y62278D01*
X106500D01*
Y63578D01*
X105004D01*
Y64475D01*
X105201Y64672D01*
X108311D01*
X108508Y64475D01*
D02*
G37*
G36*
X102248D02*
Y63578D01*
X100792D01*
Y62278D01*
X102248D01*
Y61326D01*
X102051Y61129D01*
X98902D01*
X98705Y61326D01*
Y64475D01*
X98902Y64672D01*
X102051D01*
X102248Y64475D01*
D02*
G37*
G36*
X53036Y62375D02*
Y59225D01*
X52839Y59028D01*
X49729D01*
X49532Y59225D01*
Y60178D01*
X51028D01*
Y61477D01*
X49532D01*
Y62375D01*
X49729Y62572D01*
X52839D01*
X53036Y62375D01*
D02*
G37*
G36*
X46776D02*
Y61477D01*
X45320D01*
Y60178D01*
X46776D01*
Y59225D01*
X46579Y59028D01*
X43430D01*
X43233Y59225D01*
Y62375D01*
X43430Y62572D01*
X46579D01*
X46776Y62375D01*
D02*
G37*
G36*
X52756Y39239D02*
Y36129D01*
X52559Y35932D01*
X51606D01*
Y37428D01*
X50307D01*
Y35932D01*
X49409D01*
X49213Y36129D01*
Y39239D01*
X49409Y39436D01*
X52559D01*
X52756Y39239D01*
D02*
G37*
G36*
Y32979D02*
Y29830D01*
X52559Y29633D01*
X49409D01*
X49213Y29830D01*
Y32979D01*
X49409Y33176D01*
X50307D01*
Y31719D01*
X51606D01*
Y33176D01*
X52559D01*
X52756Y32979D01*
D02*
G37*
D17*
X133700Y17200D02*
D03*
D19*
X37500Y60700D02*
D03*
X31201D02*
D03*
D20*
X22700Y113500D02*
D03*
X17189D02*
D03*
D21*
X51400Y43664D02*
D03*
Y49175D02*
D03*
X32000Y31545D02*
D03*
Y37056D02*
D03*
D24*
X128700Y62669D02*
D03*
Y68600D02*
D03*
X31000Y43235D02*
D03*
Y49165D02*
D03*
X50984Y37500D02*
D03*
Y31569D02*
D03*
D25*
X106531Y68900D02*
D03*
X100600D02*
D03*
X106572Y62901D02*
D03*
X100641D02*
D03*
X51100Y60800D02*
D03*
X45169D02*
D03*
X22621Y100100D02*
D03*
X16690D02*
D03*
X22621Y94000D02*
D03*
X16690D02*
D03*
X22666Y106200D02*
D03*
X16735D02*
D03*
D60*
X9800Y47040D02*
D03*
Y60426D02*
D03*
D61*
X40900Y31545D02*
D03*
Y37056D02*
D03*
D62*
X112979Y62660D02*
D03*
X122034Y66400D02*
D03*
X112979Y70141D02*
D03*
D63*
X8303Y80427D02*
D03*
X12043Y71372D02*
D03*
X15784Y80427D02*
D03*
X22903Y80327D02*
D03*
X26643Y71272D02*
D03*
X30384Y80327D02*
D03*
D64*
X127540Y98077D02*
D03*
Y95518D02*
D03*
Y92959D02*
D03*
Y90400D02*
D03*
Y87841D02*
D03*
Y85281D02*
D03*
X105886Y95518D02*
D03*
Y92959D02*
D03*
Y90400D02*
D03*
Y87841D02*
D03*
Y85282D02*
D03*
Y82722D02*
D03*
X127540D02*
D03*
X105886Y105754D02*
D03*
Y103195D02*
D03*
X127540Y100636D02*
D03*
Y103195D02*
D03*
X105886Y98077D02*
D03*
Y100636D02*
D03*
D65*
X127540Y105754D02*
D03*
D66*
X37160Y53052D02*
D03*
X40900Y53052D02*
D03*
X44640Y53052D02*
D03*
X44640Y42816D02*
D03*
X37161Y42815D02*
D03*
M02*
