G04*
G04 #@! TF.GenerationSoftware,Altium Limited,Altium Designer,20.0.2 (26)*
G04*
G04 Layer_Color=8421504*
%FSLAX25Y25*%
%MOIN*%
G70*
G01*
G75*
%ADD17C,0.06000*%
%ADD18C,0.05906*%
%ADD19R,0.03543X0.03937*%
%ADD20R,0.03150X0.03543*%
%ADD21R,0.03543X0.03150*%
%ADD22R,0.03150X0.03402*%
%ADD23R,0.03937X0.03543*%
%ADD24R,0.03402X0.03175*%
%ADD25R,0.03175X0.03402*%
%ADD26R,0.04754X0.06697*%
%ADD27R,0.04221X0.02095*%
G36*
X26064Y118955D02*
Y113045D01*
X25671Y112652D01*
X21704D01*
X21310Y113045D01*
Y114468D01*
X21704Y114862D01*
X22533D01*
X22927Y115255D01*
Y116745D01*
X22533Y117139D01*
X21704D01*
X21310Y117532D01*
Y118955D01*
X21704Y119348D01*
X25671D01*
X26064Y118955D01*
D02*
G37*
G36*
X14421D02*
Y117532D01*
X14027Y117139D01*
X13198D01*
X12804Y116745D01*
Y115255D01*
X13198Y114862D01*
X14027D01*
X14421Y114468D01*
Y113045D01*
X14027Y112652D01*
X10060D01*
X9667Y113045D01*
Y118955D01*
X10060Y119348D01*
X14027D01*
X14421Y118955D01*
D02*
G37*
G36*
X128072Y111205D02*
Y108094D01*
X127875Y107898D01*
X126977D01*
Y109394D01*
X125678D01*
Y107898D01*
X124725D01*
X124528Y108094D01*
Y111205D01*
X124725Y111401D01*
X127875D01*
X128072Y111205D01*
D02*
G37*
G36*
X121772D02*
Y108094D01*
X121575Y107898D01*
X120677D01*
Y109394D01*
X119378D01*
Y107898D01*
X118425D01*
X118228Y108094D01*
Y111205D01*
X118425Y111401D01*
X121575D01*
X121772Y111205D01*
D02*
G37*
G36*
X128072Y104945D02*
Y101795D01*
X127875Y101598D01*
X124725D01*
X124528Y101795D01*
Y104945D01*
X124725Y105142D01*
X125678D01*
Y103685D01*
X126977D01*
Y105142D01*
X127875D01*
X128072Y104945D01*
D02*
G37*
G36*
X121772D02*
Y101795D01*
X121575Y101598D01*
X118425D01*
X118228Y101795D01*
Y104945D01*
X118425Y105142D01*
X119378D01*
Y103685D01*
X120677D01*
Y105142D01*
X121575D01*
X121772Y104945D01*
D02*
G37*
G36*
X26064Y109055D02*
Y103145D01*
X25671Y102752D01*
X21704D01*
X21310Y103145D01*
Y104568D01*
X21704Y104962D01*
X22533D01*
X22927Y105355D01*
Y106845D01*
X22533Y107238D01*
X21704D01*
X21310Y107632D01*
Y109055D01*
X21704Y109448D01*
X25671D01*
X26064Y109055D01*
D02*
G37*
G36*
X14421D02*
Y107632D01*
X14027Y107238D01*
X13198D01*
X12804Y106845D01*
Y105355D01*
X13198Y104962D01*
X14027D01*
X14421Y104568D01*
Y103145D01*
X14027Y102752D01*
X10060D01*
X9667Y103145D01*
Y109055D01*
X10060Y109448D01*
X14027D01*
X14421Y109055D01*
D02*
G37*
G36*
X25402Y91575D02*
Y88425D01*
X25205Y88228D01*
X22055D01*
X21858Y88425D01*
Y89378D01*
X23315D01*
Y90677D01*
X21858D01*
Y91575D01*
X22055Y91772D01*
X25205D01*
X25402Y91575D01*
D02*
G37*
G36*
X19102D02*
Y90677D01*
X17606D01*
Y89378D01*
X19102D01*
Y88425D01*
X18906Y88228D01*
X15795D01*
X15598Y88425D01*
Y91575D01*
X15795Y91772D01*
X18906D01*
X19102Y91575D01*
D02*
G37*
G36*
X114502Y71175D02*
Y68025D01*
X114305Y67828D01*
X111194D01*
X110998Y68025D01*
Y68923D01*
X112494D01*
Y70222D01*
X110998D01*
Y71175D01*
X111194Y71372D01*
X114305D01*
X114502Y71175D01*
D02*
G37*
G36*
X108242D02*
Y70222D01*
X106785D01*
Y68923D01*
X108242D01*
Y68025D01*
X108045Y67828D01*
X104895D01*
X104698Y68025D01*
Y71175D01*
X104895Y71372D01*
X108045D01*
X108242Y71175D01*
D02*
G37*
G36*
X38652Y70612D02*
Y67714D01*
X38400Y67462D01*
X36419D01*
X35339Y68619D01*
Y69707D01*
X36419Y70864D01*
X38400D01*
X38652Y70612D01*
D02*
G37*
G36*
X33309Y69663D02*
Y68574D01*
X32230Y67418D01*
X30248D01*
X29996Y67670D01*
Y70567D01*
X30248Y70819D01*
X32230D01*
X33309Y69663D01*
D02*
G37*
G36*
X38652Y64509D02*
Y61611D01*
X38400Y61359D01*
X36419D01*
X35339Y62515D01*
Y63604D01*
X36419Y64761D01*
X38400D01*
X38652Y64509D01*
D02*
G37*
G36*
X33309Y63560D02*
Y62471D01*
X32230Y61315D01*
X30248D01*
X29996Y61567D01*
Y64464D01*
X30248Y64716D01*
X32230D01*
X33309Y63560D01*
D02*
G37*
G36*
X135472Y63405D02*
Y60255D01*
X135275Y60058D01*
X134322D01*
Y61515D01*
X133023D01*
Y60058D01*
X132125D01*
X131928Y60255D01*
Y63405D01*
X132125Y63602D01*
X135275D01*
X135472Y63405D01*
D02*
G37*
G36*
Y57106D02*
Y53995D01*
X135275Y53799D01*
X132125D01*
X131928Y53995D01*
Y57106D01*
X132125Y57302D01*
X133023D01*
Y55806D01*
X134322D01*
Y57302D01*
X135275D01*
X135472Y57106D01*
D02*
G37*
G36*
X135295Y49826D02*
Y46676D01*
X135099Y46480D01*
X134146D01*
Y47936D01*
X132846D01*
Y46480D01*
X131949D01*
X131752Y46676D01*
Y49826D01*
X131949Y50023D01*
X135099D01*
X135295Y49826D01*
D02*
G37*
G36*
X128195D02*
Y46676D01*
X127998Y46480D01*
X127046D01*
Y47936D01*
X125746D01*
Y46480D01*
X124849D01*
X124652Y46676D01*
Y49826D01*
X124849Y50023D01*
X127998D01*
X128195Y49826D01*
D02*
G37*
G36*
X135295Y43527D02*
Y40417D01*
X135099Y40220D01*
X131949D01*
X131752Y40417D01*
Y43527D01*
X131949Y43724D01*
X132846D01*
Y42228D01*
X134146D01*
Y43724D01*
X135099D01*
X135295Y43527D01*
D02*
G37*
G36*
X128195D02*
Y40417D01*
X127998Y40220D01*
X124849D01*
X124652Y40417D01*
Y43527D01*
X124849Y43724D01*
X125746D01*
Y42228D01*
X127046D01*
Y43724D01*
X127998D01*
X128195Y43527D01*
D02*
G37*
G36*
X106160Y43844D02*
Y40694D01*
X105963Y40497D01*
X102852D01*
X102656Y40694D01*
Y41592D01*
X104152D01*
Y42891D01*
X102656D01*
Y43844D01*
X102852Y44041D01*
X105963D01*
X106160Y43844D01*
D02*
G37*
G36*
X99900D02*
Y42891D01*
X98443D01*
Y41592D01*
X99900D01*
Y40694D01*
X99703Y40497D01*
X96553D01*
X96356Y40694D01*
Y43844D01*
X96553Y44041D01*
X99703D01*
X99900Y43844D01*
D02*
G37*
G36*
X21802Y23575D02*
Y20425D01*
X21605Y20228D01*
X18455D01*
X18258Y20425D01*
Y21378D01*
X19715D01*
Y22677D01*
X18258D01*
Y23575D01*
X18455Y23772D01*
X21605D01*
X21802Y23575D01*
D02*
G37*
G36*
X15502D02*
Y22677D01*
X14006D01*
Y21378D01*
X15502D01*
Y20425D01*
X15306Y20228D01*
X12195D01*
X11998Y20425D01*
Y23575D01*
X12195Y23772D01*
X15306D01*
X15502Y23575D01*
D02*
G37*
G36*
X54772Y19969D02*
Y16858D01*
X54575Y16661D01*
X53677D01*
Y18158D01*
X52378D01*
Y16661D01*
X51425D01*
X51228Y16858D01*
Y19969D01*
X51425Y20165D01*
X54575D01*
X54772Y19969D01*
D02*
G37*
G36*
X48072Y19969D02*
Y16819D01*
X47875Y16622D01*
X46922D01*
Y18079D01*
X45623D01*
Y16622D01*
X44725D01*
X44528Y16819D01*
Y19969D01*
X44725Y20166D01*
X47875D01*
X48072Y19969D01*
D02*
G37*
G36*
X115972Y19483D02*
Y16373D01*
X115775Y16176D01*
X114877D01*
Y17672D01*
X113578D01*
Y16176D01*
X112625D01*
X112428Y16373D01*
Y19483D01*
X112625Y19680D01*
X115775D01*
X115972Y19483D01*
D02*
G37*
G36*
X109272Y19474D02*
Y16324D01*
X109075Y16127D01*
X108122D01*
Y17584D01*
X106823D01*
Y16127D01*
X105925D01*
X105728Y16324D01*
Y19474D01*
X105925Y19671D01*
X109075D01*
X109272Y19474D01*
D02*
G37*
G36*
X21802Y17075D02*
Y13925D01*
X21605Y13728D01*
X18455D01*
X18258Y13925D01*
Y14878D01*
X19715D01*
Y16177D01*
X18258D01*
Y17075D01*
X18455Y17272D01*
X21605D01*
X21802Y17075D01*
D02*
G37*
G36*
X15502D02*
Y16177D01*
X14006D01*
Y14878D01*
X15502D01*
Y13925D01*
X15306Y13728D01*
X12195D01*
X11998Y13925D01*
Y17075D01*
X12195Y17272D01*
X15306D01*
X15502Y17075D01*
D02*
G37*
G36*
X54772Y13709D02*
Y10559D01*
X54575Y10362D01*
X51425D01*
X51228Y10559D01*
Y13709D01*
X51425Y13906D01*
X52378D01*
Y12449D01*
X53677D01*
Y13906D01*
X54575D01*
X54772Y13709D01*
D02*
G37*
G36*
X48072Y13669D02*
Y10559D01*
X47875Y10362D01*
X44725D01*
X44528Y10559D01*
Y13669D01*
X44725Y13866D01*
X45623D01*
Y12370D01*
X46922D01*
Y13866D01*
X47875D01*
X48072Y13669D01*
D02*
G37*
G36*
X115972Y13224D02*
Y10074D01*
X115775Y9877D01*
X112625D01*
X112428Y10074D01*
Y13224D01*
X112625Y13420D01*
X113578D01*
Y11964D01*
X114877D01*
Y13420D01*
X115775D01*
X115972Y13224D01*
D02*
G37*
G36*
X109272Y13175D02*
Y10064D01*
X109075Y9867D01*
X105925D01*
X105728Y10064D01*
Y13175D01*
X105925Y13371D01*
X106823D01*
Y11875D01*
X108122D01*
Y13371D01*
X109075D01*
X109272Y13175D01*
D02*
G37*
G36*
X21802Y10575D02*
Y7425D01*
X21605Y7228D01*
X18455D01*
X18258Y7425D01*
Y8378D01*
X19715D01*
Y9677D01*
X18258D01*
Y10575D01*
X18455Y10772D01*
X21605D01*
X21802Y10575D01*
D02*
G37*
G36*
X15502D02*
Y9677D01*
X14006D01*
Y8378D01*
X15502D01*
Y7425D01*
X15306Y7228D01*
X12195D01*
X11998Y7425D01*
Y10575D01*
X12195Y10772D01*
X15306D01*
X15502Y10575D01*
D02*
G37*
D17*
X122700Y84000D02*
D03*
D18*
X38000Y119000D02*
D03*
X44000Y102500D02*
D03*
X102300Y76800D02*
D03*
X71000Y12200D02*
D03*
X28400Y21200D02*
D03*
X17100Y28700D02*
D03*
X23500Y64000D02*
D03*
X30900Y52400D02*
D03*
D19*
X85050Y88000D02*
D03*
X78751D02*
D03*
X85050Y105800D02*
D03*
X78751D02*
D03*
X62650D02*
D03*
X56351D02*
D03*
X98950Y101800D02*
D03*
X105249D02*
D03*
X62650Y70100D02*
D03*
X56351D02*
D03*
X62650Y88000D02*
D03*
X56351D02*
D03*
X85050Y70100D02*
D03*
X78751D02*
D03*
X52650Y118700D02*
D03*
X58949D02*
D03*
X67625D02*
D03*
X73925D02*
D03*
X82601D02*
D03*
X88900D02*
D03*
D20*
X118268Y67892D02*
D03*
X123779D02*
D03*
X17255Y96900D02*
D03*
X11744D02*
D03*
X36755Y76100D02*
D03*
X31245D02*
D03*
D21*
X126724Y55899D02*
D03*
Y61410D02*
D03*
X98822Y55024D02*
D03*
Y49514D02*
D03*
X121400Y12268D02*
D03*
Y17779D02*
D03*
X91100Y17656D02*
D03*
Y12145D02*
D03*
X99550Y17656D02*
D03*
Y12145D02*
D03*
X60000Y17800D02*
D03*
Y12289D02*
D03*
D22*
X37056Y69100D02*
D03*
X31545D02*
D03*
X37056Y62997D02*
D03*
X31545D02*
D03*
D23*
X66700Y93350D02*
D03*
Y99649D02*
D03*
X89300Y93350D02*
D03*
Y99649D02*
D03*
X52500Y93350D02*
D03*
Y99649D02*
D03*
X74900Y93350D02*
D03*
Y99649D02*
D03*
X66753Y82050D02*
D03*
Y75751D02*
D03*
X89300Y82050D02*
D03*
Y75751D02*
D03*
X52400Y82050D02*
D03*
Y75751D02*
D03*
X74900Y82050D02*
D03*
Y75751D02*
D03*
D24*
X120000Y109466D02*
D03*
Y103534D02*
D03*
X126300Y109466D02*
D03*
Y103534D02*
D03*
X133700Y55734D02*
D03*
Y61665D02*
D03*
X126424Y42156D02*
D03*
Y48087D02*
D03*
X133524Y42156D02*
D03*
Y48087D02*
D03*
X107500Y11804D02*
D03*
Y17734D02*
D03*
X114200Y17744D02*
D03*
Y11813D02*
D03*
X46300Y12298D02*
D03*
Y18229D02*
D03*
X53000D02*
D03*
Y12298D02*
D03*
D25*
X112566Y69600D02*
D03*
X106634D02*
D03*
X104224Y42269D02*
D03*
X98293D02*
D03*
X17535Y90000D02*
D03*
X23465D02*
D03*
X13935Y22000D02*
D03*
X19865D02*
D03*
X13935Y9000D02*
D03*
X19865D02*
D03*
X13935Y15500D02*
D03*
X19865D02*
D03*
D26*
X12043Y106100D02*
D03*
X23687D02*
D03*
X12043Y116000D02*
D03*
X23687D02*
D03*
D27*
X116834Y56540D02*
D03*
Y52800D02*
D03*
Y49060D02*
D03*
X107787D02*
D03*
Y52800D02*
D03*
Y56540D02*
D03*
M02*
