G04*
G04 #@! TF.GenerationSoftware,Altium Limited,Altium Designer,20.0.2 (26)*
G04*
G04 Layer_Color=8388736*
%FSLAX25Y25*%
%MOIN*%
G70*
G01*
G75*
%ADD28C,0.10000*%
%ADD29C,0.06800*%
%ADD30C,0.06706*%
%ADD31R,0.04343X0.04737*%
%ADD32R,0.03950X0.04343*%
%ADD33R,0.04343X0.03950*%
%ADD34R,0.03950X0.04202*%
%ADD35R,0.04737X0.04343*%
%ADD36R,0.04202X0.03975*%
%ADD37R,0.03975X0.04202*%
%ADD38R,0.05554X0.07497*%
%ADD39R,0.05021X0.02895*%
%ADD40C,0.04343*%
%ADD41R,0.04343X0.04343*%
%ADD42C,0.09461*%
%ADD43C,0.04737*%
%ADD44C,0.07887*%
%ADD45R,0.09461X0.09461*%
D28*
X122700Y84000D02*
D03*
D29*
D03*
D30*
X38000Y119000D02*
D03*
X44000Y102500D02*
D03*
X102300Y76800D02*
D03*
X71000Y12200D02*
D03*
X28400Y21200D02*
D03*
X17100Y28700D02*
D03*
X23500Y64000D02*
D03*
X30900Y52400D02*
D03*
D31*
X85050Y88000D02*
D03*
X78751D02*
D03*
X85050Y105800D02*
D03*
X78751D02*
D03*
X62650D02*
D03*
X56351D02*
D03*
X98950Y101800D02*
D03*
X105249D02*
D03*
X62650Y70100D02*
D03*
X56351D02*
D03*
X62650Y88000D02*
D03*
X56351D02*
D03*
X85050Y70100D02*
D03*
X78751D02*
D03*
X52650Y118700D02*
D03*
X58949D02*
D03*
X67625D02*
D03*
X73925D02*
D03*
X82601D02*
D03*
X88900D02*
D03*
D32*
X118268Y67892D02*
D03*
X123779D02*
D03*
X17255Y96900D02*
D03*
X11744D02*
D03*
X36755Y76100D02*
D03*
X31245D02*
D03*
D33*
X126724Y55899D02*
D03*
Y61410D02*
D03*
X98822Y55024D02*
D03*
Y49514D02*
D03*
X121400Y12268D02*
D03*
Y17779D02*
D03*
X91100Y17656D02*
D03*
Y12145D02*
D03*
X99550Y17656D02*
D03*
Y12145D02*
D03*
X60000Y17800D02*
D03*
Y12289D02*
D03*
D34*
X37056Y69100D02*
D03*
X31545D02*
D03*
X37056Y62997D02*
D03*
X31545D02*
D03*
D35*
X66700Y93350D02*
D03*
Y99649D02*
D03*
X89300Y93350D02*
D03*
Y99649D02*
D03*
X52500Y93350D02*
D03*
Y99649D02*
D03*
X74900Y93350D02*
D03*
Y99649D02*
D03*
X66753Y82050D02*
D03*
Y75751D02*
D03*
X89300Y82050D02*
D03*
Y75751D02*
D03*
X52400Y82050D02*
D03*
Y75751D02*
D03*
X74900Y82050D02*
D03*
Y75751D02*
D03*
D36*
X120000Y109466D02*
D03*
Y103534D02*
D03*
X126300Y109466D02*
D03*
Y103534D02*
D03*
X133700Y55734D02*
D03*
Y61665D02*
D03*
X126424Y42156D02*
D03*
Y48087D02*
D03*
X133524Y42156D02*
D03*
Y48087D02*
D03*
X107500Y11804D02*
D03*
Y17734D02*
D03*
X114200Y17744D02*
D03*
Y11813D02*
D03*
X46300Y12298D02*
D03*
Y18229D02*
D03*
X53000D02*
D03*
Y12298D02*
D03*
D37*
X112566Y69600D02*
D03*
X106634D02*
D03*
X104224Y42269D02*
D03*
X98293D02*
D03*
X17535Y90000D02*
D03*
X23465D02*
D03*
X13935Y22000D02*
D03*
X19865D02*
D03*
X13935Y9000D02*
D03*
X19865D02*
D03*
X13935Y15500D02*
D03*
X19865D02*
D03*
D38*
X12043Y106100D02*
D03*
X23687D02*
D03*
X12043Y116000D02*
D03*
X23687D02*
D03*
D39*
X116834Y56540D02*
D03*
Y52800D02*
D03*
Y49060D02*
D03*
X107787D02*
D03*
Y52800D02*
D03*
Y56540D02*
D03*
D40*
X122034Y120800D02*
D03*
X127034D02*
D03*
X117034D02*
D03*
X112034D02*
D03*
D41*
X107034D02*
D03*
D42*
X59600Y31800D02*
D03*
D43*
X22900Y56722D02*
D03*
Y51800D02*
D03*
X36900Y19000D02*
D03*
Y14078D02*
D03*
X80000Y19000D02*
D03*
Y14078D02*
D03*
X22900Y37600D02*
D03*
Y32678D02*
D03*
D44*
X98239Y30500D02*
D03*
X128161D02*
D03*
D45*
X81700Y53800D02*
D03*
M02*
