G04*
G04 #@! TF.GenerationSoftware,Altium Limited,Altium Designer,20.0.2 (26)*
G04*
G04 Layer_Color=32768*
%FSLAX25Y25*%
%MOIN*%
G70*
G01*
G75*
%ADD11C,0.01181*%
%ADD74C,0.00787*%
%ADD76C,0.01575*%
G36*
X60525Y118503D02*
X58162D01*
Y119094D01*
X60525D01*
Y118503D01*
D02*
G37*
G36*
X67961Y119094D02*
X68807D01*
Y118503D01*
X67961D01*
Y117626D01*
X67370D01*
Y118503D01*
X66445D01*
Y119094D01*
X67370D01*
Y119988D01*
X67961D01*
Y119094D01*
D02*
G37*
G36*
X52986D02*
X53831D01*
Y118503D01*
X52986D01*
Y117626D01*
X52395D01*
Y118503D01*
X51469D01*
Y119094D01*
X52395D01*
Y119988D01*
X52986D01*
Y119094D01*
D02*
G37*
G36*
X55800D02*
X56587D01*
Y118306D01*
X55800D01*
Y117125D01*
X55013D01*
Y120275D01*
X55800D01*
Y119094D01*
D02*
G37*
G36*
X57138Y105406D02*
X54775D01*
Y105997D01*
X57138D01*
Y105406D01*
D02*
G37*
G36*
X62905Y105997D02*
X63831D01*
Y105406D01*
X62905D01*
Y104512D01*
X62314D01*
Y105406D01*
X61469D01*
Y105997D01*
X62314D01*
Y106874D01*
X62905D01*
Y105997D01*
D02*
G37*
G36*
X60287Y104225D02*
X59500D01*
Y105406D01*
X58713D01*
Y106194D01*
X59500D01*
Y107375D01*
X60287D01*
Y104225D01*
D02*
G37*
G36*
X66897Y98862D02*
X66306D01*
Y101225D01*
X66897D01*
Y98862D01*
D02*
G37*
G36*
X52697D02*
X52106D01*
Y101225D01*
X52697D01*
Y98862D01*
D02*
G37*
G36*
X67094Y96500D02*
X68275D01*
Y95713D01*
X65125D01*
Y96500D01*
X66306D01*
Y97287D01*
X67094D01*
Y96500D01*
D02*
G37*
G36*
X52894D02*
X54075D01*
Y95713D01*
X50925D01*
Y96500D01*
X52106D01*
Y97287D01*
X52894D01*
Y96500D01*
D02*
G37*
G36*
X66897Y93686D02*
X67774D01*
Y93095D01*
X66897D01*
Y92169D01*
X66306D01*
Y93095D01*
X65412D01*
Y93686D01*
X66306D01*
Y94531D01*
X66897D01*
Y93686D01*
D02*
G37*
G36*
X52697D02*
X53574D01*
Y93095D01*
X52697D01*
Y92169D01*
X52106D01*
Y93095D01*
X51212D01*
Y93686D01*
X52106D01*
Y94531D01*
X52697D01*
Y93686D01*
D02*
G37*
G36*
X57138Y87607D02*
X54775D01*
Y88197D01*
X57138D01*
Y87607D01*
D02*
G37*
G36*
X62905Y88197D02*
X63831D01*
Y87607D01*
X62905D01*
Y86712D01*
X62314D01*
Y87607D01*
X61469D01*
Y88197D01*
X62314D01*
Y89075D01*
X62905D01*
Y88197D01*
D02*
G37*
G36*
X60287Y86425D02*
X59500D01*
Y87607D01*
X58713D01*
Y88394D01*
X59500D01*
Y89575D01*
X60287D01*
Y86425D01*
D02*
G37*
G36*
X67147Y82305D02*
X68041D01*
Y81714D01*
X67147D01*
Y80869D01*
X66556D01*
Y81714D01*
X65679D01*
Y82305D01*
X66556D01*
Y83231D01*
X67147D01*
Y82305D01*
D02*
G37*
G36*
X52794D02*
X53688D01*
Y81714D01*
X52794D01*
Y80869D01*
X52203D01*
Y81714D01*
X51326D01*
Y82305D01*
X52203D01*
Y83231D01*
X52794D01*
Y82305D01*
D02*
G37*
G36*
X68328Y78900D02*
X67147D01*
Y78113D01*
X66359D01*
Y78900D01*
X65178D01*
Y79688D01*
X68328D01*
Y78900D01*
D02*
G37*
G36*
X53975D02*
X52794D01*
Y78113D01*
X52006D01*
Y78900D01*
X50825D01*
Y79688D01*
X53975D01*
Y78900D01*
D02*
G37*
G36*
X67147Y74175D02*
X66556D01*
Y76538D01*
X67147D01*
Y74175D01*
D02*
G37*
G36*
X52794D02*
X52203D01*
Y76538D01*
X52794D01*
Y74175D01*
D02*
G37*
G36*
X57138Y69706D02*
X54775D01*
Y70297D01*
X57138D01*
Y69706D01*
D02*
G37*
G36*
X62905Y70297D02*
X63831D01*
Y69706D01*
X62905D01*
Y68812D01*
X62314D01*
Y69706D01*
X61469D01*
Y70297D01*
X62314D01*
Y71175D01*
X62905D01*
Y70297D01*
D02*
G37*
G36*
X60287Y68525D02*
X59500D01*
Y69706D01*
X58713D01*
Y70494D01*
X59500D01*
Y71675D01*
X60287D01*
Y68525D01*
D02*
G37*
G36*
X31988Y60503D02*
X29625D01*
Y61094D01*
X31988D01*
Y60503D01*
D02*
G37*
G36*
X37755Y61094D02*
X38681D01*
Y60503D01*
X37755D01*
Y59626D01*
X37164D01*
Y60503D01*
X36318D01*
Y61094D01*
X37164D01*
Y61988D01*
X37755D01*
Y61094D01*
D02*
G37*
G36*
X9788Y61016D02*
X11375D01*
Y60032D01*
X9788D01*
Y59178D01*
X8961D01*
Y60032D01*
X7635D01*
Y61016D01*
X8961D01*
Y62060D01*
X9788D01*
Y61016D01*
D02*
G37*
G36*
X35137Y59125D02*
X34350D01*
Y60307D01*
X33563D01*
Y61094D01*
X34350D01*
Y62275D01*
X35137D01*
Y59125D01*
D02*
G37*
G36*
X10430Y45536D02*
X9603D01*
Y48418D01*
X10430D01*
Y45536D01*
D02*
G37*
G36*
X90475Y118503D02*
X88113D01*
Y119094D01*
X90475D01*
Y118503D01*
D02*
G37*
G36*
X75500D02*
X73138D01*
Y119094D01*
X75500D01*
Y118503D01*
D02*
G37*
G36*
X82936Y119094D02*
X83782D01*
Y118503D01*
X82936D01*
Y117626D01*
X82346D01*
Y118503D01*
X81420D01*
Y119094D01*
X82346D01*
Y119988D01*
X82936D01*
Y119094D01*
D02*
G37*
G36*
X85751D02*
X86538D01*
Y118306D01*
X85751D01*
Y117125D01*
X84963D01*
Y120275D01*
X85751D01*
Y119094D01*
D02*
G37*
G36*
X70775D02*
X71563D01*
Y118306D01*
X70775D01*
Y117125D01*
X69988D01*
Y120275D01*
X70775D01*
Y119094D01*
D02*
G37*
G36*
X79538Y105406D02*
X77175D01*
Y105997D01*
X79538D01*
Y105406D01*
D02*
G37*
G36*
X85305Y105997D02*
X86231D01*
Y105406D01*
X85305D01*
Y104512D01*
X84715D01*
Y105406D01*
X83869D01*
Y105997D01*
X84715D01*
Y106874D01*
X85305D01*
Y105997D01*
D02*
G37*
G36*
X82687Y104225D02*
X81900D01*
Y105406D01*
X81113D01*
Y106194D01*
X81900D01*
Y107375D01*
X82687D01*
Y104225D01*
D02*
G37*
G36*
X106825Y101603D02*
X104462D01*
Y102194D01*
X106825D01*
Y101603D01*
D02*
G37*
G36*
X99286Y102194D02*
X100131D01*
Y101603D01*
X99286D01*
Y100726D01*
X98695D01*
Y101603D01*
X97769D01*
Y102194D01*
X98695D01*
Y103088D01*
X99286D01*
Y102194D01*
D02*
G37*
G36*
X102100D02*
X102887D01*
Y101406D01*
X102100D01*
Y100225D01*
X101312D01*
Y103375D01*
X102100D01*
Y102194D01*
D02*
G37*
G36*
X89497Y98862D02*
X88906D01*
Y101225D01*
X89497D01*
Y98862D01*
D02*
G37*
G36*
X75097D02*
X74506D01*
Y101225D01*
X75097D01*
Y98862D01*
D02*
G37*
G36*
X89694Y96500D02*
X90875D01*
Y95713D01*
X87725D01*
Y96500D01*
X88906D01*
Y97287D01*
X89694D01*
Y96500D01*
D02*
G37*
G36*
X75294D02*
X76475D01*
Y95713D01*
X73325D01*
Y96500D01*
X74506D01*
Y97287D01*
X75294D01*
Y96500D01*
D02*
G37*
G36*
X89497Y93686D02*
X90374D01*
Y93095D01*
X89497D01*
Y92169D01*
X88906D01*
Y93095D01*
X88012D01*
Y93686D01*
X88906D01*
Y94531D01*
X89497D01*
Y93686D01*
D02*
G37*
G36*
X75097D02*
X75974D01*
Y93095D01*
X75097D01*
Y92169D01*
X74506D01*
Y93095D01*
X73612D01*
Y93686D01*
X74506D01*
Y94531D01*
X75097D01*
Y93686D01*
D02*
G37*
G36*
X79538Y87607D02*
X77175D01*
Y88197D01*
X79538D01*
Y87607D01*
D02*
G37*
G36*
X85305Y88197D02*
X86231D01*
Y87607D01*
X85305D01*
Y86712D01*
X84715D01*
Y87607D01*
X83869D01*
Y88197D01*
X84715D01*
Y89075D01*
X85305D01*
Y88197D01*
D02*
G37*
G36*
X82687Y86425D02*
X81900D01*
Y87607D01*
X81113D01*
Y88394D01*
X81900D01*
Y89575D01*
X82687D01*
Y86425D01*
D02*
G37*
G36*
X89694Y82305D02*
X90588D01*
Y81714D01*
X89694D01*
Y80869D01*
X89103D01*
Y81714D01*
X88226D01*
Y82305D01*
X89103D01*
Y83231D01*
X89694D01*
Y82305D01*
D02*
G37*
G36*
X75294D02*
X76188D01*
Y81714D01*
X75294D01*
Y80869D01*
X74703D01*
Y81714D01*
X73826D01*
Y82305D01*
X74703D01*
Y83231D01*
X75294D01*
Y82305D01*
D02*
G37*
G36*
X90875Y78900D02*
X89694D01*
Y78113D01*
X88906D01*
Y78900D01*
X87725D01*
Y79688D01*
X90875D01*
Y78900D01*
D02*
G37*
G36*
X76475D02*
X75294D01*
Y78113D01*
X74506D01*
Y78900D01*
X73325D01*
Y79688D01*
X76475D01*
Y78900D01*
D02*
G37*
G36*
X89694Y74175D02*
X89103D01*
Y76538D01*
X89694D01*
Y74175D01*
D02*
G37*
G36*
X75294D02*
X74703D01*
Y76538D01*
X75294D01*
Y74175D01*
D02*
G37*
G36*
X79538Y69706D02*
X77175D01*
Y70297D01*
X79538D01*
Y69706D01*
D02*
G37*
G36*
X85305Y70297D02*
X86231D01*
Y69706D01*
X85305D01*
Y68812D01*
X84715D01*
Y69706D01*
X83869D01*
Y70297D01*
X84715D01*
Y71175D01*
X85305D01*
Y70297D01*
D02*
G37*
G36*
X82687Y68525D02*
X81900D01*
Y69706D01*
X81113D01*
Y70494D01*
X81900D01*
Y71675D01*
X82687D01*
Y68525D01*
D02*
G37*
G36*
X129200Y38000D02*
X131200D01*
Y37000D01*
X129200D01*
Y35500D01*
Y35000D01*
X128200Y35000D01*
X128200Y37000D01*
X126200D01*
Y38000D01*
X128200D01*
X128200Y40000D01*
X129200D01*
Y38000D01*
D02*
G37*
D11*
X111197Y62701D02*
G03*
X111197Y62701I-591J0D01*
G01*
X8935Y82800D02*
G03*
X8935Y82800I-591J0D01*
G01*
X23535Y82700D02*
G03*
X23535Y82700I-591J0D01*
G01*
D74*
X106091Y56422D02*
G03*
X106091Y56422I-394J0D01*
G01*
D76*
X37687Y53434D02*
G03*
X37687Y53434I-787J0D01*
G01*
M02*
