G04*
G04 #@! TF.GenerationSoftware,Altium Limited,Altium Designer,20.0.2 (26)*
G04*
G04 Layer_Color=255*
%FSLAX25Y25*%
%MOIN*%
G70*
G01*
G75*
%ADD17C,0.06000*%
%ADD19R,0.03543X0.03937*%
%ADD20R,0.03150X0.03543*%
%ADD21R,0.03543X0.03150*%
%ADD24R,0.03402X0.03175*%
%ADD25R,0.03175X0.03402*%
%ADD52C,0.03543*%
%ADD53R,0.03543X0.03543*%
%ADD54C,0.08661*%
%ADD55C,0.03937*%
%ADD56C,0.07087*%
%ADD57R,0.08661X0.08661*%
%ADD60R,0.05118X0.05118*%
%ADD61R,0.03402X0.03150*%
%ADD62R,0.03937X0.03150*%
%ADD63R,0.03150X0.03937*%
%ADD64O,0.07874X0.00984*%
%ADD65R,0.07874X0.00984*%
%ADD66R,0.02362X0.03937*%
D17*
X133700Y17200D02*
D03*
D19*
X37500Y60700D02*
D03*
X31201D02*
D03*
D20*
X22700Y113500D02*
D03*
X17189D02*
D03*
D21*
X51400Y43664D02*
D03*
Y49175D02*
D03*
X32000Y31545D02*
D03*
Y37056D02*
D03*
D24*
X128700Y62669D02*
D03*
Y68600D02*
D03*
X31000Y43235D02*
D03*
Y49165D02*
D03*
X50984Y37500D02*
D03*
Y31569D02*
D03*
D25*
X106531Y68900D02*
D03*
X100600D02*
D03*
X106572Y62901D02*
D03*
X100641D02*
D03*
X51100Y60800D02*
D03*
X45169D02*
D03*
X22621Y100100D02*
D03*
X16690D02*
D03*
X22621Y94000D02*
D03*
X16690D02*
D03*
X22666Y106200D02*
D03*
X16735D02*
D03*
D52*
X122034Y120800D02*
D03*
X127034D02*
D03*
X117034D02*
D03*
X112034D02*
D03*
D53*
X107034D02*
D03*
D54*
X59600Y31800D02*
D03*
D55*
X22900Y56722D02*
D03*
Y51800D02*
D03*
X36900Y19000D02*
D03*
Y14078D02*
D03*
X80000Y19000D02*
D03*
Y14078D02*
D03*
X22900Y37600D02*
D03*
Y32678D02*
D03*
D56*
X98239Y30500D02*
D03*
X128161D02*
D03*
D57*
X81700Y53800D02*
D03*
D60*
X9800Y47040D02*
D03*
Y60426D02*
D03*
D61*
X40900Y31545D02*
D03*
Y37056D02*
D03*
D62*
X112979Y62660D02*
D03*
X122034Y66400D02*
D03*
X112979Y70141D02*
D03*
D63*
X8303Y80427D02*
D03*
X12043Y71372D02*
D03*
X15784Y80427D02*
D03*
X22903Y80327D02*
D03*
X26643Y71272D02*
D03*
X30384Y80327D02*
D03*
D64*
X127540Y98077D02*
D03*
Y95518D02*
D03*
Y92959D02*
D03*
Y90400D02*
D03*
Y87841D02*
D03*
Y85281D02*
D03*
X105886Y95518D02*
D03*
Y92959D02*
D03*
Y90400D02*
D03*
Y87841D02*
D03*
Y85282D02*
D03*
Y82722D02*
D03*
X127540D02*
D03*
X105886Y105754D02*
D03*
Y103195D02*
D03*
X127540Y100636D02*
D03*
Y103195D02*
D03*
X105886Y98077D02*
D03*
Y100636D02*
D03*
D65*
X127540Y105754D02*
D03*
D66*
X37160Y53052D02*
D03*
X40900Y53052D02*
D03*
X44640Y53052D02*
D03*
X44640Y42816D02*
D03*
X37161Y42815D02*
D03*
M02*
