G04*
G04 #@! TF.GenerationSoftware,Altium Limited,Altium Designer,20.0.2 (26)*
G04*
G04 Layer_Physical_Order=2*
G04 Layer_Color=16711680*
%FSLAX25Y25*%
%MOIN*%
G70*
G01*
G75*
%ADD10C,0.01000*%
%ADD17C,0.06000*%
%ADD19R,0.03543X0.03937*%
%ADD20R,0.03150X0.03543*%
%ADD21R,0.03543X0.03150*%
%ADD24R,0.03402X0.03175*%
%ADD25R,0.03175X0.03402*%
%ADD46C,0.01500*%
%ADD47C,0.04000*%
%ADD48C,0.03000*%
%ADD49C,0.02500*%
%ADD50C,0.02000*%
%ADD52C,0.03543*%
%ADD53R,0.03543X0.03543*%
%ADD54C,0.08661*%
%ADD55C,0.03937*%
%ADD56C,0.07087*%
%ADD57R,0.08661X0.08661*%
%ADD58C,0.02200*%
%ADD59C,0.02500*%
%ADD60R,0.05118X0.05118*%
%ADD61R,0.03402X0.03150*%
%ADD62R,0.03937X0.03150*%
%ADD63R,0.03150X0.03937*%
%ADD64O,0.07874X0.00984*%
%ADD65R,0.07874X0.00984*%
%ADD66R,0.02362X0.03937*%
G36*
X24261Y114405D02*
X24291Y114320D01*
X24342Y114245D01*
X24413Y114180D01*
X24504Y114125D01*
X24615Y114080D01*
X24747Y114045D01*
X24899Y114020D01*
X25071Y114005D01*
X25263Y114000D01*
Y113000D01*
X25071Y112995D01*
X24899Y112980D01*
X24747Y112955D01*
X24615Y112920D01*
X24504Y112875D01*
X24413Y112820D01*
X24342Y112755D01*
X24291Y112680D01*
X24261Y112595D01*
X24251Y112500D01*
Y114500D01*
X24261Y114405D01*
D02*
G37*
G36*
X50458Y113783D02*
X50531Y113713D01*
X50610Y113652D01*
X50696Y113598D01*
X50789Y113553D01*
X50888Y113516D01*
X50994Y113487D01*
X51106Y113467D01*
X51225Y113454D01*
X51350Y113450D01*
X51218Y112450D01*
X51094Y112447D01*
X50975Y112437D01*
X50860Y112421D01*
X50750Y112398D01*
X50644Y112369D01*
X50542Y112333D01*
X50445Y112290D01*
X50353Y112241D01*
X50265Y112186D01*
X50181Y112124D01*
X50391Y113862D01*
X50458Y113783D01*
D02*
G37*
G36*
X23548Y111733D02*
X23406Y111712D01*
X23265Y111677D01*
X23123Y111627D01*
X22982Y111564D01*
X22840Y111486D01*
X22699Y111394D01*
X22558Y111288D01*
X22416Y111168D01*
X22275Y111033D01*
X20861D01*
X20991Y111168D01*
X21182Y111394D01*
X21244Y111486D01*
X21283Y111564D01*
X21300Y111627D01*
X21293Y111677D01*
X21264Y111712D01*
X21212Y111733D01*
X21137Y111740D01*
X23689D01*
X23548Y111733D01*
D02*
G37*
G36*
X99623Y111251D02*
X99666Y111230D01*
X99721Y111211D01*
X99789Y111195D01*
X99868Y111181D01*
X100064Y111161D01*
X100309Y111151D01*
X100450Y111150D01*
Y109650D01*
X100309Y109649D01*
X99868Y109619D01*
X99789Y109605D01*
X99721Y109589D01*
X99666Y109570D01*
X99623Y109549D01*
X99593Y109525D01*
Y111275D01*
X99623Y111251D01*
D02*
G37*
G36*
X19017Y107775D02*
X18823Y107574D01*
X18516Y107212D01*
X18404Y107051D01*
X18318Y106903D01*
X18260Y106768D01*
X18229Y106646D01*
X18225Y106538D01*
X18248Y106443D01*
X18298Y106361D01*
X17009Y107877D01*
X17081Y107816D01*
X17168Y107785D01*
X17271Y107784D01*
X17389Y107812D01*
X17522Y107869D01*
X17672Y107955D01*
X17836Y108071D01*
X18016Y108217D01*
X18423Y108596D01*
X19017Y107775D01*
D02*
G37*
G36*
X29540Y105299D02*
X29470Y105375D01*
X29394Y105444D01*
X29312Y105504D01*
X29224Y105556D01*
X29129Y105600D01*
X29029Y105636D01*
X28922Y105664D01*
X28809Y105684D01*
X28691Y105696D01*
X28566Y105700D01*
X28653Y106700D01*
X28777Y106703D01*
X28896Y106714D01*
X29011Y106731D01*
X29121Y106755D01*
X29226Y106786D01*
X29326Y106824D01*
X29422Y106868D01*
X29513Y106920D01*
X29599Y106978D01*
X29680Y107044D01*
X29540Y105299D01*
D02*
G37*
G36*
X24239Y107105D02*
X24270Y107020D01*
X24320Y106945D01*
X24391Y106880D01*
X24482Y106825D01*
X24593Y106780D01*
X24725Y106745D01*
X24877Y106720D01*
X25049Y106705D01*
X25241Y106700D01*
Y105700D01*
X25049Y105695D01*
X24877Y105680D01*
X24725Y105655D01*
X24593Y105620D01*
X24482Y105575D01*
X24391Y105520D01*
X24320Y105455D01*
X24270Y105380D01*
X24239Y105295D01*
X24229Y105200D01*
Y107200D01*
X24239Y107105D01*
D02*
G37*
G36*
X132553Y104879D02*
X132523Y104903D01*
X132480Y104924D01*
X132425Y104943D01*
X132357Y104959D01*
X132278Y104973D01*
X132082Y104993D01*
X131837Y105003D01*
X131696Y105004D01*
Y106504D01*
X131837Y106505D01*
X132278Y106535D01*
X132357Y106549D01*
X132425Y106565D01*
X132480Y106584D01*
X132523Y106605D01*
X132553Y106629D01*
Y104879D01*
D02*
G37*
G36*
X88707Y104825D02*
X88631Y104896D01*
X88550Y104960D01*
X88463Y105016D01*
X88370Y105065D01*
X88273Y105106D01*
X88170Y105140D01*
X88061Y105166D01*
X87948Y105185D01*
X87829Y105196D01*
X87704Y105200D01*
Y106200D01*
X87829Y106204D01*
X87948Y106215D01*
X88061Y106234D01*
X88170Y106260D01*
X88273Y106294D01*
X88370Y106335D01*
X88463Y106384D01*
X88550Y106440D01*
X88631Y106504D01*
X88707Y106575D01*
Y104825D01*
D02*
G37*
G36*
X75544Y106414D02*
X75635Y106369D01*
X75731Y106329D01*
X75830Y106295D01*
X75934Y106266D01*
X76041Y106242D01*
X76152Y106224D01*
X76387Y106203D01*
X76511Y106200D01*
X76784Y105200D01*
X76658Y105196D01*
X76539Y105183D01*
X76429Y105161D01*
X76327Y105130D01*
X76232Y105091D01*
X76145Y105043D01*
X76066Y104987D01*
X75995Y104921D01*
X75932Y104848D01*
X75877Y104765D01*
X75457Y106464D01*
X75544Y106414D01*
D02*
G37*
G36*
X73907Y104525D02*
X73831Y104596D01*
X73750Y104660D01*
X73663Y104716D01*
X73570Y104765D01*
X73473Y104806D01*
X73370Y104840D01*
X73261Y104866D01*
X73148Y104885D01*
X73029Y104896D01*
X72904Y104900D01*
Y105900D01*
X73029Y105904D01*
X73148Y105915D01*
X73261Y105934D01*
X73370Y105960D01*
X73473Y105994D01*
X73570Y106035D01*
X73663Y106084D01*
X73750Y106140D01*
X73831Y106204D01*
X73907Y106275D01*
Y104525D01*
D02*
G37*
G36*
X67527Y106148D02*
X67616Y106096D01*
X67710Y106050D01*
X67808Y106010D01*
X67910Y105977D01*
X68017Y105949D01*
X68128Y105928D01*
X68243Y105912D01*
X68362Y105903D01*
X68486Y105900D01*
X68663Y104900D01*
X68538Y104896D01*
X68419Y104883D01*
X68307Y104862D01*
X68203Y104833D01*
X68105Y104795D01*
X68014Y104748D01*
X67931Y104694D01*
X67854Y104631D01*
X67784Y104559D01*
X67721Y104479D01*
X67441Y106207D01*
X67527Y106148D01*
D02*
G37*
G36*
X65807Y104325D02*
X65731Y104396D01*
X65649Y104460D01*
X65562Y104516D01*
X65470Y104565D01*
X65373Y104606D01*
X65270Y104640D01*
X65161Y104666D01*
X65048Y104685D01*
X64929Y104697D01*
X64804Y104700D01*
Y105700D01*
X64929Y105704D01*
X65048Y105715D01*
X65161Y105734D01*
X65270Y105760D01*
X65373Y105794D01*
X65470Y105835D01*
X65562Y105884D01*
X65649Y105940D01*
X65731Y106004D01*
X65807Y106075D01*
Y104325D01*
D02*
G37*
G36*
X52869Y106004D02*
X52950Y105940D01*
X53037Y105884D01*
X53130Y105835D01*
X53227Y105794D01*
X53330Y105760D01*
X53438Y105734D01*
X53552Y105715D01*
X53671Y105704D01*
X53796Y105700D01*
X53796Y104700D01*
X53671Y104697D01*
X53552Y104685D01*
X53439Y104666D01*
X53330Y104640D01*
X53227Y104606D01*
X53130Y104565D01*
X53037Y104516D01*
X52951Y104460D01*
X52869Y104396D01*
X52793Y104325D01*
X52793Y106075D01*
X52869Y106004D01*
D02*
G37*
G36*
X90853Y105583D02*
X90866Y105481D01*
X90888Y105379D01*
X90918Y105280D01*
X90958Y105181D01*
X91007Y105085D01*
X91065Y104990D01*
X91132Y104896D01*
X91209Y104804D01*
X91294Y104713D01*
X90587Y104006D01*
X90496Y104091D01*
X90404Y104168D01*
X90311Y104235D01*
X90215Y104293D01*
X90119Y104342D01*
X90020Y104382D01*
X89921Y104412D01*
X89820Y104434D01*
X89717Y104447D01*
X89613Y104450D01*
X90850Y105687D01*
X90853Y105583D01*
D02*
G37*
G36*
X116382Y102275D02*
X116319Y102355D01*
X116248Y102426D01*
X116171Y102489D01*
X116087Y102544D01*
X115996Y102590D01*
X115898Y102628D01*
X115794Y102657D01*
X115682Y102678D01*
X115563Y102691D01*
X115438Y102695D01*
X115611Y103695D01*
X115735Y103698D01*
X115854Y103707D01*
X115969Y103723D01*
X116080Y103744D01*
X116186Y103772D01*
X116288Y103806D01*
X116386Y103846D01*
X116480Y103893D01*
X116569Y103945D01*
X116655Y104004D01*
X116382Y102275D01*
D02*
G37*
G36*
X84429Y99886D02*
X84290Y99884D01*
X83945Y99856D01*
X83856Y99839D01*
X83778Y99818D01*
X83714Y99793D01*
X83662Y99765D01*
X83622Y99733D01*
X83595Y99697D01*
X83125Y101383D01*
X83869Y101386D01*
X84429Y99886D01*
D02*
G37*
G36*
X24194Y101005D02*
X24225Y100920D01*
X24275Y100845D01*
X24346Y100780D01*
X24437Y100725D01*
X24549Y100680D01*
X24680Y100645D01*
X24832Y100620D01*
X25004Y100605D01*
X25196Y100600D01*
Y99600D01*
X25004Y99595D01*
X24832Y99580D01*
X24680Y99555D01*
X24549Y99520D01*
X24437Y99475D01*
X24346Y99420D01*
X24275Y99355D01*
X24225Y99280D01*
X24194Y99195D01*
X24184Y99100D01*
Y101100D01*
X24194Y101005D01*
D02*
G37*
G36*
X116768Y98867D02*
X116746Y98883D01*
X116712Y98897D01*
X116663Y98909D01*
X116602Y98920D01*
X116438Y98937D01*
X116221Y98947D01*
X115950Y98950D01*
Y100450D01*
X116092Y100451D01*
X116663Y100491D01*
X116712Y100503D01*
X116746Y100517D01*
X116768Y100533D01*
Y98867D01*
D02*
G37*
G36*
X110685Y97135D02*
X110636Y97219D01*
X110578Y97294D01*
X110512Y97360D01*
X110437Y97418D01*
X110353Y97466D01*
X110261Y97506D01*
X110160Y97537D01*
X110051Y97559D01*
X109933Y97573D01*
X109806Y97577D01*
X110159Y98577D01*
X110283Y98579D01*
X110518Y98597D01*
X110629Y98613D01*
X110840Y98659D01*
X110939Y98688D01*
X111034Y98722D01*
X111126Y98760D01*
X111213Y98804D01*
X110685Y97135D01*
D02*
G37*
G36*
X55980Y94956D02*
X55899Y95022D01*
X55813Y95080D01*
X55722Y95132D01*
X55626Y95176D01*
X55526Y95214D01*
X55421Y95245D01*
X55311Y95269D01*
X55196Y95286D01*
X55077Y95297D01*
X54953Y95300D01*
X54866Y96300D01*
X54991Y96304D01*
X55110Y96316D01*
X55222Y96336D01*
X55329Y96364D01*
X55429Y96400D01*
X55524Y96444D01*
X55612Y96496D01*
X55694Y96557D01*
X55770Y96625D01*
X55840Y96701D01*
X55980Y94956D01*
D02*
G37*
G36*
X98632Y96352D02*
X98695Y96279D01*
X98766Y96213D01*
X98845Y96157D01*
X98932Y96109D01*
X99027Y96070D01*
X99129Y96039D01*
X99239Y96017D01*
X99358Y96004D01*
X99484Y96000D01*
X99211Y95000D01*
X99087Y94997D01*
X98852Y94976D01*
X98741Y94958D01*
X98634Y94934D01*
X98530Y94905D01*
X98431Y94871D01*
X98335Y94831D01*
X98244Y94786D01*
X98157Y94736D01*
X98577Y96435D01*
X98632Y96352D01*
D02*
G37*
G36*
X24206Y95596D02*
X24236Y95513D01*
X24286Y95439D01*
X24356Y95376D01*
X24446Y95322D01*
X24556Y95278D01*
X24686Y95244D01*
X24836Y95220D01*
X25006Y95205D01*
X25196Y95200D01*
Y94200D01*
X25005Y94195D01*
X24833Y94180D01*
X24681Y94155D01*
X24550Y94120D01*
X24439Y94075D01*
X24348Y94020D01*
X24277Y93955D01*
X24226Y93880D01*
X24195Y93795D01*
X24184Y93700D01*
X24196Y95689D01*
X24206Y95596D01*
D02*
G37*
G36*
X63523Y94451D02*
X63566Y94430D01*
X63621Y94411D01*
X63689Y94395D01*
X63768Y94381D01*
X63964Y94361D01*
X64209Y94351D01*
X64350Y94350D01*
Y92850D01*
X64209Y92849D01*
X63768Y92819D01*
X63689Y92805D01*
X63621Y92789D01*
X63566Y92770D01*
X63523Y92749D01*
X63493Y92725D01*
Y94475D01*
X63523Y94451D01*
D02*
G37*
G36*
X84123Y92665D02*
X84095Y92700D01*
X84055Y92731D01*
X84002Y92759D01*
X83937Y92783D01*
X83859Y92804D01*
X83769Y92820D01*
X83666Y92833D01*
X83424Y92848D01*
X83284Y92850D01*
X83772Y94350D01*
X84543Y94364D01*
X84123Y92665D01*
D02*
G37*
G36*
X86305Y93900D02*
X86345Y93868D01*
X86398Y93841D01*
X86463Y93817D01*
X86541Y93796D01*
X86631Y93780D01*
X86734Y93767D01*
X86976Y93752D01*
X87116Y93750D01*
X86628Y92250D01*
X85857Y92236D01*
X86277Y93935D01*
X86305Y93900D01*
D02*
G37*
G36*
X18251Y92281D02*
X18238Y92191D01*
X18227Y92041D01*
X18193Y90391D01*
X18190Y89311D01*
X15190D01*
X15114Y92311D01*
X18265D01*
X18251Y92281D01*
D02*
G37*
G36*
X64276Y83869D02*
X64191Y83778D01*
X64114Y83686D01*
X64047Y83592D01*
X63989Y83497D01*
X63940Y83401D01*
X63901Y83302D01*
X63870Y83203D01*
X63848Y83101D01*
X63835Y82999D01*
X63832Y82894D01*
X62594Y84132D01*
X62699Y84135D01*
X62801Y84148D01*
X62903Y84170D01*
X63002Y84201D01*
X63101Y84240D01*
X63197Y84289D01*
X63292Y84347D01*
X63386Y84414D01*
X63478Y84491D01*
X63569Y84576D01*
X64276Y83869D01*
D02*
G37*
G36*
X9308Y84004D02*
X9353Y83364D01*
X9393Y83104D01*
X9444Y82884D01*
X9505Y82704D01*
X9579Y82564D01*
X9663Y82464D01*
X9759Y82404D01*
X9866Y82384D01*
X6740D01*
X6847Y82404D01*
X6943Y82464D01*
X7027Y82564D01*
X7100Y82704D01*
X7162Y82884D01*
X7213Y83104D01*
X7252Y83364D01*
X7280Y83664D01*
X7303Y84384D01*
X9303D01*
X9308Y84004D01*
D02*
G37*
G36*
X101055Y83521D02*
X101137Y83458D01*
X101225Y83403D01*
X101318Y83355D01*
X101416Y83314D01*
X101520Y83281D01*
X101628Y83255D01*
X101742Y83237D01*
X101862Y83226D01*
X101986Y83222D01*
X102005Y82222D01*
X101881Y82218D01*
X101761Y82207D01*
X101648Y82188D01*
X101540Y82161D01*
X101437Y82127D01*
X101341Y82085D01*
X101249Y82035D01*
X101163Y81978D01*
X101083Y81913D01*
X101008Y81841D01*
X100977Y83591D01*
X101055Y83521D01*
D02*
G37*
G36*
X72503Y81813D02*
X72515Y81736D01*
X72536Y81659D01*
X72564Y81580D01*
X72601Y81501D01*
X72647Y81421D01*
X72701Y81341D01*
X72763Y81259D01*
X72834Y81177D01*
X72913Y81094D01*
X72206Y80387D01*
X72123Y80466D01*
X71959Y80599D01*
X71879Y80653D01*
X71799Y80699D01*
X71720Y80736D01*
X71641Y80765D01*
X71564Y80785D01*
X71487Y80797D01*
X71411Y80800D01*
X72500Y81889D01*
X72503Y81813D01*
D02*
G37*
G36*
X21363Y84002D02*
X22154Y83323D01*
X22528Y83048D01*
X22887Y82814D01*
X23232Y82623D01*
X23562Y82475D01*
X23878Y82369D01*
X24179Y82305D01*
X24466Y82284D01*
X21340Y78371D01*
X21319Y78658D01*
X21255Y78959D01*
X21149Y79275D01*
X21001Y79605D01*
X20810Y79950D01*
X20576Y80309D01*
X20301Y80682D01*
X19622Y81473D01*
X19219Y81890D01*
X20946Y84405D01*
X21363Y84002D01*
D02*
G37*
G36*
X17335Y78441D02*
X17324Y78353D01*
X17314Y78205D01*
X17284Y75516D01*
X14284D01*
X14221Y78471D01*
X17346D01*
X17335Y78441D01*
D02*
G37*
G36*
X49923Y76951D02*
X49966Y76930D01*
X50021Y76911D01*
X50089Y76895D01*
X50168Y76881D01*
X50364Y76861D01*
X50609Y76851D01*
X50750Y76850D01*
Y75350D01*
X50609Y75349D01*
X50168Y75319D01*
X50089Y75305D01*
X50021Y75289D01*
X49966Y75270D01*
X49923Y75249D01*
X49893Y75225D01*
Y76975D01*
X49923Y76951D01*
D02*
G37*
G36*
X69640Y75199D02*
X69609Y75228D01*
X69566Y75253D01*
X69510Y75276D01*
X69442Y75296D01*
X69363Y75312D01*
X69271Y75326D01*
X69051Y75344D01*
X68782Y75350D01*
X68933Y76850D01*
X69075Y76851D01*
X69593Y76884D01*
X69659Y76896D01*
X69712Y76910D01*
X69752Y76926D01*
X69780Y76944D01*
X69640Y75199D01*
D02*
G37*
G36*
X80079Y76645D02*
X80120Y76615D01*
X80174Y76588D01*
X80240Y76565D01*
X80319Y76546D01*
X80409Y76529D01*
X80512Y76517D01*
X80755Y76503D01*
X80895Y76501D01*
X80501Y75001D01*
X79700Y74965D01*
X80049Y76679D01*
X80079Y76645D01*
D02*
G37*
G36*
X92207Y74876D02*
X92177Y74900D01*
X92134Y74921D01*
X92079Y74940D01*
X92011Y74956D01*
X91932Y74970D01*
X91736Y74989D01*
X91491Y74999D01*
X91350Y75001D01*
Y76501D01*
X91491Y76502D01*
X91932Y76532D01*
X92011Y76546D01*
X92079Y76562D01*
X92134Y76581D01*
X92177Y76602D01*
X92207Y76626D01*
Y74876D01*
D02*
G37*
G36*
X101050Y71374D02*
X101022Y71303D01*
X101007Y71229D01*
X101008Y71152D01*
X101024Y71072D01*
X101054Y70989D01*
X101099Y70903D01*
X101099Y70903D01*
X101169Y70843D01*
X101283Y70766D01*
X101390Y70702D01*
X101492Y70652D01*
X101587Y70617D01*
X101676Y70596D01*
X101759Y70589D01*
X101260D01*
X100456Y70079D01*
X99970Y70589D01*
X99547D01*
X99621Y70591D01*
X99683Y70597D01*
X99733Y70607D01*
X99770Y70621D01*
X99796Y70639D01*
X99810Y70661D01*
X99812Y70687D01*
X99802Y70716D01*
X99780Y70750D01*
X99747Y70788D01*
X99768Y70800D01*
X99454Y71130D01*
X101094Y71442D01*
X101050Y71374D01*
D02*
G37*
G36*
X25081Y69316D02*
X25051Y69403D01*
X24961Y69480D01*
X24811Y69549D01*
X24601Y69608D01*
X24331Y69658D01*
X24001Y69699D01*
X23161Y69754D01*
X22081Y69772D01*
Y72772D01*
X22651Y72777D01*
X24331Y72887D01*
X24601Y72937D01*
X24811Y72996D01*
X24961Y73065D01*
X25051Y73142D01*
X25081Y73229D01*
Y69316D01*
D02*
G37*
G36*
X117057Y72097D02*
X116654Y71680D01*
X115975Y70890D01*
X115699Y70516D01*
X115466Y70157D01*
X115275Y69812D01*
X115127Y69482D01*
X115021Y69166D01*
X114957Y68865D01*
X114936Y68578D01*
X111023Y71703D01*
X111309Y71725D01*
X111611Y71788D01*
X111926Y71894D01*
X112257Y72043D01*
X112601Y72234D01*
X112961Y72467D01*
X113334Y72743D01*
X114125Y73422D01*
X114542Y73825D01*
X117057Y72097D01*
D02*
G37*
G36*
X127011Y67024D02*
X126986Y67086D01*
X126911Y67142D01*
X126786Y67190D01*
X126611Y67233D01*
X126386Y67269D01*
X125786Y67321D01*
X124986Y67347D01*
X124511Y67350D01*
Y69850D01*
X124986Y69853D01*
X126611Y69967D01*
X126786Y70009D01*
X126911Y70058D01*
X126986Y70114D01*
X127011Y70175D01*
Y67024D01*
D02*
G37*
G36*
X94061Y64460D02*
X91939D01*
X91950Y64502D01*
X91961Y64602D01*
X91978Y64979D01*
X92000Y67518D01*
X94000D01*
X94061Y64460D01*
D02*
G37*
G36*
X99066Y61212D02*
X99036Y61248D01*
X98946Y61280D01*
X98796Y61308D01*
X98586Y61332D01*
X97986Y61370D01*
X96066Y61401D01*
Y64401D01*
X96636Y64402D01*
X99036Y64553D01*
X99066Y64589D01*
Y61212D01*
D02*
G37*
G36*
X108128Y67186D02*
X108148Y67111D01*
X108151Y67089D01*
X108222D01*
X108198Y66278D01*
X108222Y64711D01*
X108151D01*
X108148Y64589D01*
X108173Y64460D01*
X108248Y64345D01*
X108373Y64243D01*
X108548Y64154D01*
X108773Y64080D01*
X109048Y64019D01*
X109373Y63971D01*
X109580Y63952D01*
X110623Y64022D01*
X110798Y64063D01*
X110923Y64110D01*
X110998Y64163D01*
X111023Y64223D01*
Y61097D01*
X110998Y61156D01*
X110923Y61210D01*
X110798Y61257D01*
X110623Y61297D01*
X110398Y61332D01*
X109798Y61382D01*
X109776Y61382D01*
X108248Y61283D01*
X108173Y61249D01*
X108148Y61212D01*
Y64589D01*
X104997D01*
X105134Y64614D01*
X105258Y64689D01*
X105367Y64814D01*
X105461Y64989D01*
X105541Y65214D01*
X105606Y65489D01*
X105657Y65814D01*
X105662Y65869D01*
X105653Y65986D01*
X105599Y66311D01*
X105531Y66586D01*
X105446Y66811D01*
X105347Y66986D01*
X105231Y67111D01*
X105101Y67186D01*
X104955Y67211D01*
X108107D01*
X108128Y67186D01*
D02*
G37*
G36*
X39284Y62523D02*
X39359Y62403D01*
X39484Y62297D01*
X39659Y62205D01*
X39884Y62127D01*
X40159Y62063D01*
X40484Y62014D01*
X40859Y61979D01*
X41574Y61956D01*
X42693Y62037D01*
X42968Y62085D01*
X43194Y62144D01*
X43369Y62214D01*
X43494Y62295D01*
X43569Y62387D01*
X43593Y62489D01*
Y59111D01*
X43569Y59176D01*
X43494Y59233D01*
X43369Y59284D01*
X43194Y59328D01*
X42968Y59366D01*
X42693Y59396D01*
X41993Y59437D01*
X41424Y59445D01*
X41284Y59443D01*
X40484Y59387D01*
X40159Y59337D01*
X39884Y59274D01*
X39659Y59196D01*
X39484Y59104D01*
X39359Y58998D01*
X39284Y58878D01*
X39259Y58744D01*
Y62657D01*
X39284Y62523D01*
D02*
G37*
G36*
X130305Y61068D02*
X130231Y60993D01*
X130165Y60868D01*
X130108Y60693D01*
X130060Y60468D01*
X130020Y60193D01*
X129968Y59493D01*
X129950Y58593D01*
X127450D01*
X127446Y59068D01*
X127340Y60468D01*
X127292Y60693D01*
X127235Y60868D01*
X127169Y60993D01*
X127095Y61068D01*
X127011Y61093D01*
X130389D01*
X130305Y61068D01*
D02*
G37*
G36*
X63800Y61401D02*
X63230Y61370D01*
X62720Y61281D01*
X62270Y61130D01*
X61880Y60921D01*
X61550Y60650D01*
X61280Y60321D01*
X61070Y59930D01*
X60920Y59481D01*
X60830Y58970D01*
X60800Y58400D01*
X59300Y62901D01*
Y64401D01*
X63800Y61401D01*
D02*
G37*
G36*
X12387Y62869D02*
X12507Y62776D01*
X12707Y62694D01*
X12987Y62623D01*
X13347Y62563D01*
X13787Y62514D01*
X14907Y62448D01*
X16347Y62426D01*
Y58426D01*
X15587Y58420D01*
X12987Y58229D01*
X12707Y58158D01*
X12507Y58076D01*
X12387Y57983D01*
X12347Y57879D01*
Y62973D01*
X12387Y62869D01*
D02*
G37*
G36*
X32889Y58733D02*
X32847Y58701D01*
X32835Y58648D01*
X32853Y58574D01*
X32901Y58479D01*
X32979Y58362D01*
X33087Y58224D01*
X33392Y57885D01*
X33589Y57683D01*
X31998Y57153D01*
X31686Y57455D01*
X31100Y57964D01*
X30825Y58171D01*
X30563Y58346D01*
X30314Y58489D01*
X30077Y58601D01*
X29853Y58680D01*
X29641Y58728D01*
X29441Y58744D01*
X32960D01*
X32889Y58733D01*
D02*
G37*
G36*
X52255Y59405D02*
X52159Y59226D01*
X52121Y59123D01*
X52300D01*
X52205Y59113D01*
X52120Y59083D01*
X52100Y59070D01*
X52075Y59002D01*
X52002Y58734D01*
X51940Y58420D01*
X51890Y58063D01*
X51823Y57213D01*
X51800Y56186D01*
X50800D01*
X50794Y56722D01*
X50660Y58420D01*
X50598Y58734D01*
X50525Y59002D01*
X50500Y59070D01*
X50480Y59083D01*
X50395Y59113D01*
X50300Y59123D01*
X50479D01*
X50441Y59226D01*
X50345Y59405D01*
X50239Y59540D01*
X52361D01*
X52255Y59405D01*
D02*
G37*
G36*
X51804Y55271D02*
X51815Y55152D01*
X51834Y55038D01*
X51860Y54930D01*
X51894Y54827D01*
X51935Y54730D01*
X51984Y54637D01*
X52040Y54550D01*
X52104Y54469D01*
X52175Y54393D01*
X50425D01*
X50496Y54469D01*
X50560Y54550D01*
X50616Y54637D01*
X50665Y54730D01*
X50706Y54827D01*
X50740Y54930D01*
X50766Y55038D01*
X50785Y55152D01*
X50796Y55271D01*
X50800Y55396D01*
X51800D01*
X51804Y55271D01*
D02*
G37*
G36*
X35547Y55735D02*
X36147Y55219D01*
X36403Y55037D01*
X36630Y54904D01*
X36828Y54822D01*
X36996Y54790D01*
X37135Y54809D01*
X37244Y54877D01*
X37325Y54996D01*
X36003Y52099D01*
X36051Y52250D01*
X36065Y52415D01*
X36044Y52593D01*
X35989Y52784D01*
X35899Y52990D01*
X35774Y53209D01*
X35615Y53441D01*
X35421Y53687D01*
X35193Y53947D01*
X34930Y54221D01*
X35203Y56069D01*
X35547Y55735D01*
D02*
G37*
G36*
X48600Y52400D02*
X47200Y51000D01*
X43300D01*
Y57500D01*
X48600D01*
Y52400D01*
D02*
G37*
G36*
X53183Y50726D02*
X53252Y50715D01*
X53368Y50706D01*
X54294Y50681D01*
X55475Y50675D01*
Y47675D01*
X53160Y47612D01*
Y50738D01*
X53183Y50726D01*
D02*
G37*
G36*
X32719Y50654D02*
X32809Y50576D01*
X32959Y50507D01*
X33169Y50448D01*
X33439Y50398D01*
X33769Y50356D01*
X34609Y50301D01*
X35689Y50283D01*
Y47283D01*
X35119Y47286D01*
X32959Y47434D01*
X32809Y47480D01*
X32719Y47532D01*
X32689Y47590D01*
Y50741D01*
X32719Y50654D01*
D02*
G37*
G36*
X12387Y49483D02*
X12507Y49390D01*
X12707Y49308D01*
X12987Y49237D01*
X13347Y49177D01*
X13787Y49128D01*
X14907Y49062D01*
X16347Y49040D01*
Y45040D01*
X15587Y45035D01*
X12987Y44843D01*
X12707Y44772D01*
X12507Y44690D01*
X12387Y44597D01*
X12347Y44493D01*
Y49587D01*
X12387Y49483D01*
D02*
G37*
G36*
X32704Y44173D02*
X32749Y44045D01*
X32824Y43933D01*
X32929Y43835D01*
X33064Y43753D01*
X33229Y43685D01*
X33424Y43633D01*
X33649Y43595D01*
X33904Y43573D01*
X34189Y43565D01*
Y42065D01*
X33904Y42061D01*
X33424Y42029D01*
X33229Y42000D01*
X33064Y41964D01*
X32929Y41919D01*
X32824Y41866D01*
X32749Y41805D01*
X32704Y41736D01*
X32689Y41659D01*
Y44315D01*
X32704Y44173D01*
D02*
G37*
G36*
X36003Y41315D02*
X35988Y41458D01*
X35943Y41585D01*
X35867Y41698D01*
X35761Y41795D01*
X35625Y41878D01*
X35459Y41945D01*
X35263Y41998D01*
X35036Y42035D01*
X34779Y42058D01*
X34491Y42065D01*
Y43565D01*
X34779Y43573D01*
X35036Y43595D01*
X35263Y43633D01*
X35459Y43685D01*
X35625Y43753D01*
X35761Y43835D01*
X35867Y43933D01*
X35943Y44045D01*
X35988Y44173D01*
X36003Y44315D01*
Y41315D01*
D02*
G37*
G36*
X45829Y44632D02*
X45885Y44566D01*
X45980Y44507D01*
X46112Y44456D01*
X46282Y44413D01*
X46490Y44378D01*
X46736Y44351D01*
X47341Y44320D01*
X47700Y44316D01*
Y41316D01*
X47341Y41312D01*
X46490Y41253D01*
X46282Y41218D01*
X46112Y41175D01*
X45980Y41124D01*
X45885Y41066D01*
X45829Y41000D01*
X45810Y40925D01*
Y44706D01*
X45829Y44632D01*
D02*
G37*
G36*
X53031Y42071D02*
X52916Y41981D01*
X52815Y41831D01*
X52727Y41621D01*
X52653Y41351D01*
X52592Y41021D01*
X52545Y40631D01*
X52543Y40599D01*
X52637Y39105D01*
X52673Y39075D01*
X49295D01*
X49331Y39105D01*
X49363Y39195D01*
X49392Y39345D01*
X49416Y39555D01*
X49454Y40156D01*
X49484Y42075D01*
X49639D01*
X49640Y42101D01*
X53160D01*
X53031Y42071D01*
D02*
G37*
G36*
X30240Y35493D02*
X30210Y35505D01*
X30120Y35515D01*
X29970Y35525D01*
X27240Y35555D01*
Y38555D01*
X30240Y38618D01*
Y35493D01*
D02*
G37*
G36*
X39211Y29982D02*
X39181Y29994D01*
X39091Y30004D01*
X38941Y30014D01*
X36568Y30040D01*
X33760Y29982D01*
Y33107D01*
X33790Y33095D01*
X33880Y33085D01*
X34030Y33075D01*
X36403Y33048D01*
X39211Y33107D01*
Y29982D01*
D02*
G37*
G36*
X30240D02*
X30210Y29994D01*
X30120Y30004D01*
X29970Y30014D01*
X27240Y30044D01*
Y33044D01*
X30240Y33107D01*
Y29982D01*
D02*
G37*
G36*
X101016Y32747D02*
X101272Y32537D01*
X101538Y32353D01*
X101814Y32193D01*
X102101Y32058D01*
X102397Y31947D01*
X102703Y31861D01*
X103019Y31799D01*
X103345Y31762D01*
X103681Y31750D01*
Y29250D01*
X103345Y29238D01*
X103019Y29201D01*
X102703Y29139D01*
X102397Y29053D01*
X102101Y28942D01*
X101814Y28807D01*
X101538Y28647D01*
X101272Y28463D01*
X101016Y28253D01*
X100770Y28020D01*
Y32980D01*
X101016Y32747D01*
D02*
G37*
G36*
X128125Y26957D02*
X127851Y26946D01*
X127579Y26910D01*
X127308Y26847D01*
X127038Y26757D01*
X126770Y26641D01*
X126503Y26499D01*
X126237Y26330D01*
X125973Y26135D01*
X125710Y25914D01*
X125448Y25666D01*
X123327Y27788D01*
X123574Y28049D01*
X123796Y28312D01*
X123991Y28576D01*
X124159Y28842D01*
X124302Y29109D01*
X124418Y29377D01*
X124507Y29647D01*
X124570Y29918D01*
X124607Y30191D01*
X124618Y30465D01*
X128125Y26957D01*
D02*
G37*
G36*
X24569Y9704D02*
X24650Y9640D01*
X24737Y9584D01*
X24830Y9535D01*
X24927Y9494D01*
X25030Y9460D01*
X25139Y9434D01*
X25252Y9415D01*
X25371Y9404D01*
X25496Y9400D01*
Y8400D01*
X25371Y8396D01*
X25252Y8385D01*
X25139Y8366D01*
X25030Y8340D01*
X24927Y8306D01*
X24830Y8265D01*
X24737Y8216D01*
X24650Y8160D01*
X24569Y8096D01*
X24493Y8025D01*
Y9775D01*
X24569Y9704D01*
D02*
G37*
G36*
X120507Y7425D02*
X120431Y7496D01*
X120350Y7560D01*
X120263Y7616D01*
X120170Y7665D01*
X120073Y7706D01*
X119970Y7740D01*
X119861Y7766D01*
X119748Y7785D01*
X119629Y7796D01*
X119504Y7800D01*
Y8800D01*
X119629Y8804D01*
X119748Y8815D01*
X119861Y8834D01*
X119970Y8860D01*
X120073Y8894D01*
X120170Y8935D01*
X120263Y8984D01*
X120350Y9040D01*
X120431Y9104D01*
X120507Y9175D01*
Y7425D01*
D02*
G37*
G36*
X61084Y6441D02*
X61154Y6369D01*
X61231Y6306D01*
X61315Y6251D01*
X61405Y6205D01*
X61503Y6167D01*
X61608Y6138D01*
X61719Y6117D01*
X61838Y6104D01*
X61963Y6100D01*
X61786Y5100D01*
X61662Y5097D01*
X61428Y5072D01*
X61317Y5051D01*
X61211Y5023D01*
X61108Y4990D01*
X61010Y4950D01*
X60916Y4904D01*
X60827Y4852D01*
X60741Y4793D01*
X61021Y6521D01*
X61084Y6441D01*
D02*
G37*
G36*
X47733Y3856D02*
X47774Y3781D01*
X47826Y3715D01*
X47889Y3658D01*
X47963Y3610D01*
X48048Y3570D01*
X48144Y3540D01*
X48250Y3518D01*
X48368Y3504D01*
X48496Y3500D01*
X48347Y2500D01*
X48116Y2499D01*
X46964Y2434D01*
X46907Y2418D01*
X47703Y3939D01*
X47733Y3856D01*
D02*
G37*
D10*
X105886Y98077D02*
X111800D01*
X74500Y105700D02*
X89600D01*
X60000Y6400D02*
X60800Y5600D01*
X130950Y112950D02*
X135996Y107904D01*
X133936Y100636D02*
X135996Y102696D01*
Y107904D01*
X71400Y81900D02*
X74200Y79100D01*
X117922Y82722D02*
X127540D01*
X74200Y79100D02*
X114300D01*
X117922Y82722D01*
X45400Y95800D02*
X55800D01*
X38700Y102500D02*
X45400Y95800D01*
X43500Y115800D02*
X131300D01*
X38700Y102500D02*
Y111000D01*
X43500Y115800D01*
X56500Y80000D02*
X56800Y80300D01*
X64982Y85282D02*
X105886D01*
X97800Y95500D02*
X105868D01*
X92105Y103195D02*
X105886D01*
X117205D01*
X41200Y90400D02*
X105886D01*
X100122Y82722D02*
X105886D01*
X41213Y87841D02*
X105886D01*
X127540Y82722D02*
X131278D01*
X56400Y80000D02*
X56500D01*
X49100Y113100D02*
X49400D01*
Y113231D01*
Y113100D02*
X49550Y112950D01*
X130950D01*
X37400Y119500D02*
X101100D01*
X31400Y113500D02*
X37400Y119500D01*
X22700Y113500D02*
X31400D01*
X103000Y117600D02*
X132046D01*
X101100Y119500D02*
X103000Y117600D01*
X132046D02*
X139800Y109846D01*
Y100500D02*
Y109846D01*
X100100Y71142D02*
Y72200D01*
X139400Y52400D02*
Y86100D01*
X111700Y24700D02*
X139400Y52400D01*
X111700Y12900D02*
Y24700D01*
X51300Y53500D02*
Y60600D01*
X97500Y95800D02*
X97800Y95500D01*
X34354Y94700D02*
X41213Y87841D01*
X23321Y94700D02*
X34354D01*
X22621Y94000D02*
X23321Y94700D01*
X31500Y100100D02*
X41200Y90400D01*
X22621Y100100D02*
X31500D01*
X117205Y103195D02*
X117400Y103000D01*
X100100Y82700D02*
X100122Y82722D01*
X100100Y71142D02*
X101041Y70201D01*
X116300Y8300D02*
X121400D01*
X111700Y12900D02*
X116300Y8300D01*
X88000Y8900D02*
X133900Y54800D01*
X23600Y8900D02*
X88000D01*
X134818Y95518D02*
X139800Y100500D01*
X60000Y5800D02*
Y6400D01*
X137500Y53309D02*
Y85300D01*
X135700Y54054D02*
Y84500D01*
X133900Y54800D02*
Y83400D01*
X132541Y92959D02*
X139400Y86100D01*
X127540Y92959D02*
X132541D01*
X132400Y90400D02*
X137500Y85300D01*
X127540Y90400D02*
X132400D01*
X132359Y87841D02*
X135700Y84500D01*
X127540Y87841D02*
X132359D01*
X132019Y85281D02*
X133900Y83400D01*
X127540Y85281D02*
X132019D01*
X62582Y82882D02*
X64982Y85282D01*
X127540Y95518D02*
X134818D01*
X127540Y98077D02*
X134577D01*
X127540Y100636D02*
X133936D01*
X66900Y105400D02*
X74800D01*
X74500Y105700D02*
X74800Y105400D01*
X51900Y105200D02*
X51900Y105200D01*
X66700D01*
X66900Y105400D01*
X22666Y106200D02*
X30400D01*
X30500Y106100D01*
X16735Y106200D02*
X22700Y112165D01*
Y113500D01*
X137796Y101296D02*
Y109304D01*
X134577Y98077D02*
X137796Y101296D01*
X131300Y115800D02*
X137796Y109304D01*
X49000Y113000D02*
X49100Y113100D01*
X49331Y113300D02*
X49400Y113231D01*
X46500Y3600D02*
X47100Y3000D01*
X87191D01*
X137500Y53309D01*
X105868Y95500D02*
X105886Y95518D01*
X89600Y105700D02*
X92105Y103195D01*
X60800Y5600D02*
X87246D01*
X135700Y54054D01*
D17*
X133700Y17200D02*
D03*
D19*
X37500Y60700D02*
D03*
X31201D02*
D03*
D20*
X22700Y113500D02*
D03*
X17189D02*
D03*
D21*
X51400Y43664D02*
D03*
Y49175D02*
D03*
X32000Y31545D02*
D03*
Y37056D02*
D03*
D24*
X128700Y62669D02*
D03*
Y68600D02*
D03*
X31000Y43235D02*
D03*
Y49165D02*
D03*
X50984Y37500D02*
D03*
Y31569D02*
D03*
D25*
X106531Y68900D02*
D03*
X100600D02*
D03*
X106572Y62901D02*
D03*
X100641D02*
D03*
X51100Y60800D02*
D03*
X45169D02*
D03*
X22621Y100100D02*
D03*
X16690D02*
D03*
X22621Y94000D02*
D03*
X16690D02*
D03*
X22666Y106200D02*
D03*
X16735D02*
D03*
D46*
X85100Y93000D02*
X105845D01*
X84900Y93300D02*
X85200Y93600D01*
X84900Y93200D02*
Y93300D01*
X62600Y93600D02*
X85200D01*
X84900Y93200D02*
X85100Y93000D01*
X82336Y100308D02*
X82428Y100400D01*
X114800Y100636D02*
X115736Y99700D01*
X117700D01*
X105886Y100636D02*
X114800D01*
X121405Y103195D02*
X127540D01*
X82836Y100636D02*
X105886D01*
X82500Y100300D02*
X82836Y100636D01*
X31201Y59011D02*
X37160Y53052D01*
X79249Y75751D02*
X93100D01*
X70500Y76100D02*
X70600Y76000D01*
X127540Y105754D02*
X133446D01*
X79000Y76000D02*
X79249Y75751D01*
X31201Y59011D02*
Y60700D01*
X31000Y43235D02*
X31419Y42815D01*
X37161D01*
X105845Y93000D02*
X105886Y92959D01*
X82428Y100400D02*
X82500Y100328D01*
Y100300D02*
Y100328D01*
X85200Y93300D02*
Y93600D01*
X98700Y110400D02*
X114200D01*
X121405Y103195D01*
X49000Y76100D02*
X70500D01*
D47*
X30384Y80327D02*
X30500Y80444D01*
Y91400D01*
X12043Y67243D02*
Y71372D01*
X9700Y64900D02*
X12043Y67243D01*
X9700Y60526D02*
Y64900D01*
Y60526D02*
X9800Y60426D01*
X19196D02*
X22900Y56722D01*
X9800Y60426D02*
X19196D01*
X18140Y47040D02*
X22900Y51800D01*
X9800Y47040D02*
X18140D01*
D48*
X35100Y73900D02*
Y86500D01*
X31000Y48783D02*
X39294D01*
X27865Y49100D02*
X31000D01*
X27865D02*
Y49165D01*
X51136Y43400D02*
X51664D01*
X58899Y62901D02*
X59300D01*
X54579Y67221D02*
X58899Y62901D01*
X41779Y67221D02*
X54579D01*
X59300Y53000D02*
Y62901D01*
X93000D01*
Y55300D02*
Y62901D01*
X93499D02*
X100641D01*
X93000D02*
X93499D01*
X93000Y63400D02*
X93499Y62901D01*
X122461Y24800D02*
X128161Y30500D01*
X51400Y49175D02*
X55475D01*
X59300Y53000D01*
X35100Y73900D02*
X41779Y67221D01*
X50925Y48700D02*
X51400Y49175D01*
X36483Y48700D02*
X50925D01*
X31000Y48783D02*
Y49100D01*
Y49165D01*
X39294Y48783D02*
X40641Y50130D01*
Y52793D02*
X40900Y53052D01*
X40641Y50130D02*
Y52793D01*
X20028Y71272D02*
X26643D01*
X15784Y75516D02*
Y80427D01*
Y75516D02*
X20028Y71272D01*
X117000Y24800D02*
X122461D01*
X69778Y14078D02*
X74700Y19000D01*
X80000D01*
X16322Y14078D02*
X36900D01*
X11600Y18800D02*
X16322Y14078D01*
X11600Y18800D02*
Y32000D01*
X17200Y37600D01*
X22900D01*
X36900Y14078D02*
X69778D01*
X22900Y37600D02*
Y44300D01*
X117638Y74800D02*
X118400D01*
X112979Y70141D02*
X117638Y74800D01*
X40900Y37056D02*
X42744D01*
X48231Y31569D02*
X50984D01*
X12200Y111300D02*
X14400Y113500D01*
X51136Y43400D02*
X51400Y43664D01*
X50984Y43248D02*
X51136Y43400D01*
X51100Y60800D02*
X51300Y60600D01*
X51400Y43664D02*
X51664Y43400D01*
X23445Y37056D02*
X32000D01*
X22900Y37600D02*
X23445Y37056D01*
X14400Y113500D02*
X17189D01*
X16690Y86541D02*
Y94000D01*
Y86541D02*
X22903Y80327D01*
X42744Y37056D02*
X48231Y31569D01*
X22900Y32678D02*
X24034Y31545D01*
X32000D01*
X40900D01*
X50552Y42816D02*
X50984Y43248D01*
Y37500D02*
Y43248D01*
X47700Y42816D02*
X50552D01*
X45500D02*
X47700D01*
X22900Y44300D02*
X23000D01*
X27865Y49165D01*
D49*
X106972Y63700D02*
X108013Y62660D01*
X106972Y63700D02*
Y70201D01*
X98239Y30500D02*
X105000D01*
X45069Y60700D02*
X45169Y60800D01*
X37500Y60700D02*
X45069D01*
X105000Y30500D02*
X128700Y54200D01*
Y62669D01*
X124234Y68600D02*
X128700D01*
X122034Y66400D02*
X124234Y68600D01*
X108013Y62660D02*
X112979D01*
D50*
X43100Y109600D02*
X91600D01*
X44640Y53052D02*
Y56540D01*
X95446Y105754D02*
X105886D01*
X91600Y109600D02*
X95446Y105754D01*
X105886D02*
X112054D01*
X93000Y63400D02*
Y70600D01*
X97650Y75250D01*
X117950D01*
X118400Y74800D01*
X45000Y55100D02*
Y55820D01*
X44800Y56020D02*
X45000Y55820D01*
X44800Y56020D02*
X44980Y56200D01*
X44640Y56540D02*
X44980Y56200D01*
X112054Y105754D02*
X112100Y105800D01*
X8303Y80427D02*
Y94103D01*
X14300Y100100D01*
X16690D01*
D52*
X122034Y120800D02*
D03*
X127034D02*
D03*
X117034D02*
D03*
X112034D02*
D03*
D53*
X107034D02*
D03*
D54*
X59600Y31800D02*
D03*
D55*
X22900Y56722D02*
D03*
Y51800D02*
D03*
X36900Y19000D02*
D03*
Y14078D02*
D03*
X80000Y19000D02*
D03*
Y14078D02*
D03*
X22900Y37600D02*
D03*
Y32678D02*
D03*
D56*
X98239Y30500D02*
D03*
X128161D02*
D03*
D57*
X81700Y53800D02*
D03*
D58*
X71400Y81900D02*
D03*
D59*
X56800Y95900D02*
D03*
X117700Y99700D02*
D03*
X56500Y80000D02*
D03*
X49400Y113100D02*
D03*
X100100Y72200D02*
D03*
X35200Y85600D02*
D03*
X45000Y55100D02*
D03*
X51300Y53500D02*
D03*
X97500Y95800D02*
D03*
X30500Y91400D02*
D03*
X43900Y109400D02*
D03*
X117400Y103000D02*
D03*
X111800Y97700D02*
D03*
X100100Y82700D02*
D03*
X93100Y75751D02*
D03*
X117000Y24800D02*
D03*
X121400Y8300D02*
D03*
X93000Y55300D02*
D03*
X118400Y74800D02*
D03*
X133446Y105754D02*
D03*
X112100Y105800D02*
D03*
X89600Y105700D02*
D03*
X60000Y5800D02*
D03*
X46500Y3600D02*
D03*
X23600Y8900D02*
D03*
X79000Y76000D02*
D03*
X12200Y111300D02*
D03*
X74800Y105400D02*
D03*
X62582Y82882D02*
D03*
X70600Y76000D02*
D03*
X51900Y105200D02*
D03*
X66700Y105200D02*
D03*
X30500Y106100D02*
D03*
X98700Y110400D02*
D03*
X62600Y93600D02*
D03*
X85200Y93300D02*
D03*
X82500Y100300D02*
D03*
X47700Y42816D02*
D03*
X49000Y76100D02*
D03*
D60*
X9800Y47040D02*
D03*
Y60426D02*
D03*
D61*
X40900Y31545D02*
D03*
Y37056D02*
D03*
D62*
X112979Y62660D02*
D03*
X122034Y66400D02*
D03*
X112979Y70141D02*
D03*
D63*
X8303Y80427D02*
D03*
X12043Y71372D02*
D03*
X15784Y80427D02*
D03*
X22903Y80327D02*
D03*
X26643Y71272D02*
D03*
X30384Y80327D02*
D03*
D64*
X127540Y98077D02*
D03*
Y95518D02*
D03*
Y92959D02*
D03*
Y90400D02*
D03*
Y87841D02*
D03*
Y85281D02*
D03*
X105886Y95518D02*
D03*
Y92959D02*
D03*
Y90400D02*
D03*
Y87841D02*
D03*
Y85282D02*
D03*
Y82722D02*
D03*
X127540D02*
D03*
X105886Y105754D02*
D03*
Y103195D02*
D03*
X127540Y100636D02*
D03*
Y103195D02*
D03*
X105886Y98077D02*
D03*
Y100636D02*
D03*
D65*
X127540Y105754D02*
D03*
D66*
X37160Y53052D02*
D03*
X40900Y53052D02*
D03*
X44640Y53052D02*
D03*
X44640Y42816D02*
D03*
X37161Y42815D02*
D03*
M02*
